<?xml version="1.0" standalone="no"?>
<!DOCTYPE svg PUBLIC "-//W3C//DTD SVG 1.1//EN" "http://www.w3.org/Graphics/SVG/1.1/DTD/svg11.dtd" >
<svg>
<metadata>
Created by FontForge 20090914 at Fri May 10 16:55:17 2013
 By www-data
Copyright &#194;&#169; 2009 Bill Troop. Published by Canada Type. All rights reserved.
</metadata>
<defs>
<font id="DidotDisplay" horiz-adv-x="432" >
  <font-face 
    font-family="DidotDisplay"
    font-weight="400"
    font-stretch="normal"
    units-per-em="1000"
    panose-1="2 0 5 3 2 0 0 2 0 3"
    ascent="690"
    descent="-310"
    x-height="371"
    cap-height="668"
    bbox="-184 -312.005 1972 996.992"
    underline-thickness="50"
    underline-position="-50"
    unicode-range="U+0020-U+FB02"
  />
<missing-glyph horiz-adv-x="455" 
d="M50 -50v700h355v-700h-355zM355 389c0 60.667 -15.332 106.17 -45.999 136.503s-75.334 51.166 -134.001 62.499c-4 0.666992 -10 1.5 -18 2.5s-13 2 -15 3s-4.16699 3.66699 -6.5 8s-3.5 10.833 -3.5 19.5h-13v-93c20.667 0 35 -0.333008 43 -1
c53.333 -6.66699 96.833 -22.5 130.5 -47.5s50.5 -58.5 50.5 -100.5c0 -24.667 -7.83301 -45.334 -23.5 -62.001s-33.334 -28.167 -53.001 -34.5s-39 -13.333 -58 -21s-30.833 -15.834 -35.5 -24.501c-4.66699 -9.33301 -7 -21 -7 -35c0 -11.333 1.33301 -23.833 4 -37.5
s5.33398 -24.5 8.00098 -32.5l4 -13h13v45c0 18 5.5 33.667 16.5 47s24.333 25 40 35l47 31.5c15.667 11 29 26 40 45s16.5 41.167 16.5 66.5zM228.001 26.0029c0 10.667 -3.66699 19.667 -11 27s-16.333 11 -27 11s-19.667 -3.66699 -27 -11s-11 -16.333 -11 -27
s3.66699 -19.667 11 -27s16.333 -11 27 -11s19.667 3.66699 27 11s11 16.333 11 27z" />
    <glyph glyph-name=".notdef" horiz-adv-x="455" 
d="M50 -50v700h355v-700h-355zM355 389c0 60.667 -15.332 106.17 -45.999 136.503s-75.334 51.166 -134.001 62.499c-4 0.666992 -10 1.5 -18 2.5s-13 2 -15 3s-4.16699 3.66699 -6.5 8s-3.5 10.833 -3.5 19.5h-13v-93c20.667 0 35 -0.333008 43 -1
c53.333 -6.66699 96.833 -22.5 130.5 -47.5s50.5 -58.5 50.5 -100.5c0 -24.667 -7.83301 -45.334 -23.5 -62.001s-33.334 -28.167 -53.001 -34.5s-39 -13.333 -58 -21s-30.833 -15.834 -35.5 -24.501c-4.66699 -9.33301 -7 -21 -7 -35c0 -11.333 1.33301 -23.833 4 -37.5
s5.33398 -24.5 8.00098 -32.5l4 -13h13v45c0 18 5.5 33.667 16.5 47s24.333 25 40 35l47 31.5c15.667 11 29 26 40 45s16.5 41.167 16.5 66.5zM228.001 26.0029c0 10.667 -3.66699 19.667 -11 27s-16.333 11 -27 11s-19.667 -3.66699 -27 -11s-11 -16.333 -11 -27
s3.66699 -19.667 11 -27s16.333 -11 27 -11s19.667 3.66699 27 11s11 16.333 11 27z" />
    <glyph glyph-name="space" unicode=" " horiz-adv-x="200" 
 />
    <glyph glyph-name="exclam" unicode="!" horiz-adv-x="294" 
d="M214 610c-5.33301 0 -10.166 -0.829102 -14.499 -2.49609s-7.66602 -4.33398 -9.99902 -8.00098s-4.33301 -7.33398 -6 -11.001s-2.83398 -9 -3.50098 -16s-1 -12.667 -1 -17s-0.166992 -11.166 -0.5 -20.499s-0.5 -16.333 -0.5 -21l-13 -397h-33l-13 397
c0 4 -0.166992 9.5 -0.5 16.5s-0.5 12.333 -0.5 16s-0.333008 8.5 -1 14.5s-1.33398 10.667 -2.00098 14s-1.5 7.16602 -2.5 11.499s-2.5 7.66602 -4.5 9.99902s-4.33301 4.66602 -7 6.99902s-5.66699 4 -9 5s-7.33301 1.5 -12 1.5v9h134v-9zM188 26.0039
c0 -10.667 -3.66699 -19.667 -11 -27s-16.333 -11 -27 -11s-19.667 3.66699 -27 11s-11 16.333 -11 27s3.66699 19.667 11 27s16.333 11 27 11s19.667 -3.66699 27 -11s11 -16.333 11 -27z" />
    <glyph glyph-name="quotedbl" unicode="&#x22;" horiz-adv-x="337" 
d="M277 554c-2.66699 0 -5.00098 -0.333984 -7.00098 -1.00098s-3.66699 -2 -5 -4s-2.33301 -4 -3 -6s-1.16699 -4.66699 -1.5 -8s-0.666016 -6.16602 -0.999023 -8.49902s-0.5 -5.66602 -0.5 -9.99902v-10.5l-6 -179h-27l-6 179v8c0 3.33301 -0.166992 6 -0.5 8
s-0.5 4.5 -0.5 7.5s-0.166992 5.16699 -0.5 6.5s-0.833008 3.16602 -1.5 5.49902s-1.5 4 -2.5 5l-3.5 3.5c-1.33301 1.33301 -3 2.33301 -5 3s-4 1 -6 1v10h77v-10zM136.999 553.999c-2.66699 0 -5.00098 -0.333984 -7.00098 -1.00098s-3.66699 -2 -5 -4s-2.33301 -4 -3 -6
s-1.16699 -4.66699 -1.5 -8s-0.666016 -6.16602 -0.999023 -8.49902s-0.5 -5.66602 -0.5 -9.99902v-10.5l-6 -179h-27l-6 179v10c0 4.66699 -0.166992 8.16699 -0.5 10.5s-0.666016 5.16602 -0.999023 8.49902s-0.833008 5.83301 -1.5 7.5s-1.83398 3.5 -3.50098 5.5
s-3.5 3.5 -5.5 4.5s-4.66699 1.5 -8 1.5v10h77v-10z" />
    <glyph glyph-name="numbersign" unicode="#" horiz-adv-x="1059" 
d="M1036 386c0 -50.667 -19.167 -96.166 -57.5 -136.499s-86.5 -60.5 -144.5 -60.5c-51.333 0 -94.833 18.5 -130.5 55.5s-53.5 83.167 -53.5 138.5c0 52 19.5 98.5 58.5 139.5s83.167 61.5 132.5 61.5c62 0 110 -19.333 144 -58s51 -85.334 51 -140.001zM971 388.001
c0 54.667 -12.3311 99.501 -36.998 134.501s-56 52.5 -94 52.5c-40 0 -70.667 -19 -92 -57s-32 -81.333 -32 -130c0 -55.333 12.667 -100.833 38 -136.5s53.333 -53.5 84 -53.5c25.333 0 47.166 5.66699 65.499 17s32.166 26.666 41.499 45.999s16 39.333 20 60s6 43 6 67z
M632.002 658.002h-66.999v-673h-3l-448 660v-635h88v-10h-172v10h15c12 0 21 0.5 27 1.5s12 2.83301 18 5.5s10 7 12 13s3 14.333 3 25v544c0 26 -4.83301 42.333 -14.5 49s-26.834 10 -51.501 10h-15v10h161l370 -545v506c0 12 -2.66699 19.833 -8 23.5s-20 5.5 -44 5.5
h-23v10h152v-10zM940.003 75.002h-194v20h194v-20z" />
    <glyph glyph-name="dollar" unicode="$" horiz-adv-x="462" 
d="M402 156c0 -46 -14.1689 -84.6689 -42.502 -116.002s-64.166 -48.666 -107.499 -51.999v-114h-11v114h-2c-28 0 -59.667 3.83301 -95 11.5s-63.333 16.167 -84 25.5v101h10c15.333 -87.333 72.333 -130 171 -128v260l-29 18l-29.5 18.5
c-3.66699 2.33301 -11.834 8 -24.501 17s-20.667 15.833 -24 20.5s-9.16602 11.5 -17.499 20.5s-13.666 17.333 -15.999 25s-4.83301 16.834 -7.5 27.501s-4 21.667 -4 33c0 44 13.5 79.833 40.5 107.5s64.167 42.834 111.5 45.501v109h11v-109
c42.667 0 87.667 -10.667 135 -32v-95h-10c-13.333 77.333 -54.666 115.666 -123.999 114.999h-1v-247l14 -9c1.33301 -0.666992 8.66602 -5.33398 21.999 -14.001s21 -13.834 23 -15.501s8.5 -6.33398 19.5 -14.001s17.833 -13 20.5 -16s8 -8.33301 16 -16
s13.167 -14.167 15.5 -19.5s5.5 -12.166 9.5 -20.499s6.66699 -16.666 8 -24.999s2 -17.166 2 -26.499zM240.998 338.998v240c-40 -3.33301 -67.833 -16 -83.5 -38s-23.5 -47.333 -23.5 -76c0 -24.667 7.33301 -45 22 -61s43 -37.667 85 -65zM359.998 121.998
c-1.33301 26 -10.667 48.168 -28 66.501s-44 39.166 -80 62.499v-252c38 2.66699 66 15.5 84 38.5s26 51.167 24 84.5z" />
    <glyph glyph-name="percent" unicode="%" horiz-adv-x="525" 
d="M475 104c0 -32 -10.001 -58.333 -30.001 -79s-43 -31 -69 -31c-26.667 0 -49.5 10 -68.5 30s-28.5 46 -28.5 78c0 31.333 9.83301 56.5 29.5 75.5s44.834 28.5 75.501 28.5c25.333 0 46.833 -9 64.5 -27s26.5 -43 26.5 -75zM245.999 325
c0 -32 -10.001 -58.333 -30.001 -79s-43 -31 -69 -31c-26.667 0 -49.5 10.167 -68.5 30.5s-28.5 46.5 -28.5 78.5c0 31.333 9.83301 56.333 29.5 75s44.834 28 75.501 28c25.333 0 46.833 -9 64.5 -27s26.5 -43 26.5 -75zM446.998 425l-360 -425h-21l362 425h19z
M207.998 325c0 25.333 -4.5 47.333 -13.5 66s-22.833 28 -41.5 28c-20 0 -35.333 -8.83301 -46 -26.5s-16 -40.167 -16 -67.5c0 -30 5 -54.333 15 -73s24.667 -28 44 -28s33.833 10.333 43.5 31s14.5 44 14.5 70zM435.998 103c0 26 -4.33398 48.333 -13.001 67
s-22.667 28 -42 28c-20 0 -35.333 -9 -46 -27s-16 -40.667 -16 -68c0 -30 5 -54.333 15 -73s25 -28 45 -28c18.667 0 32.834 10.333 42.501 31s14.5 44 14.5 70z" />
    <glyph glyph-name="ampersand" unicode="&#x26;" horiz-adv-x="581" 
d="M576 341c0 -10 -3.33203 -18.498 -9.99902 -25.498s-14 -10.5 -22 -10.5c-10.667 0 -19 3.16699 -25 9.5s-9 13.5 -9 21.5c0 4.66699 2.16699 9.16699 6.5 13.5s9.16602 7.5 14.499 9.5c0 2 -1.16699 4.16699 -3.5 6.5s-5.16602 3.5 -8.49902 3.5
c-38 0 -72.333 -36 -103 -108l-47 -117l38 -42.5l29.5 -34l21 -24.5c7 -8 12.333 -13.833 16 -17.5s7.5 -7 11.5 -10s7.16699 -5 9.5 -6s5.16602 -1.5 8.49902 -1.5c26.667 0 48.667 18 66 54l6 -5c-21.333 -40.667 -47.333 -61 -78 -61c-25.333 0 -48.333 6.16699 -69 18.5
s-49 39.166 -85 80.499c-18.667 -35.333 -40 -62.166 -64 -80.499s-57.667 -27.5 -101 -27.5c-42 0 -77.167 14.5 -105.5 43.5s-42.5 64.5 -42.5 106.5c0 20.667 3 39 9 55s16.833 31 32.5 45s28.167 24 37.5 30s26.333 16.333 51 31l-12.5 12.5
c-6.33301 6.33301 -10.5 10.666 -12.5 12.999s-5.83301 6.5 -11.5 12.5s-9.66699 10.667 -12 14s-5.83301 8 -10.5 14s-8 11 -10 15l-7.5 15c-3 6 -5.16699 11.5 -6.5 16.5s-2.5 10.667 -3.5 17s-1.5 12.5 -1.5 18.5c0 40 13.5 72.333 40.5 97s60.5 37 100.5 37
c36 0 65.833 -9.5 89.5 -28.5s35.5 -47.167 35.5 -84.5c0 -24 -6.5 -46 -19.5 -66s-25.667 -34.667 -38 -44s-30.5 -21.333 -54.5 -36c-3.33301 -2 -6 -3.66699 -8 -5l145 -166c4 8.66699 10.333 25 19 49s17 45.167 25 63.5s17.833 37.833 29.5 58.5s25.167 36.667 40.5 48
s32 17 50 17c16 0 28.167 -4.33301 36.5 -13s12.5 -19.334 12.5 -32.001zM288.001 458.002c0 30 -6.33301 56.5 -19 79.5s-32 34.5 -58 34.5c-24 0 -44.333 -10.167 -61 -30.5s-25 -42.833 -25 -67.5c0 -42 29.333 -92.333 88 -151c50 32 75 77 75 135zM339.001 101.002
l-174 190c-49.333 -24 -74 -64.333 -74 -121c0 -37.333 12.5 -72.333 37.5 -105s54.833 -49 89.5 -49c46 0 86.333 28.333 121 85z" />
    <glyph glyph-name="quotesingle" unicode="'" horiz-adv-x="197" 
d="M137 554c-2.66699 0 -5.00098 -0.334961 -7.00098 -1.00195s-3.66699 -2 -5 -4s-2.33301 -4 -3 -6s-1.16699 -4.66699 -1.5 -8s-0.666016 -6.16602 -0.999023 -8.49902s-0.5 -5.66602 -0.5 -9.99902v-10.5l-6 -178l-27 -1l-6 179v6c-0.666992 24 -5 37.667 -13 41
c-2 0.666992 -4.33301 1 -7 1v10h77v-10z" />
    <glyph glyph-name="parenleft" unicode="(" horiz-adv-x="256" 
d="M212 656c-17.333 -24 -31.332 -45.3311 -41.999 -63.998s-23.834 -45.334 -39.501 -80.001s-27.5 -74.334 -35.5 -119.001s-12 -93.334 -12 -146.001c0 -123.333 29.667 -255 89 -395l-5 -8c-76.667 146.667 -115 290.334 -115 431.001c0 147.333 51.333 276.333 154 387
z" />
    <glyph glyph-name="parenright" unicode=")" horiz-adv-x="256" 
d="M89 656c76.667 -147.333 114.999 -290.336 114.999 -429.003c0 -147.333 -51.333 -277 -154 -389l-6 6c17.333 24 31.333 45.333 42 64s23.834 45.334 39.501 80.001s27.5 74.334 35.5 119.001s12 93.334 12 146.001c0 123.333 -29.667 255 -89 395z" />
    <glyph glyph-name="asterisk" unicode="*" horiz-adv-x="350" 
d="M69 628l78 -92l-5 -6l-96 71l8 19zM316 528l6 -20l-7 -15l-118 20v8zM184 494l58 -99l-14 -15l-17 -2l-34 113zM144 503l5 -6l-87 -82l-17 11l-5 16zM241 648l-56 -107l-7 3l30 115h20z" />
    <glyph glyph-name="plus" unicode="+" horiz-adv-x="365" 
d="M330 269h-123v-248h-50v248h-122v50h122v185h50v-185h123v-50z" />
    <glyph glyph-name="comma" unicode="," horiz-adv-x="186" 
d="M144 0c0 -20 -7.33203 -42.666 -21.999 -67.999s-32 -48 -52 -68l-5 6c36.667 42.667 55 81.667 55 117c0 8.66699 -2 15 -6 19c-4.66699 -12.667 -15.334 -19 -32.001 -19c-8.66699 0 -16.667 3.66699 -24 11s-11 16.666 -11 27.999c0 12 4 22 12 30s18.667 12 32 12
c16 0 28.833 -5.66699 38.5 -17s14.5 -28.333 14.5 -51z" />
    <glyph glyph-name="hyphen" unicode="-" horiz-adv-x="274" 
d="M234 180h-194v36h194v-36z" />
    <glyph glyph-name="period" unicode="." horiz-adv-x="176" 
d="M126 26c0 -10.667 -3.66699 -19.667 -11 -27s-16.333 -11 -27 -11s-19.667 3.66699 -27 11s-11 16.333 -11 27s3.66699 19.667 11 27s16.333 11 27 11s19.667 -3.66699 27 -11s11 -16.333 11 -27z" />
    <glyph glyph-name="slash" unicode="/" horiz-adv-x="306" 
d="M286 694l-226 -808h-35l225 808h36z" />
    <glyph glyph-name="zero" unicode="0" horiz-adv-x="449" 
d="M419 317c0 -34.667 -3.33398 -69.666 -10.001 -104.999s-17 -70.5 -31 -105.5s-34.5 -63.333 -61.5 -85s-58.5 -32.5 -94.5 -32.5c-32.667 0 -62 11 -88 33s-46.167 49.833 -60.5 83.5s-25.166 67.667 -32.499 102s-11 66.5 -11 96.5c0 36.667 4 72.5 12 107.5
s19.833 68 35.5 99s37.167 56 64.5 75s58.333 28.5 93 28.5c44.667 0 86.5 -27.333 125.5 -82s58.5 -126.334 58.5 -215.001zM354.999 293.001c0 104 -12.499 182.001 -37.499 234.001s-54.5 78 -88.5 78c-32 0 -58.667 -15.833 -80 -47.5s-35.833 -67.834 -43.5 -108.501
s-11.5 -84 -11.5 -130c0 -27.333 1.66699 -56.333 5 -87s9.16602 -65 17.499 -103s22 -69.333 41 -94s41.833 -37 68.5 -37c38 0 69 28 93 84s36 126.333 36 211z" />
    <glyph glyph-name="one" unicode="1" horiz-adv-x="299" 
d="M259 0h-185.999v10h21c19.333 0.666992 31.666 3 36.999 7s8 15 8 33v528l-121 -46v12l155 60h26v-594h60v-10z" />
    <glyph glyph-name="two" unicode="2" horiz-adv-x="389" 
d="M349 113l-30.002 -113.003h-319c7.33301 14.667 14.333 26.334 21 35.001c14 18 36.667 39.333 68 64c48 37.333 90.667 85.833 128 145.5s56.333 118.834 57 177.501c0 56 -11.167 98.5 -33.5 127.5s-49.5 43.5 -81.5 43.5c-26 0 -50.667 -8.83301 -74 -26.5
s-38.666 -36.167 -45.999 -55.5l-10 5c2 16 17.833 36.5 47.5 61.5s63.167 37.5 100.5 37.5c44.667 0 83 -17.667 115 -53s48 -79.666 48 -132.999c0 -26 -5 -52.333 -15 -79s-21.167 -49.667 -33.5 -69s-31 -42 -56 -68s-44.667 -45.5 -59 -58.5
s-37.166 -32.667 -68.499 -59l-60 -50.5h202c30 0 49.5 3.83301 58.5 11.5s18.5 26.5 28.5 56.5h12z" />
    <glyph glyph-name="three" unicode="3" horiz-adv-x="374" 
d="M335 173l0.00195312 -5.99805c-1.33301 -44.667 -22 -85.667 -62 -123s-86 -56 -138 -56c-24.667 0 -47.5 3.16699 -68.5 9.5s-35.167 13.166 -42.5 20.499c-6 6 -9 13.667 -9 23c0 8 3 15 9 21s13 9 21 9c6.66699 0 13 -2.66699 19 -8s9 -12 9 -20
c0 -8.66699 -3.66699 -15.334 -11 -20.001c8 -8 20.5 -14.167 37.5 -18.5s32.167 -6.5 45.5 -6.5c29.333 0 57.666 13.333 84.999 40s41 62.667 41 108c0 47.333 -11.167 87 -33.5 119s-53.166 49 -92.499 51l-37 1l1 7c92.667 34 139 92.333 139 175
c0 20.667 -6.83301 40.167 -20.5 58.5s-32.5 27.833 -56.5 28.5c-20.667 0 -41.834 -5.5 -63.501 -16.5s-38.167 -23.5 -49.5 -37.5l-9 7c18 21.333 41 39.333 69 54s54.333 22 79 22c29.333 0 54.5 -11.167 75.5 -33.5s31.5 -49.166 31.5 -80.499
c0 -30.667 -11.833 -59.334 -35.5 -86.001s-51.167 -48.667 -82.5 -66l-34 -19c53.333 0 97.166 -13.167 131.499 -39.5s51.5 -65.5 51.5 -117.5z" />
    <glyph glyph-name="four" unicode="4" horiz-adv-x="380" 
d="M316 0h-59v233h-254l303 385h10v-618zM257 278v261l-205 -261h205z" />
    <glyph glyph-name="five" unicode="5" horiz-adv-x="377" 
d="M185 371c45.333 0 83.667 -17.168 115 -51.501s47 -74.5 47 -120.5c0 -63.333 -19 -114.166 -57 -152.499s-86.333 -57.5 -145 -57.5c-48.667 0 -87 15.333 -115 46l8 9c26.667 -30.667 58.667 -46 96 -46c35.333 0 64.333 10.833 87 32.5s38.167 47.667 46.5 78
s12.5 64.5 12.5 102.5c0 36.667 -9.16699 70.5 -27.5 101.5s-44.833 46.5 -79.5 46.5c-46.667 0 -81 -21.667 -103 -65h-15l69 324c30.667 -14.667 64.667 -22 102 -22c41.333 0 76 9.33301 104 28v-50c-29.333 -17.333 -63.333 -26 -102 -26c-32 0 -67 6.33301 -105 19
l-53 -254c28.667 38.667 67 58 115 58z" />
    <glyph glyph-name="six" unicode="6" horiz-adv-x="412" 
d="M382 184c0 -60.667 -14.5 -108.498 -43.5 -143.498s-68.833 -52.5 -119.5 -52.5c-50 0 -92.333 18.333 -127 55s-52 91 -52 163c0 91.333 32 183.166 96 275.499s137.667 151.166 221 176.499c0 -1.33301 0.166992 -3 0.5 -5s0.5 -3.33301 0.5 -4
c-42 -14 -79.167 -36.167 -111.5 -66.5s-57.666 -64.5 -75.999 -102.5s-32.333 -74.833 -42 -110.5s-15.834 -70.5 -18.501 -104.5c12.667 24 30 43.167 52 57.5s44.667 21.5 68 21.5c42 0 77.833 -14.667 107.5 -44s44.5 -68 44.5 -116zM316 169.002v14.001
c0 100.667 -29.667 151 -89 151c-35.333 0 -64.333 -14.5 -87 -43.5s-34 -60.167 -34 -93.5c0 -62 9 -110.833 27 -146.5s45 -53.5 81 -53.5c19.333 0 36 5.66699 50 17s24.5 26.166 31.5 44.499s12.167 36.5 15.5 54.5s5 36.667 5 56z" />
    <glyph glyph-name="seven" unicode="7" horiz-adv-x="367" 
d="M375 604l-51.001 -107.999c-34 -71.333 -74 -163 -120 -275s-79.333 -208 -100 -288l-19 6c85.333 263.333 166.333 466.666 243 609.999h-226c-13.333 0 -24.666 -4.83301 -33.999 -14.5s-15.333 -19.5 -18 -29.5l-5 -15h-12l10 114h332z" />
    <glyph glyph-name="eight" unicode="8" horiz-adv-x="404" 
d="M374 150c0 -46 -15.832 -84.502 -47.499 -115.502s-73.5 -46.5 -125.5 -46.5c-46.667 0 -86.834 12 -120.501 36s-50.5 58.333 -50.5 103c0 22.667 2.66699 42.334 8 59.001s14.833 31.334 28.5 44.001s25.5 22.334 35.5 29.001s25.667 15.667 47 27l13 7l-5 3
c-68.667 46.667 -103 101.667 -103 165c0 37.333 13.5 72.166 40.5 104.499s66.5 48.5 118.5 48.5c42.667 0 78.167 -12.5 106.5 -37.5s42.5 -55.833 42.5 -92.5c0 -42 -11.333 -74.833 -34 -98.5s-55.667 -45.5 -99 -65.5c42 -23.333 76.667 -48.5 104 -75.5
s41 -58.5 41 -94.5zM310.001 480.998c0 30.667 -7.33301 58.998 -22 84.998s-40 39 -76 39c-21.333 0 -39.5 -4.66699 -54.5 -14s-26.167 -21.666 -33.5 -36.999s-12.333 -30.166 -15 -44.499s-4 -29.5 -4 -45.5c0 -54 38 -100.333 114 -139c32.667 18.667 56 42.667 70 72
s21 57.333 21 84zM320.001 128.996c0 30.667 -13.332 58.168 -39.999 82.501s-63.667 49.5 -111 75.5c-28.667 -16 -49.834 -34.167 -63.501 -54.5s-20.5 -50.5 -20.5 -90.5c0 -38.667 11.167 -72.334 33.5 -101.001s51.833 -43 88.5 -43c39.333 0 68 13.167 86 39.5
s27 56.833 27 91.5z" />
    <glyph glyph-name="nine" unicode="9" horiz-adv-x="411" 
d="M371 401c0 -60 -15.5 -122.333 -46.5 -187s-72.333 -121.5 -124 -170.5s-105.834 -80.833 -162.501 -95.5v9c42 12.667 79.833 33.667 113.5 63s60.167 62.833 79.5 100.5s34.5 74.334 45.5 110.001s18.5 70.5 22.5 104.5c-13.333 -23.333 -30.166 -41.833 -50.499 -55.5
s-40.833 -20.5 -61.5 -20.5c-43.333 0 -80.333 14.5 -111 43.5s-46 69.167 -46 120.5c0 57.333 15.333 103.5 46 138.5s70.667 52.5 120 52.5s90.833 -18.333 124.5 -55s50.5 -89.334 50.5 -158.001zM306 413c0 128 -36.333 191.999 -109 191.999
c-33.333 0 -58.333 -18.167 -75 -54.5s-25 -74.166 -25 -113.499c0 -112.667 32 -169 96 -169c34.667 0 62.167 15.167 82.5 45.5s30.5 63.5 30.5 99.5z" />
    <glyph glyph-name="colon" unicode=":" horiz-adv-x="246" 
d="M161 306c0 -10.667 -3.66699 -19.667 -11 -27s-16.333 -11 -27 -11s-19.667 3.66699 -27 11s-11 16.333 -11 27s3.66699 19.667 11 27s16.333 11 27 11s19.667 -3.66699 27 -11s11 -16.333 11 -27zM161 26c0 -10.667 -3.66699 -19.667 -11 -27s-16.333 -11 -27 -11
s-19.667 3.66699 -27 11s-11 16.333 -11 27s3.66699 19.667 11 27s16.333 11 27 11s19.667 -3.66699 27 -11s11 -16.333 11 -27z" />
    <glyph glyph-name="semicolon" unicode=";" horiz-adv-x="249" 
d="M173 0c0 -20 -7.33203 -42.666 -21.999 -67.999s-32 -48 -52 -68l-5 6c36.667 42.667 55 81.667 55 117c0 8.66699 -2 15 -6 19c-4.66699 -12.667 -15.334 -19 -32.001 -19c-8.66699 0 -16.667 3.66699 -24 11s-11 16.666 -11 27.999c0 12 4 22 12 30s18.667 12 32 12
c16 0 28.833 -5.66699 38.5 -17s14.5 -28.333 14.5 -51zM163.001 313.001c0 -10.667 -3.66699 -19.667 -11 -27s-16.333 -11 -27 -11s-19.667 3.66699 -27 11s-11 16.333 -11 27s3.66699 19.667 11 27s16.333 11 27 11s19.667 -3.66699 27 -11s11 -16.333 11 -27z" />
    <glyph glyph-name="less" unicode="&#x3c;" horiz-adv-x="212" 
d="M172 31l-162 264l162 264v-61l-119 -203l119 -203v-61z" />
    <glyph glyph-name="equal" unicode="=" horiz-adv-x="501" 
d="M456 346h-411v50h411v-50zM456 173h-411v50h411v-50z" />
    <glyph glyph-name="greater" unicode="&#x3e;" horiz-adv-x="212" 
d="M202 295l-162 -264v61l119 203l-119 203v61z" />
    <glyph glyph-name="question" unicode="?" horiz-adv-x="306" 
d="M276 389c0 -25.333 -5.50195 -47.5029 -16.502 -66.5029s-24.333 -34 -40 -45l-47 -31.5c-15.667 -10 -29 -21.667 -40 -35s-16.5 -29 -16.5 -47v-45h-13c-10.667 30 -16 57.667 -16 83c0 14 2.33301 25.667 7 35c4.66699 8.66699 16.5 16.834 35.5 24.501
s38.333 14.667 58 21s37.334 17.833 53.001 34.5s23.5 37.334 23.5 62.001c0 42 -16.833 75.5 -50.5 100.5s-77.167 40.833 -130.5 47.5l-43 1v93h13c0 -8.66699 1.16699 -15.167 3.5 -19.5s4.5 -7 6.5 -8s7 -2 15 -3s14 -1.83301 18 -2.5
c58.667 -11.333 103.334 -32.166 134.001 -62.499s46 -75.833 46 -136.5zM148.998 25.9971c0 -10.667 -3.66699 -19.667 -11 -27s-16.333 -11 -27 -11s-19.667 3.66699 -27 11s-11 16.333 -11 27s3.66699 19.667 11 27s16.333 11 27 11s19.667 -3.66699 27 -11
s11 -16.333 11 -27z" />
    <glyph glyph-name="at" unicode="@" horiz-adv-x="453" 
d="M393 414c-57.333 22.667 -111 34 -161 34c-48 0 -105.333 -11.333 -172 -34v11c50.667 22 107.334 33 170.001 33c61.333 0 115.666 -11 162.999 -33v-11zM393 -66c-47.333 -22 -101.666 -33 -162.999 -33c-62.667 0 -119.334 11 -170.001 33v11
c66.667 -22.667 124 -34 172 -34c50 0 103.667 11.333 161 34v-11zM391 9c-13.333 -12.667 -34.6699 -18.9971 -64.0029 -18.9971c-19.333 0 -33.333 4.5 -42 13.5s-14.667 23.5 -18 43.5c-18 -14 -31 -23.667 -39 -29s-19.833 -11.166 -35.5 -17.499
s-31.167 -9.5 -46.5 -9.5c-20.667 0 -38.167 7.66699 -52.5 23s-21.5 33.333 -21.5 54c0 14.667 3.5 28.167 10.5 40.5s15.167 22.166 24.5 29.499s22.333 14.166 39 20.499s30.5 10.833 41.5 13.5l45 10.5l37.5 8.5c1.33301 37.333 2 65.333 2 84
c0 23.333 -8 41.833 -24 55.5s-35.667 20.5 -59 20.5c-14 0 -29.833 -3 -47.5 -9s-29.5 -14 -35.5 -24c1.33301 -1.33301 3.83301 -3.5 7.5 -6.5s6.33398 -5.5 8.00098 -7.5l6.5 -7.5c2.66699 -3 4.5 -6 5.5 -9s1.5 -6.16699 1.5 -9.5c0 -8.66699 -3 -16 -9 -22
s-13.333 -9 -22 -9c-7.33301 0 -14.166 2.83301 -20.499 8.5s-9.5 12.167 -9.5 19.5c0 25.333 15.667 49 47 71s61.333 33 90 33c40 0 69.5 -9 88.5 -27s28.5 -47.333 28.5 -88c0 -18.667 -1.16699 -47.334 -3.5 -86.001s-3.5 -67.334 -3.5 -86.001v-5
c-0.666992 -54.667 12 -82 38 -82c8.66699 0 18.334 3 29.001 9zM269.996 182.003l-30.501 -6.49805l-33.5 -7c-8 -1.66699 -17.833 -5 -29.5 -10s-20.667 -10.333 -27 -16s-12 -13.334 -17 -23.001s-7.5 -20.834 -7.5 -33.501c0 -20.667 6.16699 -36.667 18.5 -48
s28.833 -17 49.5 -17c18.667 0 43.334 11.333 74.001 34c0 14 0.5 35.167 1.5 63.5s1.5 49.5 1.5 63.5z" />
    <glyph glyph-name="A" unicode="A" horiz-adv-x="616" 
d="M87 59l233 607.001h6l196 -584c11.333 -34.667 22.5 -55.334 33.5 -62.001s34.5 -10 70.5 -10v-10h-234v10h79l-74 238h-224l-94 -238h95v-10h-184v10c32 0 54 2.66699 66 8s22.333 19 31 41zM176 258.001h217l-104 303z" />
    <glyph glyph-name="B" unicode="B" horiz-adv-x="543" 
d="M507 168c0 -62 -29.998 -109.998 -89.998 -143.998c-28 -16 -71.667 -24 -131 -24h-252v10h30c17.333 0 29.333 3.16699 36 9.5s10 18.833 10 37.5v551c0 22 -3.33301 35.833 -10 41.5s-22.334 8.5 -47.001 8.5h-19v10h233c64.667 0 109 -9 133 -27
c44 -32.667 66 -77.334 66 -134.001c0 -39.333 -15.5 -73.833 -46.5 -103.5s-66.5 -49.834 -106.5 -60.501c21.333 -3.33301 42.166 -8.83301 62.499 -16.5s41 -18 62 -31s37.833 -30.5 50.5 -52.5s19 -47 19 -75zM435.002 163.002c0 51.333 -12.168 92.666 -36.501 123.999
s-70.166 47.333 -137.499 48h-81v-325h89c44.667 0 82 10.333 112 31c36 24.667 54 65.334 54 122.001zM396.001 485.002c0 58.667 -12.333 103.001 -37 133.001c-21.333 26.667 -55 40 -101 40h-78v-312c36 -0.666992 65 -0.333984 87 0.999023
c86 5.33301 129 51.333 129 138z" />
    <glyph glyph-name="C" unicode="C" horiz-adv-x="620" 
d="M585 142l-4.00195 -116.999c-59.333 -23.333 -123 -35 -191 -35c-97.333 0 -181.666 33.5 -252.999 100.5s-107 151.5 -107 253.5c0 48.667 7.16699 92.667 21.5 132s33.333 71.5 57 96.5s51.167 45.833 82.5 62.5s63.166 28.5 95.499 35.5s65.5 10.5 99.5 10.5
c26.667 0 60.834 -4.5 102.501 -13.5s69.5 -16.167 83.5 -21.5c2.66699 -61.333 4 -100.666 4 -117.999l-10 -1c-8.66699 55.333 -29.167 93 -61.5 113s-78.833 30 -139.5 30c-70.667 0 -130.834 -28.333 -180.501 -85s-74.5 -134.667 -74.5 -234
c0 -45.333 5.66699 -88.333 17 -129s28 -77.834 50 -111.501s51.667 -60.334 89 -80.001s80 -29.5 128 -29.5c58.667 0 100.334 11 125.001 33s43.334 58.333 56.001 109z" />
    <glyph glyph-name="D" unicode="D" horiz-adv-x="679" 
d="M649 338c0 -108.667 -32.0029 -192.168 -96.0029 -250.501s-141 -87.5 -231 -87.5h-289v10c20.667 0 35.334 0.5 44.001 1.5s16.334 5 23.001 12s10 18.167 10 33.5v554c0 9.33301 -1.16699 16.833 -3.5 22.5s-5 10.167 -8 13.5s-8.33301 5.83301 -16 7.5
s-14 2.66699 -19 3s-13.5 0.5 -25.5 0.5h-5v10h275c30.667 0 61.334 -3.5 92.001 -10.5s61.167 -18.667 91.5 -35s57 -36.666 80 -60.999s41.667 -55.833 56 -94.5s21.5 -81.667 21.5 -129zM567.997 330.999c0 113.333 -24.5 196.168 -73.5 248.501s-113.5 78.5 -193.5 78.5
h-121v-648h145c33.333 0 64 5.66699 92 17s53.667 29.166 77 53.499s41.5 57.833 54.5 100.5s19.5 92.667 19.5 150z" />
    <glyph glyph-name="E" unicode="E" horiz-adv-x="536" 
d="M511 0h-473.002v10h15c15.333 0 26.333 0.666992 33 2s12.334 5.5 17.001 12.5s7 17.833 7 32.5v562c0 26 -11.667 39 -35 39h-37v10h431v-111h-10c-4 35.333 -13.167 61 -27.5 77s-40.166 24 -77.499 24h-174v-318h154c22.667 0 36 3.66699 40 11s6 32 6 74h10v-162h-10
v67h-157c-11.333 0 -21.333 -2.83301 -30 -8.5s-13 -14.5 -13 -26.5v-285h212c42.667 0 70.667 6.66699 84 20s22 39 26 77h9v-107z" />
    <glyph glyph-name="F" unicode="F" horiz-adv-x="485" 
d="M471 556h-9c-8.66699 34 -19.5 59.5 -32.5 76.5s-33.167 25.5 -60.5 25.5h-189v-314h152c24 0 39.167 4 45.5 12s9.5 31.667 9.5 71h10v-162h-10v69h-171c-24 0 -36 -9.66699 -36 -29v-295h85v-10h-219v10h7c24 0 39.5 2.16699 46.5 6.5s10.5 15.833 10.5 34.5v552
c0 17.333 -2.66699 30.333 -8 39s-11.333 13.667 -18 15s-16.667 2 -30 2h-9v9h426v-112z" />
    <glyph glyph-name="G" unicode="G" horiz-adv-x="672" 
d="M659 255l-66.999 0.00292969c-1.33301 -110 -1.33301 -172 0 -186l6 -22c-70 -39.333 -146.333 -59 -229 -59c-30 0 -60.167 4 -90.5 12s-60.666 21.167 -90.999 39.5s-57 40.666 -80 66.999s-41.667 60 -56 101s-21.166 86.5 -20.499 136.5
c1.33301 98.667 33.833 179.5 97.5 242.5s146.834 94.5 249.501 94.5c53.333 0 118.333 -11.667 195 -35l5 -119h-10c-14.667 96 -77.667 144 -189 144c-80 0 -144.667 -25.833 -194 -77.5s-74 -132.5 -74 -242.5c0 -52.667 5.66699 -99.834 17 -141.501
s26.166 -75.334 44.499 -101.001s39.666 -47.167 63.999 -64.5s48.666 -29.333 72.999 -36s49.166 -10 74.499 -10c24.667 0 48.667 3.33301 72 10s41 14.667 53 24c14 10.667 21 27.667 21 51v140c0 21.333 -12.667 32 -38 32h-44v10h211v-10z" />
    <glyph glyph-name="H" unicode="H" horiz-adv-x="720" 
d="M680 0l-216.999 0.00195312v10h28c22 0 35.667 2.5 41 7.5s8 19.167 8 42.5v283h-360v-333h69v-10h-211v10h7c28 0 45.833 2.16699 53.5 6.5s11.5 16.5 11.5 36.5v533c0 25.333 -2.16699 43.666 -6.5 54.999s-12.5 17 -24.5 17h-41v10h209v-10h-67v-304h360v232
c0 29.333 -1.33301 48.666 -4 57.999s-10.334 14 -23.001 14h-39v10h206v-10h-70v-648h70v-10z" />
    <glyph glyph-name="I" unicode="I" horiz-adv-x="290" 
d="M240 0l-195.001 0.000976562v10h7c26.667 0 43 2 49 6s9 16.333 9 37v561c0 11.333 -0.333008 19.666 -1 24.999s-2.66699 9.83301 -6 13.5s-8.66602 5.5 -15.999 5.5h-42v10h195v-10h-60v-648h60v-10z" />
    <glyph glyph-name="J" unicode="J" horiz-adv-x="285" 
d="M250 658h-70.0039v-634c0 -109.333 -28.333 -190.333 -85 -243c-26.667 -24.667 -52.667 -37 -78 -37c-26 0 -47.5 6.16699 -64.5 18.5s-25.5 27.5 -25.5 45.5c0 10.667 3.33301 19.834 10 27.501s15.667 11.5 27 11.5c8.66699 0 15.667 -3.33301 21 -10
s8 -14.334 8 -23.001c0 -15.333 -8.66699 -26 -26 -32c2.66699 -6.66699 8.83398 -13.334 18.501 -20.001s19.834 -10 30.501 -10c14.667 0 28.834 4.33301 42.501 13s23.834 19.334 30.501 32.001c15.333 29.333 23 77.333 23 144c0 14 -0.333008 31.333 -1 52
s-1 33.667 -1 39v568c0 27.333 -1.66699 43.833 -5 49.5s-13.333 8.5 -30 8.5h-36v10h211v-10z" />
    <glyph glyph-name="K" unicode="K" horiz-adv-x="642" 
d="M656 0h-212v10h64l-286 337l-42 -50v-287h62v-10h-204v10h20c21.333 0.666992 35.333 3.66699 42 9s10 18 10 38v516c0 39.333 -2.33301 63.333 -7 72s-19.334 13 -44.001 13h-14v10h197v-10h-62v-348l289 348h-80v10h184v-10h-55c-13.333 0 -24.666 -2 -33.999 -6
s-20.333 -13.667 -33 -29l-183 -220l262 -310c46 -55.333 78.333 -83 97 -83h29v-10z" />
    <glyph glyph-name="L" unicode="L" horiz-adv-x="525" 
d="M521 0l-484 -0.000976562v10c27.333 0 46.333 2.83301 57 8.5s16 18.5 16 38.5v549c0 23.333 -4.33301 37.833 -13 43.5s-28.667 8.5 -60 8.5v10h218v-10h-75v-648c107.333 0 190 0.666992 248 2c44 0.666992 71.667 37.334 83 110.001h10v-122z" />
    <glyph glyph-name="M" unicode="M" horiz-adv-x="831" 
d="M796 0l-204 -0.00195312v10h20c18 0 29 1.83301 33 5.5s6 15.834 6 36.501v598l-260 -663h-6l-270 658v-635h81v-10h-171v10h33c18 0.666992 30.333 3.83398 37 9.50098s10 17.5 10 35.5v547c0 24.667 -2.5 40.167 -7.5 46.5s-17.833 9.5 -38.5 9.5h-34v10h157l237 -583
l229 583h148v-10h-75v-648h75v-10z" />
    <glyph glyph-name="N" unicode="N" horiz-adv-x="665" 
d="M632 658h-66.999v-673h-3l-448 660v-635h88v-10h-172v10h15c12 0 21 0.5 27 1.5s12 2.83301 18 5.5s10 7 12 13s3 14.333 3 25v544c0 26 -4.83301 42.333 -14.5 49s-26.834 10 -51.501 10h-15v10h161l370 -545v506c0 12 -2.66699 19.833 -8 23.5s-20 5.5 -44 5.5h-23v10
h152v-10z" />
    <glyph glyph-name="O" unicode="O" horiz-adv-x="740" 
d="M710 345c0 -54 -10.835 -104.001 -32.502 -150.001s-49.5 -83.833 -83.5 -113.5s-71.333 -52.667 -112 -69s-81 -24.5 -121 -24.5c-39.333 0 -78.166 7.83301 -116.499 23.5s-73.666 37.667 -105.999 66s-58.5 65.333 -78.5 111s-30 95.5 -30 149.5
c0 68.667 18 129.667 54 183s79.667 92.833 131 118.5s104 38.5 158 38.5c93.333 0 172.833 -31.667 238.5 -95s98.5 -142.666 98.5 -237.999zM629.998 343.999c0 96 -24.667 173.833 -74 233.5s-110 89.5 -182 89.5c-74 0 -136.5 -31.833 -187.5 -95.5
s-76.5 -142.167 -76.5 -235.5c0 -108 23.833 -191 71.5 -249s111.5 -87 191.5 -87c70 0 130.333 32 181 96s76 146.667 76 248z" />
    <glyph glyph-name="P" unicode="P" horiz-adv-x="519" 
d="M497 478c0 -52 -13.167 -95.668 -39.5 -131.001s-60.5 -60.666 -102.5 -75.999c-27.333 -9.33301 -58.333 -14 -93 -14c-27.333 0 -54.666 4.33301 -81.999 13v-260h73v-10h-211v10c28.667 0 47.167 2.33301 55.5 7s12.5 18 12.5 40v529c0 18 -1.33301 32 -4 42
s-8.16699 17.167 -16.5 21.5s-16 6.83301 -23 7.5s-19.167 1 -36.5 1v10h235c74.667 0 131.667 -18.167 171 -54.5s59.666 -81.5 60.999 -135.5zM420 479.999c0 60 -15.668 104.667 -47.001 134s-73 44 -125 44h-68v-378c16 -8.66699 43 -13 81 -13
c25.333 0 49.333 6.33301 72 19c24.667 14 45.334 38 62.001 72s25 74.667 25 122z" />
    <glyph glyph-name="Q" unicode="Q" horiz-adv-x="740" 
d="M775 -63c-22.667 -22.667 -53.998 -41.6689 -93.998 -57.002s-79.667 -23 -119 -23c-35.333 0 -76.5 10.5 -123.5 31.5s-85.167 54.833 -114.5 101.5c-80.667 12 -149.834 49 -207.501 111s-86.5 141 -86.5 237c0 93.333 33.333 173.333 100 240s147.667 100 243 100
c93.333 0 172.833 -31.667 238.5 -95s98.5 -142.666 98.5 -237.999c0 -88 -27.167 -164 -81.5 -228s-124.5 -105.333 -210.5 -124c3.33301 -8 7.66602 -16 12.999 -24c23.333 -31.333 51 -53.166 83 -65.499s61.667 -18.5 89 -18.5c30 0 60 5.83301 90 17.5
s55.333 26.167 76 43.5zM630.002 338.998c0 55.333 -9.00098 107.334 -27.001 156.001s-46.833 89.667 -86.5 123s-86.5 50 -140.5 50c-78 0 -141.833 -32.667 -191.5 -98s-74.5 -145.333 -74.5 -240c0 -102.667 23.833 -183.334 71.5 -242.001s112.834 -88 195.501 -88
c68 0 127.167 32 177.5 96s75.5 145 75.5 243z" />
    <glyph glyph-name="R" unicode="R" horiz-adv-x="598" 
d="M605 -3l-12.002 0.00195312c-66 -1.33301 -115 10.667 -147 36c-14.667 11.333 -25.834 25.166 -33.501 41.499s-12 28.166 -13 35.499s-2.5 22.333 -4.5 45c-3.33301 38.667 -6.66602 67.167 -9.99902 85.5s-10 36 -20 53s-23.667 28.667 -41 35
s-41.333 11.166 -72 14.499l-72 5v-338h72v-10h-216v10h15c22.667 0 38.167 2.66699 46.5 8s12.5 17.666 12.5 36.999v553c0 20 -4.5 33.167 -13.5 39.5s-24.167 9.83301 -45.5 10.5h-18v10h246c58.667 0 102 -9.66699 130 -29c38 -26 56.333 -67.333 55 -124
c0 -29.333 -6.66699 -55.333 -20 -78s-26.166 -38.5 -38.499 -47.5s-24.833 -16.5 -37.5 -22.5c-25.333 -11.333 -45.666 -18.333 -60.999 -21c1.33301 -0.666992 13 -4.66699 35 -12s41.833 -16.833 59.5 -28.5s32.5 -27.167 44.5 -46.5
c10.667 -16.667 18.334 -46.167 23.001 -88.5s12 -74.166 22 -95.499c6 -13.333 14.667 -25.333 26 -36s21.666 -18 30.999 -22c12 -5.33301 31 -8.66602 57 -9.99902v-10zM398.998 503.002c-2 47.333 -15.8311 85 -41.498 113s-64.167 42 -115.5 42h-62v-299
c44 -4 77.333 -6 100 -6c30.667 0 55.667 9.16699 75 27.5s31.666 38 36.999 59s7.66602 42.167 6.99902 63.5z" />
    <glyph glyph-name="S" unicode="S" horiz-adv-x="469" 
d="M430 179c0 -56 -18.001 -102.166 -54.001 -138.499s-80.667 -54.5 -134 -54.5c-32 0 -68 4.5 -108 13.5s-72.333 18.833 -97 29.5v116h10c9.33301 -52.667 30 -90.5 62 -113.5s74.667 -34.5 128 -34.5c44.667 0 79.834 11.167 105.501 33.5s38.5 54.833 38.5 97.5
c0 35.333 -10.333 64.333 -31 87s-53.667 48.334 -99 77.001l-35 21.5l-34.5 21.5c-6.33301 4 -16.166 10.833 -29.499 20.5s-22.833 17.5 -28.5 23.5s-12.834 14 -21.501 24s-14.667 19.5 -18 28.5s-6.5 19.667 -9.5 32s-4.5 25.5 -4.5 39.5c0 52 16.667 94.333 50 127
s79 49 137 49c48 0 99.667 -12.333 155 -37v-109h-10c-6.66699 41.333 -22 74 -46 98s-56 36 -96 36c-51.333 0 -87.166 -13.5 -107.499 -40.5s-30.5 -57.833 -30.5 -92.5c0 -30.667 9.5 -55.334 28.5 -74.001s59.833 -48.334 122.5 -89.001l25.5 -16.5
c13 -8.33301 21.667 -14 26 -17l23.5 -16.5c11.333 -8 19 -14.167 23 -18.5s10.167 -10.5 18.5 -18.5s14.166 -15.5 17.499 -22.5l11.5 -23.5c4.33301 -8.66699 7.33301 -18 9 -28s2.5 -20.333 2.5 -31z" />
    <glyph glyph-name="T" unicode="T" horiz-adv-x="549" 
d="M544 557l-10 0.000976562c-4 34.667 -13.167 60.167 -27.5 76.5s-40.166 24.5 -77.499 24.5h-121v-648h91v-10h-256v10h59c15.333 0 25.166 3.66699 29.499 11s6.5 21.666 6.5 42.999v505c0 43.333 -2.33301 69 -7 77s-19.667 12 -45 12h-66c-37.333 0 -63 -8 -77 -24
s-23.333 -41.667 -28 -77h-10v111h539v-111z" />
    <glyph glyph-name="U" unicode="U" horiz-adv-x="696" 
d="M682 658l-73 0.00195312v-327c0 -104.667 -20.833 -187.667 -62.5 -249s-98.167 -92 -169.5 -92c-30.667 0 -61.167 4.83301 -91.5 14.5s-59.833 24.667 -88.5 45s-52 49.166 -70 86.499s-27 80.666 -27 129.999v340c0 21.333 -4.16699 35.333 -12.5 42
s-23.5 10 -45.5 10h-25v10h253v-10h-100v-348c0 -206.667 69 -310 207 -310c25.333 -0 50 5.33301 74 16s47.667 27.667 71 51s42 56.833 56 100.5s21 94.5 21 152.5v295c0 18.667 -5.5 30.5 -16.5 35.5s-31.5 7.5 -61.5 7.5h-29v10h190v-10z" />
    <glyph glyph-name="V" unicode="V" horiz-adv-x="613" 
d="M622 658c-32 -1.33301 -52.5 -4.66699 -61.5 -10s-17.833 -20.333 -26.5 -45l-163 -455l-55 -178h-9c-12 28.667 -21 51.667 -27 69l-208 567c-12.667 34.667 -34 52 -64 52h-23v10h237v-10h-92l207 -579l206 579h-101v10h180v-10z" />
    <glyph glyph-name="W" unicode="W" horiz-adv-x="874" 
d="M890 658l-17.998 -0.00292969c-6 0 -11.333 -0.166992 -16 -0.5s-9 -0.666016 -13 -0.999023s-7.5 -1.16602 -10.5 -2.49902s-5.5 -2.16602 -7.5 -2.49902s-4 -2 -6 -5s-3.5 -5 -4.5 -6s-2.33301 -3.83301 -4 -8.5s-2.83398 -7.83398 -3.50098 -9.50098
s-2 -5.66699 -4 -12s-3.33301 -11.166 -4 -14.499c-100.667 -321.333 -151.334 -483 -152.001 -485l-36 -141h-6c-12 35.333 -21.333 64 -28 86l-124 405l-9 33c-4 -12 -7 -21.333 -9 -28l-138 -431l-18 -65h-6l-24 73l-177 553c-8 26.667 -14.833 43.667 -20.5 51
s-15.167 11 -28.5 11h-33v10h203v-10h-62l173 -573l135 421l-9 33c-14.667 52.667 -26 85.667 -34 99s-21.667 20 -41 20h-23v10h201v-10h-64l165 -560l175 560h-96v10h177v-10z" />
    <glyph glyph-name="X" unicode="X" horiz-adv-x="570" 
d="M572 0h-219v10h74l-156 301l-189 -301h93v-10h-179v10c36.667 0 59.667 2.16699 69 6.5s21.333 18.5 36 42.5l165 261l-158 291c-2 4 -5 9.5 -9 16.5s-6.33301 11.167 -7 12.5s-2.83398 4 -6.50098 8s-6.5 6 -8.5 6s-6.16699 0.666992 -12.5 2s-12.5 2 -18.5 2h-27v10
h224v-10h-78l145 -275l167 275h-93v10h174v-10c-10 0 -18.667 -0.333008 -26 -1s-13.666 -1.16699 -18.999 -1.5s-10.333 -1.66602 -15 -3.99902s-8.16699 -3.83301 -10.5 -4.5s-5.33301 -3.33398 -9 -8.00098s-6.16699 -8 -7.5 -10s-4.33301 -6.83301 -9 -14.5l-10 -16.5
l-137 -223l146 -273c12.667 -23.333 27 -44.5 43 -63.5s29 -28.5 39 -28.5h29v-10z" />
    <glyph glyph-name="Y" unicode="Y" horiz-adv-x="481" 
d="M509 658c-31.333 0 -51.501 -3.33301 -60.501 -10s-20.833 -25.334 -35.5 -56.001l-130 -278v-304h78v-10h-228v10h40c26.667 0 40 12.333 40 37v254l-136 268c-4 7.33301 -8.5 16.5 -13.5 27.5s-8.66699 18.5 -11 22.5l-9 15.5c-3.66699 6.33301 -6.66699 10.333 -9 12
s-5.83301 3.83398 -10.5 6.50098s-9.66699 4.16699 -15 4.5s-11.666 0.5 -18.999 0.5h-12v10h203v-10h-68l162 -341l161 341h-89v10h162v-10z" />
    <glyph glyph-name="Z" unicode="Z" horiz-adv-x="505" 
d="M496 122l-15 -122h-471l397 658h-276c-49.333 0 -86 -40 -110 -120h-11l18 130h462l-396 -658h291c21.333 0 41.5 11.167 60.5 33.5s32.5 48.5 40.5 78.5h10z" />
    <glyph glyph-name="bracketleft" unicode="[" horiz-adv-x="293" 
d="M262 658h-89v-952h87v-10h-140v972h142v-10z" />
    <glyph glyph-name="backslash" unicode="\" horiz-adv-x="356" 
d="M341 -14h-47l-274 658h48z" />
    <glyph glyph-name="bracketright" unicode="]" horiz-adv-x="293" 
d="M173 -304h-140v10h87v952h-89v10h142v-972z" />
    <glyph glyph-name="asciicircum" unicode="^" horiz-adv-x="315" 
d="M295 530l-6 -18l-122 158h-10l-125 -164l-12 6l133 227h17z" />
    <glyph glyph-name="underscore" unicode="_" horiz-adv-x="417" 
d="M422 -112h-427v40h427v-40z" />
    <glyph glyph-name="grave" unicode="`" horiz-adv-x="221" 
d="M150 436l-7 -2l-97 174l20 20h31z" />
    <glyph glyph-name="a" unicode="a" horiz-adv-x="351" 
d="M347 9c-13.333 -12.667 -34.6699 -18.9971 -64.0029 -18.9971c-19.333 0 -33.333 4.5 -42 13.5s-14.667 23.5 -18 43.5c-18 -14 -31 -23.667 -39 -29s-19.833 -11.166 -35.5 -17.499s-31.167 -9.5 -46.5 -9.5c-20 0 -37.333 7.83301 -52 23.5s-22 33.5 -22 53.5
c0 14.667 3.5 28.167 10.5 40.5s15.167 22.166 24.5 29.499s22.333 14.166 39 20.499s30.5 10.833 41.5 13.5l45 10.5l37.5 8.5c1.33301 37.333 2 65.333 2 84c0 23.333 -8 41.833 -24 55.5s-35.667 20.5 -59 20.5c-14.667 0 -30.5 -3 -47.5 -9s-28.833 -14 -35.5 -24
c1.33301 -1.33301 3.83301 -3.5 7.5 -6.5s6.33398 -5.5 8.00098 -7.5l6.5 -7.5c2.66699 -3 4.5 -6 5.5 -9s1.5 -6.16699 1.5 -9.5c0 -8.66699 -3 -16 -9 -22s-13.333 -9 -22 -9c-7.33301 0 -14.166 2.83301 -20.499 8.5s-9.5 12.167 -9.5 19.5c0 8 2.33301 16 7 24
c12 22.667 30.333 41.667 55 57s49.667 23 75 23c40 0 69.5 -9 88.5 -27s28.5 -47.333 28.5 -88c0 -18.667 -1.16699 -47.334 -3.5 -86.001s-3.5 -67.334 -3.5 -86.001v-5c-0.666992 -54.667 12 -82 38 -82c8.66699 0 18.334 3 29.001 9zM225.996 182.003l-30.501 -6.49805
l-33.5 -7c-8 -1.66699 -17.833 -5 -29.5 -10s-20.667 -10.333 -27 -16s-12 -13.334 -17 -23.001s-7.5 -20.834 -7.5 -33.501c0 -20.667 6.16699 -36.667 18.5 -48s28.833 -17 49.5 -17c18.667 0 43.334 11.333 74.001 34c0 14 0.5 35.167 1.5 63.5s1.5 49.5 1.5 63.5z" />
    <glyph glyph-name="b" unicode="b" 
d="M410 193c0 -50 -19.1689 -96.665 -57.502 -139.998s-82.5 -65 -132.5 -65c-28 0 -56 6 -84 18c-17.333 8 -29.666 12 -36.999 12c-12.667 0 -23.667 -6 -33 -18h-11v639c0 17.333 -1.16699 28.166 -3.5 32.499s-8.16602 6.5 -17.499 6.5h-28v10h109v-358
c4 2 12.5 7.16699 25.5 15.5s21.833 13.666 26.5 15.999s12.167 5.83301 22.5 10.5s20.333 7.66699 30 9s20.167 2 31.5 2c52 0 91.5 -18.167 118.5 -54.5s40.5 -81.5 40.5 -135.5zM345.998 174.002c0 31.333 -3.49902 60.168 -10.499 86.501s-20.833 49.666 -41.5 69.999
s-46.667 30.5 -78 30.5c-26.667 0 -60.334 -13.667 -101.001 -41v-254c0 -23.333 11 -40.5 33 -51.5s46 -16.5 72 -16.5c24 0 44.667 5 62 15s30.333 24 39 42s15 36.667 19 56s6 40.333 6 63z" />
    <glyph glyph-name="c" unicode="c" horiz-adv-x="359" 
d="M345 72c-9.33301 -16.667 -26.832 -34.832 -52.499 -54.499s-54.5 -29.5 -86.5 -29.5c-48.667 0 -91.334 18 -128.001 54s-55 84.333 -55 145c0 54.667 19.667 100.834 59 138.501s85 56.5 137 56.5c31.333 0 59.833 -6.33301 85.5 -19s38.5 -27.334 38.5 -44.001
c0 -9.33301 -3.16699 -17.5 -9.5 -24.5s-14.166 -10.5 -23.499 -10.5c-8.66699 0 -16 3 -22 9s-9 13.333 -9 22c0 12.667 5.66699 23 17 31c-19.333 18.667 -44.666 28 -75.999 28c-34.667 0 -65 -16.167 -91 -48.5s-39 -71.166 -39 -116.499
c0 -58.667 14.167 -106.834 42.5 -144.501s60.833 -56.5 97.5 -56.5c21.333 0 41.666 7.16699 60.999 21.5s34.666 30.166 45.999 47.499z" />
    <glyph glyph-name="d" unicode="d" horiz-adv-x="442" 
d="M424 0l-111.999 0.000976562v50c-10 -12.667 -28.5 -25.834 -55.5 -39.501s-49.833 -20.5 -68.5 -20.5c-48.667 0 -88.334 17.333 -119.001 52s-46 76.667 -46 126c0 55.333 18 104.833 54 148.5s81.333 65.5 136 65.5c38.667 0 71.667 -13.667 99 -41v301
c0 14 -1.83301 23.5 -5.5 28.5s-11.5 7.5 -23.5 7.5h-27v10h116v-678h52v-10zM312.001 60.001v271c-26.667 25.333 -54.334 38 -83.001 38c-34 0 -65.833 -16 -95.5 -48s-44.5 -75.333 -44.5 -130c0 -48 11.167 -89 33.5 -123s54.833 -51 97.5 -51
c36.667 0 67.334 14.333 92.001 43z" />
    <glyph glyph-name="e" unicode="e" horiz-adv-x="369" 
d="M349 225l-263.003 -0.000976562v-16c0 -29.333 4.5 -58.5 13.5 -87.5s24.5 -55 46.5 -78s48 -34.5 78 -34.5c44 0 81.667 23 113 69l7 -5c-14 -24 -33.5 -43.833 -58.5 -59.5s-50.833 -23.5 -77.5 -23.5c-57.333 0 -102.5 18.333 -135.5 55s-49.5 84.334 -49.5 143.001
c0 53.333 16.333 98.833 49 136.5s75.334 56.5 128.001 56.5c30.667 0 57.834 -6.83301 81.501 -20.5s40.834 -34.167 51.501 -61.5c10.667 -25.333 16 -50 16 -74zM291.997 234.999c-8.66699 91.333 -39 137 -91 137c-41.333 0 -70.333 -12 -87 -36s-26 -57.667 -28 -101
h206z" />
    <glyph glyph-name="f" unicode="f" horiz-adv-x="236" 
d="M348 642c0 -8.66699 -3 -16.5 -9 -23.5s-13.333 -10.5 -22 -10.5c-8 0 -15.167 3 -21.5 9s-9.5 13 -9.5 21c0 10.667 5 20 15 28c-8.66699 13.333 -23 20 -43 20c-88.667 0 -133 -65 -133 -195v-120h85v-10h-58c-11.333 0 -18.666 -2.16699 -21.999 -6.5
s-5 -12.5 -5 -24.5v-320h76v-10h-187v10h27c11.333 0 18.166 1.16699 20.499 3.5s3.5 9.16602 3.5 20.499v420c0 74.667 20.667 133.334 62 176.001s87.333 64 138 64c20.667 0 39.667 -4 57 -12s26 -21.333 26 -40z" />
    <glyph glyph-name="g" unicode="g" horiz-adv-x="400" 
d="M427 -128c0 -48 -20.1631 -89.3369 -60.4961 -124.004s-85.5 -54.334 -135.5 -59.001c-6.66699 -0.666992 -17.334 -1 -32.001 -1c-28.667 0 -55 3.16699 -79 9.5s-45.5 18.833 -64.5 37.5s-28.5 42.667 -28.5 72c0 42 30 79.333 90 112
c-25.333 4.66699 -46.166 15.167 -62.499 31.5s-24.5 34.833 -24.5 55.5c0 18.667 4 36.334 12 53.001s16.167 29.5 24.5 38.5s19.5 19.167 33.5 30.5c-18 12.667 -32.333 29.334 -43 50.001s-16 42 -16 64c0 39.333 15 72.5 45 99.5s65 40.5 105 40.5
c46.667 0 79.667 -20.667 99 -62c21.333 36.667 45.333 55 72 55c10.667 0 20 -3 28 -9s12 -14.333 12 -25c0 -8.66699 -2.83301 -15.5 -8.5 -20.5s-12.834 -7.5 -21.501 -7.5c-6.66699 0 -12.5 2.33301 -17.5 7s-7.5 10.334 -7.5 17.001c0 9.33301 5.33301 18 16 26
c-3.33301 2 -6.33301 3 -9 3c-9.33301 0 -18.333 -4.16699 -27 -12.5s-13 -17.166 -13 -26.499c0 -3.33301 4 -15.333 12 -36s12 -39.667 12 -57c0 -37.333 -13.833 -68.166 -41.5 -92.499s-60.167 -36.5 -97.5 -36.5c-16.667 0 -32.834 3.66699 -48.501 11
s-25.167 11 -28.5 11c-6.66699 0 -16 -5.33301 -28 -16c-21.333 -20 -32 -41.667 -32 -65c0 -19.333 7.5 -34.166 22.5 -44.499s35.167 -15.5 60.5 -15.5c15.333 0 38.166 2 68.499 6s53.166 6 68.499 6c43.333 0 78.333 -10.333 105 -31s40 -52.334 40 -95.001z
M192.004 372.996c-31.333 0 -54.668 -12.832 -70.001 -38.499s-23 -55.167 -23 -88.5c0 -34 8.83301 -64.5 26.5 -91.5s42.834 -40.5 75.501 -40.5c26.667 0 47.334 14.333 62.001 43s22 57.667 22 87c0 35.333 -7.33301 65.666 -22 90.999s-38.334 38 -71.001 38z
M390.002 -144.003c0 54.667 -44.999 82 -134.999 82c-8.66699 0 -22.334 -0.666992 -41.001 -2c-46 -5.33301 -75.667 -12.333 -89 -21c-26.667 -17.333 -40 -46.666 -40 -87.999c0 -38.667 14.5 -68.834 43.5 -90.501s63.5 -32.5 103.5 -32.5c46 0 83.833 14 113.5 42
s44.5 64.667 44.5 110z" />
    <glyph glyph-name="h" unicode="h" horiz-adv-x="441" 
d="M422 0l-154.998 -0.00292969v10h25c10 0 16.667 2.16699 20 6.5s5 12.5 5 24.5v197c0 18.667 -0.666992 34 -2 46s-4.66602 24.167 -9.99902 36.5s-13.833 21.5 -25.5 27.5s-26.834 9 -45.501 9c-14.667 0 -28.834 -3 -42.501 -9s-24.667 -12.167 -33 -18.5
s-19.5 -16.166 -33.5 -29.499v-290h44v-10h-152v10h21c11.333 0 18.666 1.33301 21.999 4s5 9.33398 5 20.001v605c0 18.667 -2.5 29.834 -7.5 33.501s-16.167 5.5 -33.5 5.5h-7v10h108v-378c18 19.333 42 36.5 72 51.5s57.333 22.5 82 22.5c65.333 0 98 -46 98 -138v-236
h45v-10z" />
    <glyph glyph-name="i" unicode="i" horiz-adv-x="197" 
d="M175 0h-152v10h25c9.33301 0 15.5 1.66699 18.5 5s4.5 11 4.5 23v279c0 11.333 -0.166992 19.333 -0.5 24s-2.5 9.16699 -6.5 13.5s-10.333 6.5 -19 6.5h-22v10h108v-361h44v-10zM133 575c0 -10.667 -3.66699 -19.667 -11 -27s-16.333 -11 -27 -11
s-19.667 3.66699 -27 11s-11 16.333 -11 27s3.66699 19.667 11 27s16.333 11 27 11s19.667 -3.66699 27 -11s11 -16.333 11 -27z" />
    <glyph glyph-name="j" unicode="j" horiz-adv-x="190" 
d="M130 -30c0 -104 -13.667 -177.332 -41 -219.999c-6.66699 -10.667 -17 -21 -31 -31s-27.667 -15 -41 -15c-21.333 0 -39.833 5.83301 -55.5 17.5s-23.5 25.167 -23.5 40.5c0 11.333 3.33301 20.5 10 27.5s14 10.5 22 10.5c20 0 30 -10 30 -30
c0 -14 -9.33301 -24.667 -28 -32c3.33301 -6.66699 5.5 -10.834 6.5 -12.501s5.16699 -4.5 12.5 -8.5s16 -6 26 -6c16.667 0 30.167 8.5 40.5 25.5s15.833 35.833 16.5 56.5c0 4 -0.666992 23.5 -2 58.5s-2 59.833 -2 74.5v392v8.5v9c0 1.66699 -0.166992 4.16699 -0.5 7.5
s-0.833008 5.83301 -1.5 7.5s-1.83398 3.5 -3.50098 5.5s-3.66699 3.33301 -6 4s-5.16602 1 -8.49902 1h-33v10h113v-401zM133 580.001c0 -10.667 -3.66699 -19.667 -11 -27s-16.333 -11 -27 -11s-19.667 3.66699 -27 11s-11 16.333 -11 27s3.66699 19.667 11 27
s16.333 11 27 11s19.667 -3.66699 27 -11s11 -16.333 11 -27z" />
    <glyph glyph-name="k" unicode="k" horiz-adv-x="387" 
d="M405 0l-152 -0.00195312v10h48l-176 193v-193h44v-10h-152v10h22c10.667 0 17.667 1.33301 21 4s5 9.33398 5 20.001v608c0 14.667 -1.66699 24.334 -5 29.001s-11 7 -23 7h-20v10h108v-479l149 152h-51v10h130v-10h-65l-119 -121l208 -230h28v-10z" />
    <glyph glyph-name="l" unicode="l" horiz-adv-x="190" 
d="M170 0l-152 0.000976562v10h25c8.66699 0 14.667 1.5 18 4.5s5 9.5 5 19.5v596c0 19.333 -1.5 32.166 -4.5 38.499s-9.83301 9.5 -20.5 9.5h-23v10h108v-678h44v-10z" />
    <glyph glyph-name="m" unicode="m" horiz-adv-x="650" 
d="M633 0l-158.999 0.000976562v10h13c12 0 20.167 0.166992 24.5 0.5s7.83301 1.83301 10.5 4.5s4 7 4 13v205c0 79.333 -20 119 -60 119c-34.667 0 -71.667 -17 -111 -51v-291h43v-10h-151v10c24.667 0 38.667 1.33301 42 4c4 3.33301 6 11.333 6 24v195
c0 17.333 -0.5 32 -1.5 44s-3.33301 24.333 -7 37s-9.5 22.167 -17.5 28.5s-18 9.5 -30 9.5c-10 0 -18.5 -0.833008 -25.5 -2.5s-17.667 -6.33398 -32 -14.001s-31.5 -19.5 -51.5 -35.5v-290h45v-10h-157v10h18c12.667 0 21.5 1.5 26.5 4.5s7.5 9.5 7.5 19.5v284
c0 16 -2 27.167 -6 33.5s-13 9.5 -27 9.5h-19v10h112v-61c14 14 34.167 29.333 60.5 46s48.833 25 67.5 25c28 0 50.333 -6 67 -18s26 -29.333 28 -52c28 24 51.667 41.5 71 52.5s40.333 16.5 63 16.5c37.333 0 63.166 -9.5 77.499 -28.5s21.5 -51.167 21.5 -96.5v-245h47
v-10z" />
    <glyph glyph-name="n" unicode="n" horiz-adv-x="438" 
d="M421 0h-162v10h35c8.66699 0 14.167 1.5 16.5 4.5s3.5 10.833 3.5 23.5v185c0 20 -0.166992 35.333 -0.5 46s-1.83301 22.5 -4.5 35.5s-6.5 22.5 -11.5 28.5s-12 11.167 -21 15.5s-20.5 6.5 -34.5 6.5c-31.333 0 -68.666 -18.333 -111.999 -55v-290h42v-10h-150v10h22
c11.333 0 18.5 1.5 21.5 4.5s4.5 9.5 4.5 19.5v284c0 16.667 -1.33301 28 -4 34s-10.334 9 -23.001 9h-21v10h108v-61c14.667 14.667 35.667 30.5 63 47.5s51.666 25.5 72.999 25.5c42.667 0 71.334 -11 86.001 -33s22 -57 22 -105v-235h47v-10z" />
    <glyph glyph-name="o" unicode="o" 
d="M409 185c0 -50.667 -19.167 -96.166 -57.5 -136.499s-86.5 -60.5 -144.5 -60.5c-51.333 0 -94.833 18.5 -130.5 55.5s-53.5 83.167 -53.5 138.5c0 52 19.5 98.5 58.5 139.5s83.167 61.5 132.5 61.5c62 0 110 -19.333 144 -58s51 -85.334 51 -140.001zM344 187.001
c0 54.667 -12.3311 99.501 -36.998 134.501s-56 52.5 -94 52.5c-40 0 -70.667 -19 -92 -57s-32 -81.333 -32 -130c0 -55.333 12.667 -100.833 38 -136.5s53.333 -53.5 84 -53.5c25.333 0 47.166 5.66699 65.499 17s32.166 26.666 41.499 45.999s16 39.333 20 60s6 43 6 67z
" />
    <glyph glyph-name="p" unicode="p" horiz-adv-x="442" 
d="M419 203c0 -61.333 -16.499 -111.832 -49.499 -151.499s-75.5 -59.5 -127.5 -59.5c-37.333 0 -76.333 15.333 -117 46v-332h64v-10h-172v10h22c11.333 0 18.5 1.16699 21.5 3.5s4.5 9.16602 4.5 20.499v609c0 8.66699 -1.33301 14.5 -4 17.5s-8.33398 4.5 -17.001 4.5
h-27v10h108v-44c52 38.667 95.333 58 130 58c54.667 0 95.667 -18 123 -54s41 -78.667 41 -128zM352.001 177.001c0 32 -3.33301 61.332 -10 87.999s-19.5 50 -38.5 70s-42.833 30 -71.5 30c-34 0 -69.667 -16.667 -107 -50v-266c37.333 -29.333 70 -44 98 -44
c23.333 0 44 5.66699 62 17s31.5 26 40.5 44s15.667 36.333 20 55s6.5 37.334 6.5 56.001z" />
    <glyph glyph-name="q" unicode="q" horiz-adv-x="433" 
d="M421 -304l-173.001 0.000976562v10h38c12 0 19.5 1.83301 22.5 5.5s4.5 10.5 4.5 20.5v307c-26 -33.333 -62.667 -50 -110 -50c-49.333 0 -91.833 18.5 -127.5 55.5s-53.5 80.5 -53.5 130.5c0 59.333 19.5 108.666 58.5 147.999s88.167 59 147.5 59
c26.667 0 55.334 -6.66699 86.001 -20l59 24v-680h48v-10zM312.999 51.001l-0.000976562 301.001c-23.333 14 -52.333 21 -87 21c-38 0 -70.333 -20.333 -97 -61s-40 -84.334 -40 -131.001c0 -42.667 12.333 -82.5 37 -119.5s57.334 -55.5 98.001 -55.5
c38 0 67.667 15 89 45z" />
    <glyph glyph-name="r" unicode="r" horiz-adv-x="297" 
d="M298 342c0 -10.667 -2.83301 -19.667 -8.5 -27s-13.167 -11 -22.5 -11s-17.166 2.66699 -23.499 8s-9.5 13.333 -9.5 24c0 13.333 5.33301 22.333 16 27c-5.33301 2.66699 -9.33301 4 -12 4c-15.333 0 -33.333 -7.5 -54 -22.5s-38.667 -31.833 -54 -50.5v-284h56v-10
h-164v10h24c9.33301 0 15.666 1.83301 18.999 5.5s5 11.167 5 22.5v279c0 17.333 -1.5 29 -4.5 35s-9.5 9 -19.5 9h-24v10h108v-67c23.333 26 44.333 45.333 63 58s39.667 19 63 19c28 0 42 -13 42 -39z" />
    <glyph glyph-name="s" unicode="s" horiz-adv-x="292" 
d="M268 96c-0.666992 -34.667 -13.332 -61.333 -37.999 -80s-55.334 -28 -92.001 -28c-14.667 0 -31.5 2 -50.5 6s-34.5 8 -46.5 12l-18 7v83h11c3.33301 -66 37.333 -99 102 -99c24 0 43.5 7.5 58.5 22.5s22.5 32.833 22.5 53.5c0 12.667 -4.16699 25 -12.5 37
s-16.833 21.5 -25.5 28.5s-21 15.5 -37 25.5c-3.33301 2 -11 7 -23 15l-25.5 17c-5 3.33301 -12 8.83301 -21 16.5s-15.5 14 -19.5 19s-7.83301 11.333 -11.5 19s-5.5 15.167 -5.5 22.5c0 31.333 10.333 57.5 31 78.5s48.334 31.5 83.001 31.5
c43.333 0 75.666 -9 96.999 -27v-69h-11c-0.666992 20 -8.83398 39.5 -24.501 58.5s-36.834 28.5 -63.501 28.5c-21.333 0 -38.333 -6 -51 -18s-19 -26.333 -19 -43c0 -6.66699 2.33301 -13.5 7 -20.5s11.834 -14.5 21.501 -22.5s18.334 -14.667 26.001 -20s18 -12 31 -20
s21.167 -13.333 24.5 -16c28 -18.667 48.167 -36 60.5 -52s18.833 -38 19.5 -66z" />
    <glyph glyph-name="t" unicode="t" horiz-adv-x="235" 
d="M224 30c-6 -8 -16.333 -16.332 -31 -24.999s-30 -13 -46 -13c-33.333 0 -56.333 7.66699 -69 23s-19 39.666 -19 72.999l2 369l60 25v-111h94v-10h-73c-14 0 -21 -8 -21 -24l-2 -251c0 -28.667 2.66699 -49.167 8 -61.5s17.333 -18.833 36 -19.5
c16 -0.666992 34.333 9.33301 55 30z" />
    <glyph glyph-name="u" unicode="u" horiz-adv-x="424" 
d="M400 0l-105.001 -0.000976562v61c-18.667 -15.333 -33.167 -26.666 -43.5 -33.999s-25 -15.333 -44 -24s-36.5 -13 -52.5 -13c-60.667 0 -91 49 -91 147v183c0 18.667 -1.5 30.167 -4.5 34.5s-10.167 6.5 -21.5 6.5h-22v10h108v-238c0 -14.667 0.5 -27 1.5 -37
s3.33301 -21.5 7 -34.5s10 -22.833 19 -29.5s20.5 -10 34.5 -10c40 0 76.333 17 109 51v262c0 12 -1.83301 19.333 -5.5 22s-12.5 4 -26.5 4h-22v10h114v-323c0 -17.333 2.33301 -28 7 -32s14.334 -6 29.001 -6h9v-10z" />
    <glyph glyph-name="v" unicode="v" horiz-adv-x="375" 
d="M390 361c-14 0 -24.001 -0.5 -30.001 -1.5s-12.167 -4.66699 -18.5 -11s-12.166 -16.5 -17.499 -30.5l-130 -335h-9l-125 335c-7.33301 20 -14 32.167 -20 36.5s-17.667 6.5 -35 6.5h-14v10h176v-10h-57l105 -295l115 295h-58v10h118v-10z" />
    <glyph glyph-name="w" unicode="w" horiz-adv-x="587" 
d="M596 361l-14 0.000976562c-14 0 -24 -1.83301 -30 -5.5s-11.333 -12.834 -16 -27.501l-118 -349h-8l-110 295l-111 -295h-8l-129 362c-3.33301 10 -7.5 15.833 -12.5 17.5s-19.5 2.5 -43.5 2.5v10h165v-10h-50l97 -303l88 233l-25 70h-33v10h145v-10h-10
c-20 0 -30 -6.66699 -30 -20c0 -6 1.66699 -14 5 -24l89 -252l99 296h-48v10h108v-10z" />
    <glyph glyph-name="x" unicode="x" horiz-adv-x="387" 
d="M387 0h-169v10h53l-97 149l-101 -149h66v-10h-136v10h24c16 0 27.5 2.5 34.5 7.5s16.5 16.167 28.5 33.5l79 117l-114 171c-10 14.667 -21.667 22 -35 22h-20v10h169v-10h-53l93 -143l95 143h-65v10h135v-10h-34c-16.667 0 -29 -6.33301 -37 -19l-88 -131l102 -159
c10.667 -16 19.167 -27 25.5 -33s13.833 -9 22.5 -9h22v-10z" />
    <glyph glyph-name="y" unicode="y" horiz-adv-x="366" 
d="M377 361l-22.9961 -0.00292969c-2.66699 0 -4.83398 -0.166992 -6.50098 -0.5s-3.33398 -0.5 -5.00098 -0.5s-3.16699 -0.5 -4.5 -1.5s-2.5 -1.83301 -3.5 -2.5s-2.16699 -2 -3.5 -4l-3 -4.5c-0.666992 -1 -1.5 -3 -2.5 -6s-2 -5.33301 -3 -7s-2.16699 -4.66699 -3.5 -9
s-2.66602 -7.83301 -3.99902 -10.5l-215 -557c-6.66699 -18 -14.667 -32.667 -24 -44c-10 -12 -20.667 -18 -32 -18c-10 0 -17.667 3.33301 -23 10s-8 14.334 -8 23.001s3 16.5 9 23.5s13.667 10.5 23 10.5c7.33301 0 13.666 -2.83301 18.999 -8.5s8 -12.167 8 -19.5
c6.66699 4 11.667 11 15 21l92 234l-129 325c-0.666992 2.66699 -2 6.5 -4 11.5l-4 10c-0.666992 1.66699 -1.83398 4.33398 -3.50098 8.00098s-3.33398 6.16699 -5.00098 7.5l-5.5 4.5c-2 1.66699 -4.33301 2.83398 -7 3.50098s-5.66699 1 -9 1h-29v10h177v-10h-58
l107 -294l112 294h-53v10h109v-10z" />
    <glyph glyph-name="z" unicode="z" horiz-adv-x="325" 
d="M311 83l-9.99805 -82.999h-287l214 361h-114c-28.667 0 -48.5 -4.33301 -59.5 -13s-20.167 -25.334 -27.5 -50.001h-9l10 73h270l-214 -361h144c13.333 0 24.666 2 33.999 6s16.666 10.667 21.999 20s8.83301 16.5 10.5 21.5s4.16699 13.5 7.5 25.5h9z" />
    <glyph glyph-name="braceleft" unicode="{" horiz-adv-x="408" 
d="M389 -200c0 -18 -7.99902 -32.502 -23.999 -43.502s-34 -16.5 -54 -16.5c-29.333 0 -54.666 8.5 -75.999 25.5s-37.5 39.167 -48.5 66.5s-19 55.166 -24 83.499s-7.5 57.166 -7.5 86.499v19c0 22 -0.333008 39.5 -1 52.5s-2.83398 28.5 -6.50098 46.5
s-9.16699 32.667 -16.5 44s-17.666 22 -30.999 32s-30 17.667 -50 23v5c20 5.33301 36.667 13 50 23s23.666 20.667 30.999 32s12.833 26 16.5 44s5.83398 33.5 6.50098 46.5s1 30.5 1 52.5v19c0 29.333 2.5 58 7.5 86s12.833 55.833 23.5 83.5s26.667 50 48 67
s46.666 25.5 75.999 25.5c19.333 0 37.333 -5.5 54 -16.5s25 -25.5 25 -43.5c0 -8 -2.5 -14.833 -7.5 -20.5s-12.167 -8.5 -21.5 -8.5c-16.667 0 -25 8.66699 -25 26c0 6 2.16699 11.5 6.5 16.5s9.16602 7.83301 14.499 8.5c-0.666992 6 -5 12.167 -13 18.5
s-17.667 9.5 -29 9.5c-48 -0.666992 -80 -15.167 -96 -43.5s-24 -68.5 -24 -120.5c0 -11.333 1.16699 -35.166 3.5 -71.499s3.5 -60.166 3.5 -71.499c0 -39.333 -11.667 -74.333 -35 -105s-57.333 -50.667 -102 -60c1.33301 0 2.66602 -0.166992 3.99902 -0.5
s2.83301 -0.833008 4.5 -1.5s3.16699 -1 4.5 -1c41.333 -12 72.333 -32.333 93 -61s31 -62 31 -100c0 -11.333 -1.16699 -35.166 -3.5 -71.499s-3.5 -60.166 -3.5 -71.499c0 -52 8 -92.167 24 -120.5s48 -42.833 96 -43.5c11.333 0 21 3.16699 29 9.5s12.333 12.5 13 18.5
c-5.33301 0.666992 -10.166 3.5 -14.499 8.5s-6.5 10.5 -6.5 16.5c0 7.33301 2.33301 13.5 7 18.5s10.667 7.5 18 7.5c9.33301 0 16.5 -2.83301 21.5 -8.5s7.5 -12.5 7.5 -20.5z" />
    <glyph glyph-name="bar" unicode="|" horiz-adv-x="196" 
d="M116 -157h-36v764h36v-764z" />
    <glyph glyph-name="braceright" unicode="}" horiz-adv-x="408" 
d="M358 219c-24.667 -6.66699 -44.668 -16.5 -60.001 -29.5s-26 -30.5 -32 -52.5s-9.66699 -40.833 -11 -56.5s-2 -38.5 -2 -68.5v-10c0 -29.333 -2.5 -58.166 -7.5 -86.499s-13 -56.166 -24 -83.499s-27.167 -49.5 -48.5 -66.5s-46.333 -25.5 -75 -25.5
c-19.333 0 -37.333 5.5 -54 16.5s-25 25.5 -25 43.5c0 8 2.5 14.833 7.5 20.5s12.167 8.5 21.5 8.5c7.33301 0 13.333 -2.5 18 -7.5s7 -11.167 7 -18.5c0 -6 -2.16699 -11.5 -6.5 -16.5s-9.16602 -7.83301 -14.499 -8.5c0.666992 -6 5 -12.167 13 -18.5s17.667 -9.5 29 -9.5
c48 0.666992 80 15.167 96 43.5s24 68.5 24 120.5c0 11.333 -1.16699 35.166 -3.5 71.499s-3.5 60.166 -3.5 71.499c0 38 10.333 71.333 31 100s51.667 49 93 61c2 0.666992 4.33301 1.5 7 2.5s4.66699 1.5 6 1.5c-1.33301 0 -2.66602 0.166992 -3.99902 0.5
s-2.83301 0.833008 -4.5 1.5s-3.16699 1 -4.5 1c-41.333 12 -72.333 32.333 -93 61s-31 62 -31 100c0 11.333 1.16699 35.166 3.5 71.499s3.5 60.166 3.5 71.499c0 52 -8 92.167 -24 120.5s-48 42.833 -96 43.5c-11.333 0 -21 -3.16699 -29 -9.5s-12.333 -12.5 -13 -18.5
c5.33301 -0.666992 10.166 -3.5 14.499 -8.5s6.5 -10.5 6.5 -16.5c0 -17.333 -8.33301 -26 -25 -26c-9.33301 0 -16.5 2.83301 -21.5 8.5s-7.5 12.5 -7.5 20.5c0 18 8.33301 32.5 25 43.5s34.667 16.5 54 16.5c28.667 0 53.667 -8.5 75 -25.5s37.5 -39.167 48.5 -66.5
s19 -55.166 24 -83.499s7.5 -57.166 7.5 -86.499v-10c0 -30 0.666992 -52.833 2 -68.5s5 -34.5 11 -56.5s16.667 -39.5 32 -52.5s35.333 -22.833 60 -29.5v-5z" />
    <glyph glyph-name="asciitilde" unicode="~" horiz-adv-x="460" 
d="M420 740c-15.333 -31.333 -33.3311 -55.333 -53.998 -72s-40.667 -25 -60 -25c-14.667 0 -37.834 10.5 -69.501 31.5s-55.834 31.5 -72.501 31.5c-33.333 0 -70.666 -18.667 -111.999 -56l-6 7c17.333 22 39.666 42.667 66.999 62s51 29 71 29
c26 0 50.667 -9.16699 74 -27.5s46.333 -27.5 69 -27.5c32 0 60 16.667 84 50z" />
    <glyph glyph-name="uni00A0" unicode="&#xa0;" horiz-adv-x="200" 
 />
    <glyph glyph-name="exclamdown" unicode="&#xa1;" horiz-adv-x="294" 
d="M80 -223c5.33301 0 10.166 0.829102 14.499 2.49609s7.66602 4.33398 9.99902 8.00098s4.33301 7.33398 6 11.001s2.83398 9 3.50098 16s1 12.667 1 17s0.166992 11.166 0.5 20.499s0.5 16.333 0.5 21l13 397h33l13 -397c0 -4 0.166992 -9.5 0.5 -16.5
s0.5 -12.333 0.5 -16s0.333008 -8.5 1 -14.5s1.33398 -10.667 2.00098 -14s1.5 -7.16602 2.5 -11.499s2.5 -7.66602 4.5 -9.99902s4.33301 -4.66602 7 -6.99902s5.66699 -4 9 -5s7.33301 -1.5 12 -1.5v-9h-134v9zM106 360.996c0 10.667 3.66699 19.667 11 27
s16.333 11 27 11s19.667 -3.66699 27 -11s11 -16.333 11 -27s-3.66699 -19.667 -11 -27s-16.333 -11 -27 -11s-19.667 3.66699 -27 11s-11 16.333 -11 27z" />
    <glyph glyph-name="cent" unicode="&#xa2;" horiz-adv-x="392" 
d="M216 629h11.002v-147c31.333 -0.666992 59.666 -7.33398 84.999 -20.001s38 -27 38 -43c0 -9.33301 -3.16699 -17.5 -9.5 -24.5s-14.166 -10.5 -23.499 -10.5c-8.66699 0 -16 3 -22 9s-9 13.333 -9 22c0 12.667 5.66699 23 17 31c-19.333 18.667 -44.666 28 -75.999 28
v-366h10c21.333 0 41.666 7.16699 60.999 21.5s34.666 30.166 45.999 47.499l8 -5c-8.66699 -15.333 -24.334 -32.166 -47.001 -50.499s-48.667 -29.166 -78 -32.499v-170h-11v169h-3c-48.667 0 -91.334 18 -128.001 54s-55 84.333 -55 145c0 52.667 18.333 97.5 55 134.5
s80.334 57.167 131.001 60.5v147zM97.002 309c0 -52.667 11.5 -97.167 34.5 -133.5s51.167 -58.166 84.5 -65.499v363c-32.667 -3.33301 -60.667 -20.833 -84 -52.5s-35 -68.834 -35 -111.501z" />
    <glyph glyph-name="sterling" unicode="&#xa3;" horiz-adv-x="382" 
d="M367 0l-337 -0.000976562v10h29c10.667 0 17 1.33301 19 4s3 9.33398 3 20.001v360c0 74.667 20.667 133.334 62 176.001s87.333 64 138 64c20 0 38.833 -3.83301 56.5 -11.5s26.5 -21.167 26.5 -40.5c0 -8.66699 -3 -16.5 -9 -23.5s-13.667 -10.5 -23 -10.5
c-8 0 -15.167 3.16699 -21.5 9.5s-9.16602 13.166 -8.49902 20.499c0.666992 10.667 5.66699 20 15 28c-8.66699 13.333 -23 20 -43 20c-88.667 0 -133 -65 -133 -195v-100h105v-12h-78c-10.667 0 -17.834 -2 -21.501 -6s-5.5 -12.333 -5.5 -25v-278h226v-10z" />
    <glyph glyph-name="currency" unicode="&#xa4;" horiz-adv-x="509" 
d="M410 312v-14h-266v14h266zM410 272v-14h-266v14h266zM474 119l-3.00488 -98.9971c-46 -20 -97 -30 -153 -30c-78 0 -145.5 28.5 -202.5 85.5s-85.5 128.833 -85.5 215.5c0 41.333 5.83301 78.666 17.5 111.999s26.834 60.666 45.501 81.999s40.667 39 66 53
s50.833 24 76.5 30s52.167 9 79.5 9c21.333 0 48.333 -3.66699 81 -11s55.334 -13.333 68.001 -18c2 -52.667 3 -86.334 3 -101.001l-8 -1c-7.33301 47.333 -23.666 78.833 -48.999 94.5s-62.666 23.5 -111.999 23.5c-57.333 0 -105.666 -23.5 -144.999 -70.5
s-59 -112.5 -59 -196.5c0 -52.667 7.5 -100.667 22.5 -144s40.167 -79.5 75.5 -108.5s78.333 -43.5 129 -43.5c47.333 0 81 9 101 27s34.667 48.667 44 92z" />
    <glyph glyph-name="yen" unicode="&#xa5;" horiz-adv-x="486" 
d="M514 642c-31.333 0 -51.667 -2.99805 -61 -8.99805s-21.333 -23.667 -36 -53l-95 -188h150v-10h-155l-32 -66v-84h147v-10h-147v-212h79v-10h-225v10h37c9.33301 0 17 1 23 3c10.667 3.33301 16 12.666 16 27.999v181h-152v10h152v62l-45 88h-147v10h142l-87 166
c-21.333 43.333 -35.333 67.666 -42 72.999c-8 7.33301 -27.333 11 -58 11v10h203v-10h-64l121 -250h71l125 250h-81v10h161v-10zM303.999 382.002h-61l30 -62z" />
    <glyph glyph-name="brokenbar" unicode="&#xa6;" horiz-adv-x="196" 
d="M116 -157h-36v314h36v-314zM116 292h-36v315h36v-315z" />
    <glyph glyph-name="section" unicode="&#xa7;" horiz-adv-x="413" 
d="M363 614c0 -10.667 -3.33203 -19.834 -9.99902 -27.501s-15.667 -11.5 -27 -11.5c-8.66699 0 -15.667 3.33301 -21 10s-8 14.334 -8 23.001c0 15.333 8.66699 26 26 32c-4.66699 13.333 -21 20 -49 20c-34 0 -63.167 -15.833 -87.5 -47.5s-36.5 -85.834 -36.5 -162.501
v-586h-50v524c0 109.333 28.333 190.333 85 243c26.667 24.667 56 37 88 37c27.333 0 49.166 -4.66699 65.499 -14s24.5 -22.666 24.5 -39.999zM293.001 -24c0 -109.333 -28.334 -190.332 -85.001 -242.999c-26.667 -24.667 -52.667 -37 -78 -37
c-26 0 -47.5 6.16699 -64.5 18.5s-25.5 27.5 -25.5 45.5c0 10.667 3.33301 19.834 10 27.501s15.667 11.5 27 11.5c8.66699 0 15.667 -3.33301 21 -10s8 -14.334 8 -23.001c0 -15.333 -8.66699 -26 -26 -32c2.66699 -6.66699 8.83398 -13.334 18.501 -20.001
s19.834 -10 30.501 -10c33.333 0 60.666 16.333 81.999 49s32 79.667 32 141v604h50v-522z" />
    <glyph glyph-name="dieresis" unicode="&#xa8;" horiz-adv-x="267" 
d="M251 486c0 -9.33301 -3.16504 -17.166 -9.49805 -23.499s-13.833 -9.5 -22.5 -9.5s-16.334 3.16699 -23.001 9.5s-10 14.166 -10 23.499c0 8.66699 3.16699 16.167 9.5 22.5s14.166 9.5 23.499 9.5c8.66699 0 16.167 -3 22.5 -9s9.5 -13.667 9.5 -23zM81.002 486
c0 -9.33301 -3.16504 -17.166 -9.49805 -23.499s-13.833 -9.5 -22.5 -9.5s-16.334 3.16699 -23.001 9.5s-10 14.166 -10 23.499c0 8.66699 3.16699 16.167 9.5 22.5s14.166 9.5 23.499 9.5c8.66699 0 16.167 -3 22.5 -9s9.5 -13.667 9.5 -23z" />
    <glyph glyph-name="copyright" unicode="&#xa9;" horiz-adv-x="742" 
d="M692 325c0 -93.333 -31.333 -173 -94 -239s-138.334 -99 -227.001 -99s-164.334 33 -227.001 99s-94 145.667 -94 239s31.333 173.166 94 239.499s138.334 99.5 227.001 99.5s164.334 -33.167 227.001 -99.5s94 -146.166 94 -239.499zM671 325
c0 86.667 -29.833 162.5 -89.5 227.5s-130.167 97.5 -211.5 97.5c-80.667 0 -150.167 -32.333 -208.5 -97s-87.5 -140.667 -87.5 -228c0 -86.667 29.5 -162.334 88.5 -227.001s128.833 -97 209.5 -97c81.333 0 151.5 32.333 210.5 97s88.5 140.334 88.5 227.001zM509 219
l-12.001 -65.0039c-36 -12 -72.333 -18 -109 -18c-49.333 0 -93 17.333 -131 52s-57 81 -57 139c0 62 20 108.833 60 140.5s86 47.5 138 47.5c18 0 36 -1.66699 54 -5s31.333 -6.66602 40 -9.99902l13 -5l3 -70h-10c-10.667 26.667 -24 46.834 -40 60.501
s-38.667 20.5 -68 20.5c-42 0 -73.5 -15.833 -94.5 -47.5s-31.5 -75.167 -31.5 -130.5c0 -59.333 12.5 -104.666 37.5 -135.999s54.5 -47 88.5 -47c17.333 0 32.5 2.16699 45.5 6.5s23.833 11.333 32.5 21s14.834 17.334 18.501 23.001s8.16699 14.167 13.5 25.5z" />
    <glyph glyph-name="ordfeminine" unicode="&#xaa;" horiz-adv-x="476" 
d="M465 30c-6 -8 -16.333 -16.332 -31 -24.999s-30 -13 -46 -13c-33.333 0 -56.333 7.66699 -69 23s-19 39.666 -19 72.999l1 273h-149c-11.333 0 -18.666 -2.16699 -21.999 -6.5s-5 -12.5 -5 -24.5v-320h76v-10h-187v10h27c11.333 0 18.166 1.16699 20.499 3.5
s3.5 9.16602 3.5 20.499v420c0 74.667 20.667 133.334 62 176.001s87.333 64 138 64c20.667 0 39.667 -4 57 -12s26 -21.333 26 -40c0 -8.66699 -3 -16.5 -9 -23.5s-13.333 -10.5 -22 -10.5c-8 0 -15.167 3 -21.5 9s-9.5 13 -9.5 21c0 10.667 5 20 15 28
c-8.66699 13.333 -23 20 -43 20c-88.667 0 -133 -65 -133 -195v-120h176l1 86l60 25v-111h94v-10h-73c-14 0 -21 -8 -21 -24l-2 -251c0 -28.667 2.66699 -49.167 8 -61.5s17.333 -18.833 36 -19.5c16 -0.666992 34.333 9.33301 55 30z" />
    <glyph glyph-name="guillemotleft" unicode="&#xab;" horiz-adv-x="387" 
d="M342 304c-2.66699 -0.666992 -6.33496 -1.49805 -11.002 -2.49805s-13 -4 -25 -9s-22.667 -11.167 -32 -18.5s-17.666 -17.833 -24.999 -31.5s-11 -28.834 -11 -45.501c0 -17.333 3 -33.333 9 -48s13.333 -26.5 22 -35.5s17.667 -16.833 27 -23.5
s17.333 -11.334 24 -14.001s11 -4 13 -4v-8c-4 0.666992 -9 2 -15 4s-17 6.5 -33 13.5s-30 15 -42 24s-23 21.333 -33 37s-15 32.5 -15 50.5c0 19.333 5 36.833 15 52.5s21.5 27.334 34.5 35.001s27.333 14.167 43 19.5s27.834 8.66602 36.501 9.99902s14.667 2 18 2v-8z
M191.999 304.002c-2 0 -6.49902 -0.833984 -13.499 -2.50098s-15.667 -5.16699 -26 -10.5s-20.333 -11.666 -30 -18.999s-17.834 -17.666 -24.501 -30.999s-10 -28 -10 -44c0 -17.333 3.16699 -33.5 9.5 -48.5s13.666 -26.833 21.999 -35.5s17.333 -16.334 27 -23.001
s17.5 -11.167 23.5 -13.5s10.333 -3.83301 13 -4.5v-8c-4 0.666992 -9 2 -15 4s-17 6.5 -33 13.5s-30 15 -42 24s-23 21.333 -33 37s-15 32.5 -15 50.5c0 20 5 37.667 15 53s21.833 27 35.5 35s28.334 14.5 44.001 19.5s27.667 8.16699 36 9.5s13.833 2 16.5 2v-8z" />
    <glyph glyph-name="logicalnot" unicode="&#xac;" horiz-adv-x="391" 
d="M297 114v123h-248v50h298v-173h-50z" />
    <glyph glyph-name="uni00AD" unicode="&#xad;" horiz-adv-x="274" 
d="M234 180h-194v36h194v-36z" />
    <glyph glyph-name="registered" unicode="&#xae;" horiz-adv-x="725" 
d="M45 309c0 88 30.833 163 92.5 225s136.5 93 224.5 93s163 -31 225 -93s93 -137 93 -225s-31 -162.833 -93 -224.5s-137 -92.5 -225 -92.5s-162.833 30.833 -224.5 92.5s-92.5 136.5 -92.5 224.5zM74 309c0 -80 28 -148 84 -204s124 -84 204 -84s148.167 28 204.5 84
s84.5 124 84.5 204s-28.167 148.167 -84.5 204.5s-124.5 84.5 -204.5 84.5s-148 -28.167 -204 -84.5s-84 -124.5 -84 -204.5zM418 404c0 26.667 -8.33203 45 -24.999 55s-44.334 15 -83.001 15v-154h11c64.667 0 97 28 97 84zM534.001 155l0.000976562 -9.99707
c-26.667 -2.66699 -42 -4 -46 -4c-42.667 0 -68 28 -76 84s-40 84 -96 84h-6v-117c0 -13.333 1.83301 -22.833 5.5 -28.5s10.834 -8.83398 21.501 -9.50098h11v-10h-123v10h9c10 1.33301 17.167 5.33301 21.5 12s6.5 18.667 6.5 36v233c0 17.333 -2.16699 28.333 -6.5 33
s-14.5 7 -30.5 7v10h128c36 0 63.167 -7.5 81.5 -22.5s27.5 -35.833 27.5 -62.5c0 -8.66699 -1.5 -16.834 -4.5 -24.501s-7 -14.334 -12 -20.001s-10.167 -10.667 -15.5 -15s-11.5 -8 -18.5 -11l-17.5 -7.5c-4.66699 -2 -9.33398 -3.83301 -14.001 -5.5
s-7.33398 -2.5 -8.00098 -2.5c10 -3.33301 23.833 -9.83301 41.5 -19.5s28.167 -17.834 31.5 -24.501c2 -4 5.16699 -13.667 9.5 -29s8.5 -28.166 12.5 -38.499s11.833 -20.5 23.5 -30.5s26.167 -15.667 43.5 -17z" />
    <glyph glyph-name="macron" unicode="&#xaf;" horiz-adv-x="279" 
d="M287 494h-224v20h224v-20z" />
    <glyph glyph-name="degree" unicode="&#xb0;" horiz-adv-x="142" 
d="M122 546c0 -14 -5 -26 -15 -36s-22 -15 -36 -15s-26 5 -36 15s-15 22 -15 36s5 26 15 36s22 15 36 15s26 -5 36 -15s15 -22 15 -36zM107 546c0 10 -3.5 18.5 -10.5 25.5s-15.5 10.5 -25.5 10.5s-18.5 -3.5 -25.5 -10.5s-10.5 -15.5 -10.5 -25.5s3.5 -18.5 10.5 -25.5
s15.5 -10.5 25.5 -10.5s18.5 3.5 25.5 10.5s10.5 15.5 10.5 25.5z" />
    <glyph glyph-name="plusminus" unicode="&#xb1;" horiz-adv-x="443" 
d="M393 604c0 -10.667 -3.33301 -19.834 -10 -27.501s-15.667 -11.5 -27 -11.5c-8.66699 0 -15.667 3.33301 -21 10s-8 14.334 -8 23.001c0 15.333 8.66699 26 26 32c-2.66699 6.66699 -8.83398 13.334 -18.501 20.001s-19.834 10 -30.501 10
c-4.66699 0 -8.33398 -0.333008 -11.001 -1v-685c0 -109.333 -28.333 -190.333 -85 -243c-26.667 -24.667 -52.667 -37 -78 -37c-26 0 -47.5 6.16699 -64.5 18.5s-25.5 27.5 -25.5 45.5c0 10.667 3.33301 19.834 10 27.501s15.667 11.5 27 11.5
c8.66699 0 15.667 -3.33301 21 -10s8 -14.334 8 -23.001c0 -15.333 -8.66699 -26 -26 -32c2.66699 -6.66699 8.83398 -13.334 18.501 -20.001s19.834 -10 30.501 -10c4.66699 0 8.33398 0.333008 11.001 1v685c0 109.333 28.333 190.333 85 243
c26.667 24.667 52.667 37 78 37c26 0 47.5 -6.16699 64.5 -18.5s25.5 -27.5 25.5 -45.5zM243 -88v720c-4.66699 -4.66699 -8.66699 -10.334 -12 -17.001c-27.333 -52 -41 -110.333 -41 -175v-710c4.66699 4.66699 8.66699 10.334 12 17.001c27.333 52 41 107 41 165z" />
    <glyph glyph-name="twosuperior" unicode="&#xb2;" horiz-adv-x="676" 
d="M300 34v595.998c0 15.333 -3.83301 27.833 -11.5 37.5s-18.5 14.5 -32.5 14.5c-87.333 0 -131 -63.667 -131 -191v-120h85v-10h-58c-11.333 0 -18.666 -2.16699 -21.999 -6.5s-5 -12.5 -5 -24.5v-320h56v-10h-167v10h27c10.667 0 17.334 1.5 20.001 4.5s4 9.5 4 19.5v420
c0 49.333 10.167 93.5 30.5 132.5s51.5 68.833 93.5 89.5c20 10 45.333 15 76 15c41.333 0 73 -5 95 -15v-366c18 19.333 41.833 36.5 71.5 51.5s57.167 22.5 82.5 22.5c65.333 0 98 -46 98 -138v-236h45v-10h-155v10h25c10 0 16.667 2.16699 20 6.5s5 12.5 5 24.5v197
c0 18.667 -0.666992 34 -2 46s-4.66602 24.167 -9.99902 36.5s-13.833 21.5 -25.5 27.5s-26.834 9 -45.501 9c-14.667 0 -28.834 -3 -42.501 -9s-24.667 -12.167 -33 -18.5s-19.5 -16.166 -33.5 -29.499v-290h44v-10h-152v10h21c11.333 0 18.666 1.33301 21.999 4
s5 9.33398 5 20.001z" />
    <glyph glyph-name="threesuperior" unicode="&#xb3;" horiz-adv-x="420" 
d="M348 642c0 -8.66699 -3 -16.5 -9 -23.5s-13.333 -10.5 -22 -10.5c-8 0 -15.167 3 -21.5 9s-9.5 13 -9.5 21c0 10.667 5 20 15 28c-8.66699 13.333 -23 20 -43 20c-88.667 0 -133 -65 -133 -195v-120h85v-10h-58c-11.333 0 -18.666 -2.16699 -21.999 -6.5
s-5 -12.5 -5 -24.5v-320h76v-10h-187v10h27c11.333 0 18.166 1.16699 20.499 3.5s3.5 9.16602 3.5 20.499v420c0 74.667 20.667 133.334 62 176.001s87.333 64 138 64c20.667 0 39.667 -4 57 -12s26 -21.333 26 -40zM360 -30c0 -104 -13.667 -177.332 -41 -219.999
c-6.66699 -10.667 -17 -21 -31 -31s-27.667 -15 -41 -15c-21.333 0 -39.833 5.83301 -55.5 17.5s-23.5 25.167 -23.5 40.5c0 11.333 3.33301 20.5 10 27.5s14 10.5 22 10.5c20 0 30 -10 30 -30c0 -14 -9.33301 -24.667 -28 -32c3.33301 -6.66699 5.5 -10.834 6.5 -12.501
s5.16699 -4.5 12.5 -8.5s16 -6 26 -6c16.667 0 30.167 8.5 40.5 25.5s15.833 35.833 16.5 56.5c0 4 -0.666992 23.5 -2 58.5s-2 59.833 -2 74.5v392v8.5v9c0 1.66699 -0.166992 4.16699 -0.5 7.5s-0.833008 5.83301 -1.5 7.5s-1.83398 3.5 -3.50098 5.5
s-3.66699 3.33301 -6 4s-5.16602 1 -8.49902 1h-33v10h113v-401z" />
    <glyph glyph-name="acute" unicode="&#xb4;" horiz-adv-x="221" 
d="M53 434l-7 2l53 192h31l20 -20z" />
    <glyph glyph-name="mu" unicode="&#xb5;" horiz-adv-x="622" 
d="M640 0h-152.001v10h48l-176 193v-193h53v-10h-171v10h34c16 0 24 8 24 24v594c0 36 -16.667 54 -50 54c-46 0 -78.333 -18.167 -97 -54.5s-28 -88.5 -28 -156.5v-100h85v-10c-41.333 -1.33301 -65.833 -3.16602 -73.5 -5.49902s-11.5 -10.833 -11.5 -25.5v-320h61v-10
h-172v10h26c10.667 0 17.5 1.66699 20.5 5s4.5 9.66602 4.5 18.999v400c0 82.667 18.5 146.167 55.5 190.5s81.833 66.5 134.5 66.5c14.667 0 33.834 -1.66699 57.501 -5s39.5 -7 47.5 -11v-466l149 152h-51v10h130v-10h-65l-119 -121l208 -230h28v-10z" />
    <glyph glyph-name="mu" unicode="&#x3bc;" horiz-adv-x="622" 
d="M640 0h-152.001v10h48l-176 193v-193h53v-10h-171v10h34c16 0 24 8 24 24v594c0 36 -16.667 54 -50 54c-46 0 -78.333 -18.167 -97 -54.5s-28 -88.5 -28 -156.5v-100h85v-10c-41.333 -1.33301 -65.833 -3.16602 -73.5 -5.49902s-11.5 -10.833 -11.5 -25.5v-320h61v-10
h-172v10h26c10.667 0 17.5 1.66699 20.5 5s4.5 9.66602 4.5 18.999v400c0 82.667 18.5 146.167 55.5 190.5s81.833 66.5 134.5 66.5c14.667 0 33.834 -1.66699 57.501 -5s39.5 -7 47.5 -11v-466l149 152h-51v10h130v-10h-65l-119 -121l208 -230h28v-10z" />
    <glyph glyph-name="paragraph" unicode="&#xb6;" horiz-adv-x="527" 
d="M507 658l-31.0039 0.000976562c-22 0 -37.333 -4.5 -46 -13.5s-13 -28.5 -13 -58.5v-610c0 -109.333 -28.333 -190.333 -85 -243c-26.667 -24.667 -52.667 -37 -78 -37c-26 0 -47.5 6.16699 -64.5 18.5s-25.5 27.5 -25.5 45.5c0 10.667 3.33301 19.834 10 27.501
s15.667 11.5 27 11.5c8.66699 0 15.667 -3.33301 21 -10s8 -14.334 8 -23.001c0 -15.333 -8.66699 -26 -26 -32c2.66699 -6.66699 8.83398 -13.334 18.501 -20.001s19.834 -10 30.501 -10c14.667 0 28.834 4.33301 42.501 13s23.834 19.334 30.501 32.001
c13.333 25.333 21.833 50.666 25.5 75.999s5.5 70.333 5.5 135v310c-28 -8.66699 -51 -13 -69 -13c-58.667 0 -111.334 20.167 -158.001 60.5s-70 93.833 -70 160.5c0 54.667 18.333 100 55 136s92.334 54 167.001 54h225v-10z" />
    <glyph glyph-name="periodcentered" unicode="&#xb7;" horiz-adv-x="196" 
d="M136 196c0 -10.667 -3.66699 -19.667 -11 -27s-16.333 -11 -27 -11s-19.667 3.66699 -27 11s-11 16.333 -11 27s3.66699 19.667 11 27s16.333 11 27 11s19.667 -3.66699 27 -11s11 -16.333 11 -27z" />
    <glyph glyph-name="cedilla" unicode="&#xb8;" horiz-adv-x="629" 
d="M394 1l-8.99805 -10.998c-12 -16.667 -18 -31.667 -18 -45c0 -7.33301 10.167 -21.833 30.5 -43.5s30.5 -38.167 30.5 -49.5c0 -14.667 -5.83301 -26.5 -17.5 -35.5s-24.834 -13.5 -39.501 -13.5c-20.667 0 -39.334 11.333 -56.001 34l6 5c9.33301 -10 23.333 -15 42 -15
c24 0 36 11.667 36 35c0 9.33301 -7.5 23.666 -22.5 42.999s-22.5 33 -22.5 41c0 7.33301 3 16.666 9 27.999s12.333 20.333 19 27h12z" />
    <glyph glyph-name="onesuperior" unicode="&#xb9;" horiz-adv-x="677" 
d="M655 194c0 -56.667 -20.666 -105.165 -61.999 -145.498s-84 -60.5 -128 -60.5c-24 0 -53 6.33301 -87 19c-19.333 7.33301 -30.666 11 -33.999 11c-10.667 0 -21.667 -6 -33 -18h-11v621c0 40.667 -16.667 61 -50 61c-83.333 0 -125 -63.667 -125 -191v-120h85v-10
c-44 -0.666992 -68.667 -2.33398 -74 -5.00098c-7.33301 -3.33301 -11 -12 -11 -26v-320h61v-10h-172v10h15c16 0 26 1.16699 30 3.5s6 9.16602 6 20.499v420c0 72.667 18.5 130.334 55.5 173.001s85.167 64 144.5 64c43.333 0 75 -5 95 -15v-346
c45.333 35.333 91.666 53 138.999 53c43.333 -0.666992 80.166 -16.834 110.499 -48.501s45.5 -78.5 45.5 -140.5zM591.001 174.002c0 59.333 -11.167 105.333 -33.5 138s-55.5 49 -99.5 49c-29.333 0 -62 -13.667 -98 -41v-254c0 -20.667 9.5 -37.167 28.5 -49.5
s44.5 -18.5 76.5 -18.5c40 0 71 14.833 93 44.5s33 73.5 33 131.5z" />
    <glyph glyph-name="ordmasculine" unicode="&#xba;" horiz-adv-x="569" 
d="M549 225h-143.003c2 -10.667 3 -23.667 3 -39c0 -55.333 -21.333 -103.333 -64 -144c23.333 -22 49.666 -33 78.999 -33c44 0 81.667 23 113 69l7 -5c-14 -24 -33.5 -43.833 -58.5 -59.5s-50.833 -23.5 -77.5 -23.5c-38 0 -71 8.33301 -99 25
c-29.333 -18 -62.666 -27 -99.999 -27c-51.333 0 -95.166 18.5 -131.499 55.5s-54.5 83.167 -54.5 138.5c0 52 19.5 98.5 58.5 139.5s83.167 61.5 132.5 61.5c38 0 71.333 -8 100 -24c26 14.667 54.667 22 86 22c30.667 0 57.834 -6.83301 81.501 -20.5
s40.834 -34.167 51.501 -61.5c10.667 -25.333 16 -50 16 -74zM211.997 -3c32.667 0 59.334 9.66699 80.001 29c-46 36 -69 90 -69 162c0 64.667 22.333 115.667 67 153c-23.333 22 -49.333 33 -78 33c-40 0 -70.5 -19.5 -91.5 -58.5s-31.5 -82.833 -31.5 -131.5
c0 -54.667 12.667 -99.5 38 -134.5s53.666 -52.5 84.999 -52.5zM491.997 235c-8.66699 91.333 -39 137 -91 137c-30.667 0 -55 -7.33301 -73 -22c39.333 -26.667 64.333 -65 75 -115h89zM285.997 235l-0.000976562 -26.001c0 -53.333 12.333 -99.333 37 -138
c14 32 21 70 21 114c0 12.667 -1.33301 29.334 -4 50.001c-6 35.333 -17.667 64.666 -35 87.999c-11.333 -21.333 -17.666 -50.666 -18.999 -87.999z" />
    <glyph glyph-name="guillemotright" unicode="&#xbb;" horiz-adv-x="387" 
d="M45 73c2.66699 0.666992 6.33496 1.49805 11.002 2.49805s13 4 25 9s22.667 11.167 32 18.5s17.666 17.833 24.999 31.5s11 28.834 11 45.501c0 17.333 -3 33.333 -9 48s-13.333 26.5 -22 35.5s-17.667 16.833 -27 23.5s-17.333 11.334 -24 14.001s-11 4 -13 4v8
c4 -0.666992 9 -2 15 -4s17 -6.5 33 -13.5s30 -15 42 -24s23 -21.333 33 -37s15 -32.5 15 -50.5c0 -19.333 -5 -36.833 -15 -52.5s-21.5 -27.334 -34.5 -35.001s-27.333 -14.167 -43 -19.5s-27.834 -8.66602 -36.501 -9.99902s-14.667 -2 -18 -2v8zM195.001 72.998
c2 0 6.49902 0.833984 13.499 2.50098s15.667 5.16699 26 10.5s20.333 11.666 30 18.999s17.834 17.666 24.501 30.999s10 28 10 44c0 17.333 -3.16699 33.5 -9.5 48.5s-13.666 26.833 -21.999 35.5s-17.333 16.334 -27 23.001s-17.5 11.167 -23.5 13.5
s-10.333 3.83301 -13 4.5v8c4 -0.666992 9 -2 15 -4s17 -6.5 33 -13.5s30 -15 42 -24s23 -21.333 33 -37s15 -32.5 15 -50.5c0 -20 -5 -37.667 -15 -53s-21.833 -27 -35.5 -35s-28.334 -14.5 -44.001 -19.5s-27.667 -8.16699 -36 -9.5s-13.833 -2 -16.5 -2v8z" />
    <glyph glyph-name="onequarter" unicode="&#xbc;" horiz-adv-x="471" 
d="M583 642c0 -8.66699 -3 -16.501 -9 -23.501s-13.667 -10.5 -23 -10.5c-8 0 -15 3 -21 9s-9 12.667 -9 20c0 11.333 5 21 15 29c-8.66699 13.333 -23 20 -43 20c-88.667 0 -133 -65 -133 -195v-120h85v-10h-58c-10.667 0 -17.834 -2 -21.501 -6s-5.5 -12.333 -5.5 -25
v-320h56v-10h-167v10h27c11.333 0 18.166 1.33301 20.499 4s3.5 9.33398 3.5 20.001v420c0 64.667 14.667 116 44 154c-20.667 26 -49 39 -85 39c-89.333 0 -134 -58.667 -134 -176v-100h85v-10c-44 -0.666992 -68.667 -2.33398 -74 -5.00098
c-7.33301 -3.33301 -11 -12 -11 -26v-320h61v-10h-172v10h33c7.33301 0 12.166 1.33301 14.499 4s3.5 9.33398 3.5 20.001v380c0 38 7.33301 74.833 22 110.5s37.334 66.167 68.001 91.5s65.334 38 104.001 38c40.667 0 71.334 -12.333 92.001 -37
c18.667 24.667 41.5 43.667 68.5 57s53.5 20 79.5 20c20 0 39 -3.83301 57 -11.5s27 -21.167 27 -40.5z" />
    <glyph glyph-name="onehalf" unicode="&#xbd;" horiz-adv-x="662" 
d="M583 642c0 -8.66699 -3.00098 -16.498 -9.00098 -23.498s-13.333 -10.5 -22 -10.5c-8 0 -15.167 3 -21.5 9s-9.5 13 -9.5 21c0 10.667 5 20 15 28c-8.66699 13.333 -23 20 -43 20c-88.667 0 -133 -65 -133 -195v-120h85v-10h-58c-11.333 0 -18.666 -2.16699 -21.999 -6.5
s-5 -12.5 -5 -24.5v-320h76v-10h-187v10h27c11.333 0 18.166 1.16699 20.499 3.5s3.5 9.16602 3.5 20.499v420c0 60 14.667 111.333 44 154c-21.333 26 -50 39 -86 39c-49.333 0 -83.833 -17 -103.5 -51s-29.5 -81.667 -29.5 -143v-82h85v-10h-58
c-11.333 0 -18.666 -2.16699 -21.999 -6.5s-5 -12.5 -5 -24.5v-320h54v-10h-165v10h27c11.333 0 18.166 1.16699 20.499 3.5s3.5 9.16602 3.5 20.499v380c0 44.667 10.333 88 31 130s51 73 91 93c22.667 11.333 46.667 17 72 17c37.333 0 68 -12 92 -36
c19.333 24 42.333 42.667 69 56s53.334 20 80.001 20c20.667 0 39.667 -4 57 -12s26 -21.333 26 -40zM639.999 0.00195312h-152v10h25c9.33301 0 15.5 1.66699 18.5 5s4.5 11 4.5 23v279c0 11.333 -0.166992 19.333 -0.5 24s-2.5 9.16699 -6.5 13.5s-10.333 6.5 -19 6.5h-22
v10h108v-361h44v-10z" />
    <glyph glyph-name="threequarters" unicode="&#xbe;" horiz-adv-x="659" 
d="M648 0l-171.002 0.000976562v10h25c12 0 20.5 1.5 25.5 4.5s7.5 9.5 7.5 19.5v594c0 15.333 -3.5 28.333 -10.5 39s-17.833 16 -32.5 16c-88 0 -132 -64 -132 -192v-120h85v-10c-44 -0.666992 -68.667 -2.33398 -74 -5.00098c-7.33301 -3.33301 -11 -12 -11 -26v-320h61
v-10h-179v10h35c10 0 16.333 1.33301 19 4s4 9.33398 4 20.001v420c0 60 14.333 110 43 150c-23.333 28.667 -51.333 43 -84 43c-89.333 0 -134 -58.667 -134 -176v-100h85v-10c-44 -0.666992 -68.667 -2.33398 -74 -5.00098c-7.33301 -3.33301 -11 -12 -11 -26v-320h61v-10
h-172v10h26c8.66699 0 15 1.5 19 4.5s6 9.5 6 19.5v380c0 38 7.33301 74.833 22 110.5s37.334 66.167 68.001 91.5s65.334 38 104.001 38c40.667 0 71.667 -12.667 93 -38c40.667 50 90 75 148 75c41.333 0 73 -5 95 -15v-666h53v-10z" />
    <glyph glyph-name="questiondown" unicode="&#xbf;" horiz-adv-x="306" 
d="M30 11c0 25.333 5.50195 47.5029 16.502 66.5029s24.333 34 40 45l47 31.5c15.667 10 29 21.667 40 35s16.5 29 16.5 47v45h13c10.667 -30 16 -57.667 16 -83c0 -14 -2.33301 -25.667 -7 -35c-4.66699 -8.66699 -16.5 -16.834 -35.5 -24.501s-38.333 -14.667 -58 -21
s-37.334 -17.833 -53.001 -34.5s-23.5 -37.334 -23.5 -62.001c0 -42 16.833 -75.5 50.5 -100.5s77.167 -40.833 130.5 -47.5l43 -1v-93h-13c0 8.66699 -1.16699 15.167 -3.5 19.5s-4.5 7 -6.5 8s-7 2 -15 3s-14 1.83301 -18 2.5
c-58.667 11.333 -103.334 32.166 -134.001 62.499s-46 75.833 -46 136.5zM157.002 374.003c0 10.667 3.66699 19.667 11 27s16.333 11 27 11s19.667 -3.66699 27 -11s11 -16.333 11 -27s-3.66699 -19.667 -11 -27s-16.333 -11 -27 -11s-19.667 3.66699 -27 11
s-11 16.333 -11 27z" />
    <glyph glyph-name="Agrave" unicode="&#xc0;" horiz-adv-x="616" 
d="M87 59l233 607.001h6l196 -584c11.333 -34.667 22.5 -55.334 33.5 -62.001s34.5 -10 70.5 -10v-10h-234v10h79l-74 238h-224l-94 -238h95v-10h-184v10c32 0 54 2.66699 66 8s22.333 19 31 41zM176 258.001h217l-104 303zM217 732.001l-3 28l20 24l181 -83l-3 -7z" />
    <glyph glyph-name="Aacute" unicode="&#xc1;" horiz-adv-x="616" 
d="M87 59l233 607.001h6l196 -584c11.333 -34.667 22.5 -55.334 33.5 -62.001s34.5 -10 70.5 -10v-10h-234v10h79l-74 238h-224l-94 -238h95v-10h-184v10c32 0 54 2.66699 66 8s22.333 19 31 41zM176 258.001h217l-104 303zM435 760.001l-3 -28l-195 -38l-3 7l181 83z" />
    <glyph glyph-name="Acircumflex" unicode="&#xc2;" horiz-adv-x="616" 
d="M87 59l233 607.001h6l196 -584c11.333 -34.667 22.5 -55.334 33.5 -62.001s34.5 -10 70.5 -10v-10h-234v10h79l-74 238h-224l-94 -238h95v-10h-184v10c32 0 54 2.66699 66 8s22.333 19 31 41zM176 258.001h217l-104 303zM453 629.001l-8 -4l-121 79h-7l-123 -79l-8 4
l131 111h7z" />
    <glyph glyph-name="Atilde" unicode="&#xc3;" horiz-adv-x="616" 
d="M87 59l233 607.001h6l196 -584c11.333 -34.667 22.5 -55.334 33.5 -62.001s34.5 -10 70.5 -10v-10h-234v10h79l-74 238h-224l-94 -238h95v-10h-184v10c32 0 54 2.66699 66 8s22.333 19 31 41zM176 258.001h217l-104 303zM455 771.001
c-6 -20.667 -17.498 -36.832 -34.498 -48.499s-35.167 -17.5 -54.5 -17.5c-14.667 0 -36.5 7.16699 -65.5 21.5s-50.833 21.5 -65.5 21.5c-26 0 -47.667 -11.667 -65 -35h-9c26 41.333 62 62 108 62c15.333 0 36.5 -6.66699 63.5 -20s48.5 -20 64.5 -20
c13.333 0 23.666 2.66699 30.999 8s13.666 14.666 18.999 27.999h8z" />
    <glyph glyph-name="Adieresis" unicode="&#xc4;" horiz-adv-x="616" 
d="M87 59l233 607.001h6l196 -584c11.333 -34.667 22.5 -55.334 33.5 -62.001s34.5 -10 70.5 -10v-10h-234v10h79l-74 238h-224l-94 -238h95v-10h-184v10c32 0 54 2.66699 66 8s22.333 19 31 41zM176 258.001h217l-104 303zM472 666.001
c0 -9.33301 -3.16699 -17.166 -9.5 -23.499s-13.833 -9.5 -22.5 -9.5c-9.33301 0 -17.166 3.16699 -23.499 9.5s-9.5 14.166 -9.5 23.499c0 8.66699 3.16699 16.167 9.5 22.5s14.166 9.5 23.499 9.5s17 -3 23 -9s9 -13.667 9 -23zM211 666.001
c0 -9.33301 -3.16504 -17.166 -9.49805 -23.499s-13.833 -9.5 -22.5 -9.5s-16.334 3.16699 -23.001 9.5s-10 14.166 -10 23.499c0 8.66699 3.16699 16.167 9.5 22.5s14.166 9.5 23.499 9.5c8.66699 0 16.167 -3 22.5 -9s9.5 -13.667 9.5 -23z" />
    <glyph glyph-name="Aring" unicode="&#xc5;" horiz-adv-x="616" 
d="M87 59l233 607.001h6l196 -584c11.333 -34.667 22.5 -55.334 33.5 -62.001s34.5 -10 70.5 -10v-10h-234v10h79l-74 238h-224l-94 -238h95v-10h-184v10c32 0 54 2.66699 66 8s22.333 19 31 41zM176 258.001h217l-104 303zM380 742.001c0 -18 -6.5 -33.5 -19.5 -46.5
s-28.5 -19.5 -46.5 -19.5s-33.5 6.5 -46.5 19.5s-19.5 28.5 -19.5 46.5s6.5 33.5 19.5 46.5s28.5 19.5 46.5 19.5s33.5 -6.5 46.5 -19.5s19.5 -28.5 19.5 -46.5zM367 742.001c0 14.667 -5.16699 27.167 -15.5 37.5s-22.833 15.5 -37.5 15.5s-27.167 -5.16699 -37.5 -15.5
s-15.5 -22.833 -15.5 -37.5s5.16699 -27.167 15.5 -37.5s22.833 -15.5 37.5 -15.5s27.167 5.16699 37.5 15.5s15.5 22.833 15.5 37.5z" />
    <glyph glyph-name="AE" unicode="&#xc6;" horiz-adv-x="702" 
d="M677 0l-472.998 0.00195312v10h20c20 0 33.667 2.83301 41 8.5s11 18.5 11 38.5v191h-113l-94 -238h95v-10h-184v10h29c19.333 1.33301 33.666 5.16602 42.999 11.499s17.666 18.833 24.999 37.5l199 518v42c0 26 -11.667 39 -35 39h-37v10h431v-111h-11
c-3.33301 35.333 -12.166 61 -26.499 77s-36.833 24 -67.5 24h-184v-318h154c22.667 0 36 3.66699 40 11s6 32 6 74h10v-162h-10v67h-157c-28.667 0 -43 -12.667 -43 -38v-282h227c34.667 0 58.667 7.66699 72 23s20.666 40.666 21.999 75.999h10v-109zM276.002 258.002v294
l-110 -294h110z" />
    <glyph glyph-name="Ccedilla" unicode="&#xc7;" horiz-adv-x="620" 
d="M585 142l-3.99902 -116.998c-59.333 -23.333 -123 -35 -191 -35h-5c-12 -16.667 -18 -31.667 -18 -45c0 -7.33301 10.167 -21.833 30.5 -43.5s30.5 -38.167 30.5 -49.5c0 -14.667 -5.83301 -26.5 -17.5 -35.5s-24.834 -13.5 -39.501 -13.5
c-20.667 0 -39.334 11.333 -56.001 34l6 5c9.33301 -10 23.333 -15 42 -15c24 0 36 11.667 36 35c0 9.33301 -7.5 23.666 -22.5 42.999s-22.5 33 -22.5 41c0 12 6.33301 27 19 45c-94 4 -174.667 39.167 -242 105.5s-101 148.833 -101 247.5
c0 48.667 7.16699 92.667 21.5 132s33.333 71.5 57 96.5s51.167 45.833 82.5 62.5s63.166 28.5 95.499 35.5s65.5 10.5 99.5 10.5c26.667 0 60.834 -4.5 102.501 -13.5s69.5 -16.167 83.5 -21.5c2.66699 -61.333 4 -100.666 4 -117.999l-10 -1
c-8.66699 55.333 -29.167 93 -61.5 113s-78.833 30 -139.5 30c-70.667 0 -130.834 -28.333 -180.501 -85s-74.5 -134.667 -74.5 -234c0 -45.333 5.66699 -88.333 17 -129s28 -77.834 50 -111.501s51.667 -60.334 89 -80.001s80 -29.5 128 -29.5
c58.667 0 100.334 11 125.001 33s43.334 58.333 56.001 109z" />
    <glyph glyph-name="Egrave" unicode="&#xc8;" horiz-adv-x="536" 
d="M511 0h-473.002v10h15c15.333 0 26.333 0.666992 33 2s12.334 5.5 17.001 12.5s7 17.833 7 32.5v562c0 26 -11.667 39 -35 39h-37v10h431v-111h-10c-4 35.333 -13.167 61 -27.5 77s-40.166 24 -77.499 24h-174v-318h154c22.667 0 36 3.66699 40 11s6 32 6 74h10v-162h-10
v67h-157c-11.333 0 -21.333 -2.83301 -30 -8.5s-13 -14.5 -13 -26.5v-285h212c42.667 0 70.667 6.66699 84 20s22 39 26 77h9v-107zM159.998 740l-3 28l20 24l181 -83l-3 -7z" />
    <glyph glyph-name="Eacute" unicode="&#xc9;" horiz-adv-x="536" 
d="M511 0h-473.002v10h15c15.333 0 26.333 0.666992 33 2s12.334 5.5 17.001 12.5s7 17.833 7 32.5v562c0 26 -11.667 39 -35 39h-37v10h431v-111h-10c-4 35.333 -13.167 61 -27.5 77s-40.166 24 -77.499 24h-174v-318h154c22.667 0 36 3.66699 40 11s6 32 6 74h10v-162h-10
v67h-157c-11.333 0 -21.333 -2.83301 -30 -8.5s-13 -14.5 -13 -26.5v-285h212c42.667 0 70.667 6.66699 84 20s22 39 26 77h9v-107zM422.998 760l-3 -28l-195 -38l-3 7l181 83z" />
    <glyph glyph-name="Ecircumflex" unicode="&#xca;" horiz-adv-x="536" 
d="M511 0h-473.002v10h15c15.333 0 26.333 0.666992 33 2s12.334 5.5 17.001 12.5s7 17.833 7 32.5v562c0 26 -11.667 39 -35 39h-37v10h431v-111h-10c-4 35.333 -13.167 61 -27.5 77s-40.166 24 -77.499 24h-174v-318h154c22.667 0 36 3.66699 40 11s6 32 6 74h10v-162h-10
v67h-157c-11.333 0 -21.333 -2.83301 -30 -8.5s-13 -14.5 -13 -26.5v-285h212c42.667 0 70.667 6.66699 84 20s22 39 26 77h9v-107zM409.998 699l-8 -4l-121 79h-7l-123 -79l-8 4l131 111h7z" />
    <glyph glyph-name="Edieresis" unicode="&#xcb;" horiz-adv-x="536" 
d="M511 0h-473.002v10h15c15.333 0 26.333 0.666992 33 2s12.334 5.5 17.001 12.5s7 17.833 7 32.5v562c0 26 -11.667 39 -35 39h-37v10h431v-111h-10c-4 35.333 -13.167 61 -27.5 77s-40.166 24 -77.499 24h-174v-318h154c22.667 0 36 3.66699 40 11s6 32 6 74h10v-162h-10
v67h-157c-11.333 0 -21.333 -2.83301 -30 -8.5s-13 -14.5 -13 -26.5v-285h212c42.667 0 70.667 6.66699 84 20s22 39 26 77h9v-107zM458.998 726c0 -9.33301 -3.16504 -17.166 -9.49805 -23.499s-13.833 -9.5 -22.5 -9.5s-16.334 3.16699 -23.001 9.5s-10 14.166 -10 23.499
c0 8.66699 3.16699 16.167 9.5 22.5s14.166 9.5 23.499 9.5c8.66699 0 16.167 -3 22.5 -9s9.5 -13.667 9.5 -23zM173 726c0 -9.33301 -3.16504 -17.166 -9.49805 -23.499s-13.833 -9.5 -22.5 -9.5s-16.334 3.16699 -23.001 9.5s-10 14.166 -10 23.499
c0 8.66699 3.16699 16.167 9.5 22.5s14.166 9.5 23.499 9.5c8.66699 0 16.167 -3 22.5 -9s9.5 -13.667 9.5 -23z" />
    <glyph glyph-name="Igrave" unicode="&#xcc;" horiz-adv-x="290" 
d="M243 704l-2 -7l-191 43l-3 28l20 24zM240 0l-195.001 0.000976562v10h7c26.667 0 43 2 49 6s9 16.333 9 37v561c0 11.333 -0.333008 19.666 -1 24.999s-2.66699 9.83301 -6 13.5s-8.66602 5.5 -15.999 5.5h-42v10h195v-10h-60v-648h60v-10z" />
    <glyph glyph-name="Iacute" unicode="&#xcd;" horiz-adv-x="290" 
d="M233 768l-3 -28l-181 -38l-2 7l168 83zM240 0l-195.001 0.000976562v10h7c26.667 0 43 2 49 6s9 16.333 9 37v561c0 11.333 -0.333008 19.666 -1 24.999s-2.66699 9.83301 -6 13.5s-8.66602 5.5 -15.999 5.5h-42v10h195v-10h-60v-648h60v-10z" />
    <glyph glyph-name="Icircumflex" unicode="&#xce;" horiz-adv-x="290" 
d="M243 686l-8 -4l-87 59h-7l-93 -59l-8 4l101 91h7zM240 0l-195.001 0.000976562v10h7c26.667 0 43 2 49 6s9 16.333 9 37v561c0 11.333 -0.333008 19.666 -1 24.999s-2.66699 9.83301 -6 13.5s-8.66602 5.5 -15.999 5.5h-42v10h195v-10h-60v-648h60v-10z" />
    <glyph glyph-name="Idieresis" unicode="&#xcf;" horiz-adv-x="290" 
d="M248 736c0 -9.33301 -3.16699 -17.166 -9.5 -23.499s-13.833 -9.5 -22.5 -9.5c-9.33301 0 -17.166 3.16699 -23.499 9.5s-9.5 14.166 -9.5 23.499c0 8.66699 3.16699 16.167 9.5 22.5s14.166 9.5 23.499 9.5s17 -3 23 -9s9 -13.667 9 -23zM108 736
c0 -9.33301 -3.16699 -17.166 -9.5 -23.499s-13.833 -9.5 -22.5 -9.5c-9.33301 0 -17.166 3.16699 -23.499 9.5s-9.5 14.166 -9.5 23.499c0 8.66699 3.16699 16.167 9.5 22.5s14.166 9.5 23.499 9.5s17 -3 23 -9s9 -13.667 9 -23zM240 0l-195.001 0.000976562v10h7
c26.667 0 43 2 49 6s9 16.333 9 37v561c0 11.333 -0.333008 19.666 -1 24.999s-2.66699 9.83301 -6 13.5s-8.66602 5.5 -15.999 5.5h-42v10h195v-10h-60v-648h60v-10z" />
    <glyph glyph-name="Eth" unicode="&#xd0;" horiz-adv-x="679" 
d="M33 313l-0.00292969 9.99902h77v288c0 9.33301 -1.16699 16.833 -3.5 22.5s-5 10.167 -8 13.5s-8.33301 5.83301 -16 7.5s-14 2.66699 -19 3s-13.5 0.5 -25.5 0.5h-5v10h275c30.667 0 61.334 -3.5 92.001 -10.5s61.167 -18.667 91.5 -35s57 -36.666 80 -60.999
s41.667 -55.833 56 -94.5s21.5 -81.667 21.5 -129c0 -108.667 -32 -192.167 -96 -250.5s-141 -87.5 -231 -87.5h-289v10c20.667 0 35.334 0.5 44.001 1.5s16.334 5 23.001 12s10 18.167 10 33.5v256h-77zM567.997 330.999c0 113.333 -24.5 196.168 -73.5 248.501
s-113.5 78.5 -193.5 78.5h-121v-335h110v-10h-110v-303h145c33.333 0 64 5.66699 92 17s53.667 29.166 77 53.499s41.5 57.833 54.5 100.5s19.5 92.667 19.5 150z" />
    <glyph glyph-name="Ntilde" unicode="&#xd1;" horiz-adv-x="665" 
d="M632 658h-66.999v-673h-3l-448 660v-635h88v-10h-172v10h15c12 0 21 0.5 27 1.5s12 2.83301 18 5.5s10 7 12 13s3 14.333 3 25v544c0 26 -4.83301 42.333 -14.5 49s-26.834 10 -51.501 10h-15v10h161l370 -545v506c0 12 -2.66699 19.833 -8 23.5s-20 5.5 -44 5.5h-23v10
h152v-10zM493.001 772c-6 -20.667 -17.498 -36.832 -34.498 -48.499s-35.167 -17.5 -54.5 -17.5c-14.667 0 -36.5 7.16699 -65.5 21.5s-50.833 21.5 -65.5 21.5c-26 0 -47.667 -11.667 -65 -35h-9c26 41.333 62 62 108 62c15.333 0 36.5 -6.66699 63.5 -20
s48.5 -20 64.5 -20c13.333 0 23.666 2.66699 30.999 8s13.666 14.666 18.999 27.999h8z" />
    <glyph glyph-name="Ograve" unicode="&#xd2;" horiz-adv-x="740" 
d="M710 345c0 -54 -10.835 -104.001 -32.502 -150.001s-49.5 -83.833 -83.5 -113.5s-71.333 -52.667 -112 -69s-81 -24.5 -121 -24.5c-39.333 0 -78.166 7.83301 -116.499 23.5s-73.666 37.667 -105.999 66s-58.5 65.333 -78.5 111s-30 95.5 -30 149.5
c0 68.667 18 129.667 54 183s79.667 92.833 131 118.5s104 38.5 158 38.5c93.333 0 172.833 -31.667 238.5 -95s98.5 -142.666 98.5 -237.999zM629.998 343.999c0 96 -24.667 173.833 -74 233.5s-110 89.5 -182 89.5c-74 0 -136.5 -31.833 -187.5 -95.5
s-76.5 -142.167 -76.5 -235.5c0 -108 23.833 -191 71.5 -249s111.5 -87 191.5 -87c70 0 130.333 32 181 96s76 146.667 76 248zM264.998 731.999l-3 28l20 24l181 -83l-3 -7z" />
    <glyph glyph-name="Oacute" unicode="&#xd3;" horiz-adv-x="740" 
d="M710 345c0 -54 -10.835 -104.001 -32.502 -150.001s-49.5 -83.833 -83.5 -113.5s-71.333 -52.667 -112 -69s-81 -24.5 -121 -24.5c-39.333 0 -78.166 7.83301 -116.499 23.5s-73.666 37.667 -105.999 66s-58.5 65.333 -78.5 111s-30 95.5 -30 149.5
c0 68.667 18 129.667 54 183s79.667 92.833 131 118.5s104 38.5 158 38.5c93.333 0 172.833 -31.667 238.5 -95s98.5 -142.666 98.5 -237.999zM629.998 343.999c0 96 -24.667 173.833 -74 233.5s-110 89.5 -182 89.5c-74 0 -136.5 -31.833 -187.5 -95.5
s-76.5 -142.167 -76.5 -235.5c0 -108 23.833 -191 71.5 -249s111.5 -87 191.5 -87c70 0 130.333 32 181 96s76 146.667 76 248zM462.998 759.999l-3 -28l-195 -38l-3 7l181 83z" />
    <glyph glyph-name="Ocircumflex" unicode="&#xd4;" horiz-adv-x="740" 
d="M538 689l-8 -4l-151 69h-7l-153 -69l-8 4l161 101h7zM710 345c0 -54 -10.835 -104.001 -32.502 -150.001s-49.5 -83.833 -83.5 -113.5s-71.333 -52.667 -112 -69s-81 -24.5 -121 -24.5c-39.333 0 -78.166 7.83301 -116.499 23.5s-73.666 37.667 -105.999 66
s-58.5 65.333 -78.5 111s-30 95.5 -30 149.5c0 68.667 18 129.667 54 183s79.667 92.833 131 118.5s104 38.5 158 38.5c93.333 0 172.833 -31.667 238.5 -95s98.5 -142.666 98.5 -237.999zM629.998 343.999c0 96 -24.667 173.833 -74 233.5s-110 89.5 -182 89.5
c-74 0 -136.5 -31.833 -187.5 -95.5s-76.5 -142.167 -76.5 -235.5c0 -108 23.833 -191 71.5 -249s111.5 -87 191.5 -87c70 0 130.333 32 181 96s76 146.667 76 248z" />
    <glyph glyph-name="Otilde" unicode="&#xd5;" horiz-adv-x="740" 
d="M710 345c0 -54 -10.835 -104.001 -32.502 -150.001s-49.5 -83.833 -83.5 -113.5s-71.333 -52.667 -112 -69s-81 -24.5 -121 -24.5c-39.333 0 -78.166 7.83301 -116.499 23.5s-73.666 37.667 -105.999 66s-58.5 65.333 -78.5 111s-30 95.5 -30 149.5
c0 68.667 18 129.667 54 183s79.667 92.833 131 118.5s104 38.5 158 38.5c93.333 0 172.833 -31.667 238.5 -95s98.5 -142.666 98.5 -237.999zM629.998 343.999c0 96 -24.667 173.833 -74 233.5s-110 89.5 -182 89.5c-74 0 -136.5 -31.833 -187.5 -95.5
s-76.5 -142.167 -76.5 -235.5c0 -108 23.833 -191 71.5 -249s111.5 -87 191.5 -87c70 0 130.333 32 181 96s76 146.667 76 248zM508.998 771.999c-6 -20.667 -17.498 -36.832 -34.498 -48.499s-35.167 -17.5 -54.5 -17.5c-14.667 0 -36.5 7.16699 -65.5 21.5
s-50.833 21.5 -65.5 21.5c-26 0 -47.667 -11.667 -65 -35h-9c26 41.333 62 62 108 62c15.333 0 36.5 -6.66699 63.5 -20s48.5 -20 64.5 -20c13.333 0 23.666 2.66699 30.999 8s13.666 14.666 18.999 27.999h8z" />
    <glyph glyph-name="Odieresis" unicode="&#xd6;" horiz-adv-x="740" 
d="M629 686c0 -9.33301 -3.16504 -17.166 -9.49805 -23.499s-13.833 -9.5 -22.5 -9.5s-16.334 3.16699 -23.001 9.5s-10 14.166 -10 23.499c0 8.66699 3.16699 16.167 9.5 22.5s14.166 9.5 23.499 9.5c8.66699 0 16.167 -3 22.5 -9s9.5 -13.667 9.5 -23zM189.002 686
c0 -9.33301 -3.16504 -17.166 -9.49805 -23.499s-13.833 -9.5 -22.5 -9.5s-16.334 3.16699 -23.001 9.5s-10 14.166 -10 23.499c0 8.66699 3.16699 16.167 9.5 22.5s14.166 9.5 23.499 9.5c8.66699 0 16.167 -3 22.5 -9s9.5 -13.667 9.5 -23zM710.004 345
c0 -54 -10.835 -104.001 -32.502 -150.001s-49.5 -83.833 -83.5 -113.5s-71.333 -52.667 -112 -69s-81 -24.5 -121 -24.5c-39.333 0 -78.166 7.83301 -116.499 23.5s-73.666 37.667 -105.999 66s-58.5 65.333 -78.5 111s-30 95.5 -30 149.5c0 68.667 18 129.667 54 183
s79.667 92.833 131 118.5s104 38.5 158 38.5c93.333 0 172.833 -31.667 238.5 -95s98.5 -142.666 98.5 -237.999zM630.002 343.999c0 96 -24.667 173.833 -74 233.5s-110 89.5 -182 89.5c-74 0 -136.5 -31.833 -187.5 -95.5s-76.5 -142.167 -76.5 -235.5
c0 -108 23.833 -191 71.5 -249s111.5 -87 191.5 -87c70 0 130.333 32 181 96s76 146.667 76 248z" />
    <glyph glyph-name="multiply" unicode="&#xd7;" horiz-adv-x="443" 
d="M393 152l-35 -36l-140 141l-133 -133l-35 35l133 133l-131 131l35 35l131 -131l131 131l35 -35l-131 -131z" />
    <glyph glyph-name="Oslash" unicode="&#xd8;" horiz-adv-x="740" 
d="M710 345c0 -54 -10.833 -104 -32.5 -150s-49.5 -83.833 -83.5 -113.5s-71.333 -52.667 -112 -69s-81 -24.5 -121 -24.5c-56 0 -110.667 15.333 -164 46l-65 -116l-9 4l65 117c-47.333 30.667 -85.5 71.334 -114.5 122.001s-43.5 109.667 -43.5 177
c0 68.667 18 129.667 54 183s79.667 92.833 131 118.5s104 38.5 158 38.5c52 0 102.333 -11.667 151 -35l70 125l9 -4l-70 -125c54 -28 97 -67.833 129 -119.5s48 -109.834 48 -174.501zM630 344c0 58.667 -9.83203 111.333 -29.499 158s-46.834 84 -81.501 112l-309 -557
c42.667 -38 97 -57 163 -57c70 0 130.333 32 181 96s76 146.667 76 248zM110.001 335.999c0 -122 30.667 -212.667 92 -272l309 556c-42 31.333 -87.667 47 -137 47c-74 0 -136.5 -31.833 -187.5 -95.5s-76.5 -142.167 -76.5 -235.5z" />
    <glyph glyph-name="Ugrave" unicode="&#xd9;" horiz-adv-x="696" 
d="M443 661l-3 -7l-195 98l-3 28l20 24zM682 658l-73 0.00195312v-327c0 -104.667 -20.833 -187.667 -62.5 -249s-98.167 -92 -169.5 -92c-30.667 0 -61.167 4.83301 -91.5 14.5s-59.833 24.667 -88.5 45s-52 49.166 -70 86.499s-27 80.666 -27 129.999v340
c0 21.333 -4.16699 35.333 -12.5 42s-23.5 10 -45.5 10h-25v10h253v-10h-100v-348c0 -206.667 69 -310 207 -310c25.333 -0 50 5.33301 74 16s47.667 27.667 71 51s42 56.833 56 100.5s21 94.5 21 152.5v295c0 18.667 -5.5 30.5 -16.5 35.5s-31.5 7.5 -61.5 7.5h-29v10h190
v-10z" />
    <glyph glyph-name="Uacute" unicode="&#xda;" horiz-adv-x="696" 
d="M513 780l-3 -28l-195 -98l-3 7l181 143zM682 658l-73 0.00195312v-327c0 -104.667 -20.833 -187.667 -62.5 -249s-98.167 -92 -169.5 -92c-30.667 0 -61.167 4.83301 -91.5 14.5s-59.833 24.667 -88.5 45s-52 49.166 -70 86.499s-27 80.666 -27 129.999v340
c0 21.333 -4.16699 35.333 -12.5 42s-23.5 10 -45.5 10h-25v10h253v-10h-100v-348c0 -206.667 69 -310 207 -310c25.333 -0 50 5.33301 74 16s47.667 27.667 71 51s42 56.833 56 100.5s21 94.5 21 152.5v295c0 18.667 -5.5 30.5 -16.5 35.5s-31.5 7.5 -61.5 7.5h-29v10h190
v-10z" />
    <glyph glyph-name="Ucircumflex" unicode="&#xdb;" horiz-adv-x="696" 
d="M538 689l-8 -4l-151 69h-7l-153 -69l-8 4l161 101h7zM682 658l-73 0.00195312v-327c0 -104.667 -20.833 -187.667 -62.5 -249s-98.167 -92 -169.5 -92c-30.667 0 -61.167 4.83301 -91.5 14.5s-59.833 24.667 -88.5 45s-52 49.166 -70 86.499s-27 80.666 -27 129.999v340
c0 21.333 -4.16699 35.333 -12.5 42s-23.5 10 -45.5 10h-25v10h253v-10h-100v-348c0 -206.667 69 -310 207 -310c25.333 -0 50 5.33301 74 16s47.667 27.667 71 51s42 56.833 56 100.5s21 94.5 21 152.5v295c0 18.667 -5.5 30.5 -16.5 35.5s-31.5 7.5 -61.5 7.5h-29v10h190
v-10z" />
    <glyph glyph-name="Udieresis" unicode="&#xdc;" horiz-adv-x="696" 
d="M624 743c0 -9.33301 -3.16699 -17.168 -9.5 -23.501s-13.833 -9.5 -22.5 -9.5c-9.33301 0 -17.166 3.33301 -23.499 10s-9.5 14.334 -9.5 23.001s3.16699 16.167 9.5 22.5s14.166 9.5 23.499 9.5s17 -3.16699 23 -9.5s9 -13.833 9 -22.5zM170 742.998
c0 -9.33301 -3.16699 -17.168 -9.5 -23.501s-13.833 -9.5 -22.5 -9.5c-9.33301 0 -17.166 3.33301 -23.499 10s-9.5 14.334 -9.5 23.001s3.16699 16.167 9.5 22.5s14.166 9.5 23.499 9.5s17 -3.16699 23 -9.5s9 -13.833 9 -22.5zM682 657.996l-73 0.00195312v-327
c0 -104.667 -20.833 -187.667 -62.5 -249s-98.167 -92 -169.5 -92c-30.667 0 -61.167 4.83301 -91.5 14.5s-59.833 24.667 -88.5 45s-52 49.166 -70 86.499s-27 80.666 -27 129.999v340c0 21.333 -4.16699 35.333 -12.5 42s-23.5 10 -45.5 10h-25v10h253v-10h-100v-348
c0 -206.667 69 -310 207 -310c25.333 0 50 5.33301 74 16s47.667 27.667 71 51s42 56.833 56 100.5s21 94.5 21 152.5v295c0 18.667 -5.5 30.5 -16.5 35.5s-31.5 7.5 -61.5 7.5h-29v10h190v-10z" />
    <glyph glyph-name="Yacute" unicode="&#xdd;" horiz-adv-x="481" 
d="M509 658c-31.333 0 -51.501 -3.33301 -60.501 -10s-20.833 -25.334 -35.5 -56.001l-130 -278v-304h78v-10h-228v10h40c26.667 0 40 12.333 40 37v254l-136 268c-4 7.33301 -8.5 16.5 -13.5 27.5s-8.66699 18.5 -11 22.5l-9 15.5c-3.66699 6.33301 -6.66699 10.333 -9 12
s-5.83301 3.83398 -10.5 6.50098s-9.66699 4.16699 -15 4.5s-11.666 0.5 -18.999 0.5h-12v10h203v-10h-68l162 -341l161 341h-89v10h162v-10zM422.999 780l-3 -28l-195 -98l-3 7l181 143z" />
    <glyph glyph-name="Thorn" unicode="&#xde;" horiz-adv-x="519" 
d="M497 366c0 -44 -12.168 -83.332 -36.501 -117.999s-53.166 -60.167 -86.499 -76.5s-66.333 -24.5 -99 -24.5c-36 0 -67.333 4.66699 -94 14v-151h73v-10h-212v10h31c14.667 1.33301 24.667 4.66602 30 9.99902s8 17.333 8 36v520c0 34 -6 56.167 -18 66.5
s-33 15.5 -63 15.5v10h218v-10h-67v-100h84c74.667 0 132 -18.5 172 -55.5s60 -82.5 60 -136.5zM419.999 367.001c0 60 -15.835 105.167 -47.502 135.5s-73.167 45.5 -124.5 45.5h-67v-377c18.667 -8.66699 41.334 -13 68.001 -13c52.667 0 94.334 19.833 125.001 59.5
s46 89.5 46 149.5z" />
    <glyph glyph-name="germandbls" unicode="&#xdf;" horiz-adv-x="479" 
d="M457 96c0 -36.667 -12.834 -63.5059 -38.501 -80.5059s-55.167 -25.5 -88.5 -25.5c-14.667 0 -31.5 2 -50.5 6s-34.5 8 -46.5 12l-18 5v83h10c2.66699 -64.667 37 -97 103 -97c23.333 0 42.666 7.16699 57.999 21.5s23 31.5 23 51.5c0 8.66699 -1.66699 16.834 -5 24.501
s-9 15.167 -17 22.5s-14.5 13 -19.5 17s-13.667 9.83301 -26 17.5s-20.5 12.834 -24.5 15.501c-16.667 11.333 -29.667 20.5 -39 27.5s-19.333 17.833 -30 32.5s-16 29 -16 43c0 32.667 9 59 27 79c22 23.333 44 49 66 77c32 40.667 48 89 48 145
c0 40.667 -11.333 69.667 -34 87s-50 26 -82 26c-18.667 0 -38 -4.66699 -58 -14c-49.333 -21.333 -74 -81.666 -74 -180.999v-481h61v-10h-172v10h33c8 0 13 1.33301 15 4s3 9.33398 3 20.001v420c0 75.333 24.667 137.666 74 186.999c14.667 14.667 33.834 27 57.501 37
s45.834 15 66.501 15c36 0 65.167 -10.333 87.5 -31s33.5 -49 33.5 -85c0 -60.667 -18.667 -114.334 -56 -161.001c-2.66699 -3.33301 -11.334 -13.166 -26.001 -29.499s-24.667 -28.166 -30 -35.499c-9.33301 -12 -14 -24 -14 -36c0 -4.66699 1.33301 -9.5 4 -14.5
s6.83398 -10.5 12.501 -16.5s11.167 -11.333 16.5 -16s12.333 -10.167 21 -16.5s15.667 -11.166 21 -14.499s12.5 -8.16602 21.5 -14.499s14.833 -10.166 17.5 -11.499c20.667 -14 35.667 -24.667 45 -32s18.333 -18.333 27 -33s13 -31.334 13 -50.001z" />
    <glyph glyph-name="agrave" unicode="&#xe0;" horiz-adv-x="351" 
d="M347 9c-13.333 -12.667 -34.6699 -18.9971 -64.0029 -18.9971c-19.333 0 -33.333 4.5 -42 13.5s-14.667 23.5 -18 43.5c-18 -14 -31 -23.667 -39 -29s-19.833 -11.166 -35.5 -17.499s-31.167 -9.5 -46.5 -9.5c-20 0 -37.333 7.83301 -52 23.5s-22 33.5 -22 53.5
c0 14.667 3.5 28.167 10.5 40.5s15.167 22.166 24.5 29.499s22.333 14.166 39 20.499s30.5 10.833 41.5 13.5l45 10.5l37.5 8.5c1.33301 37.333 2 65.333 2 84c0 23.333 -8 41.833 -24 55.5s-35.667 20.5 -59 20.5c-14.667 0 -30.5 -3 -47.5 -9s-28.833 -14 -35.5 -24
c1.33301 -1.33301 3.83301 -3.5 7.5 -6.5s6.33398 -5.5 8.00098 -7.5l6.5 -7.5c2.66699 -3 4.5 -6 5.5 -9s1.5 -6.16699 1.5 -9.5c0 -8.66699 -3 -16 -9 -22s-13.333 -9 -22 -9c-7.33301 0 -14.166 2.83301 -20.499 8.5s-9.5 12.167 -9.5 19.5c0 8 2.33301 16 7 24
c12 22.667 30.333 41.667 55 57s49.667 23 75 23c40 0 69.5 -9 88.5 -27s28.5 -47.333 28.5 -88c0 -18.667 -1.16699 -47.334 -3.5 -86.001s-3.5 -67.334 -3.5 -86.001v-5c-0.666992 -54.667 12 -82 38 -82c8.66699 0 18.334 3 29.001 9zM225.996 182.003l-30.501 -6.49805
l-33.5 -7c-8 -1.66699 -17.833 -5 -29.5 -10s-20.667 -10.333 -27 -16s-12 -13.334 -17 -23.001s-7.5 -20.834 -7.5 -33.501c0 -20.667 6.16699 -36.667 18.5 -48s28.833 -17 49.5 -17c18.667 0 43.334 11.333 74.001 34c0 14 0.5 35.167 1.5 63.5s1.5 49.5 1.5 63.5z
M182.995 436.005l-7 -2l-97 174l20 20h31z" />
    <glyph glyph-name="aacute" unicode="&#xe1;" horiz-adv-x="351" 
d="M347 9c-13.333 -12.667 -34.6699 -18.9971 -64.0029 -18.9971c-19.333 0 -33.333 4.5 -42 13.5s-14.667 23.5 -18 43.5c-18 -14 -31 -23.667 -39 -29s-19.833 -11.166 -35.5 -17.499s-31.167 -9.5 -46.5 -9.5c-20 0 -37.333 7.83301 -52 23.5s-22 33.5 -22 53.5
c0 14.667 3.5 28.167 10.5 40.5s15.167 22.166 24.5 29.499s22.333 14.166 39 20.499s30.5 10.833 41.5 13.5l45 10.5l37.5 8.5c1.33301 37.333 2 65.333 2 84c0 23.333 -8 41.833 -24 55.5s-35.667 20.5 -59 20.5c-14.667 0 -30.5 -3 -47.5 -9s-28.833 -14 -35.5 -24
c1.33301 -1.33301 3.83301 -3.5 7.5 -6.5s6.33398 -5.5 8.00098 -7.5l6.5 -7.5c2.66699 -3 4.5 -6 5.5 -9s1.5 -6.16699 1.5 -9.5c0 -8.66699 -3 -16 -9 -22s-13.333 -9 -22 -9c-7.33301 0 -14.166 2.83301 -20.499 8.5s-9.5 12.167 -9.5 19.5c0 8 2.33301 16 7 24
c12 22.667 30.333 41.667 55 57s49.667 23 75 23c40 0 69.5 -9 88.5 -27s28.5 -47.333 28.5 -88c0 -18.667 -1.16699 -47.334 -3.5 -86.001s-3.5 -67.334 -3.5 -86.001v-5c-0.666992 -54.667 12 -82 38 -82c8.66699 0 18.334 3 29.001 9zM225.996 182.003l-30.501 -6.49805
l-33.5 -7c-8 -1.66699 -17.833 -5 -29.5 -10s-20.667 -10.333 -27 -16s-12 -13.334 -17 -23.001s-7.5 -20.834 -7.5 -33.501c0 -20.667 6.16699 -36.667 18.5 -48s28.833 -17 49.5 -17c18.667 0 43.334 11.333 74.001 34c0 14 0.5 35.167 1.5 63.5s1.5 49.5 1.5 63.5z
M155.995 434.005l-7 2l53 192h31l20 -20z" />
    <glyph glyph-name="acircumflex" unicode="&#xe2;" horiz-adv-x="351" 
d="M347 9c-13.333 -12.667 -34.6699 -18.9971 -64.0029 -18.9971c-19.333 0 -33.333 4.5 -42 13.5s-14.667 23.5 -18 43.5c-18 -14 -31 -23.667 -39 -29s-19.833 -11.166 -35.5 -17.499s-31.167 -9.5 -46.5 -9.5c-20 0 -37.333 7.83301 -52 23.5s-22 33.5 -22 53.5
c0 14.667 3.5 28.167 10.5 40.5s15.167 22.166 24.5 29.499s22.333 14.166 39 20.499s30.5 10.833 41.5 13.5l45 10.5l37.5 8.5c1.33301 37.333 2 65.333 2 84c0 23.333 -8 41.833 -24 55.5s-35.667 20.5 -59 20.5c-14.667 0 -30.5 -3 -47.5 -9s-28.833 -14 -35.5 -24
c1.33301 -1.33301 3.83301 -3.5 7.5 -6.5s6.33398 -5.5 8.00098 -7.5l6.5 -7.5c2.66699 -3 4.5 -6 5.5 -9s1.5 -6.16699 1.5 -9.5c0 -8.66699 -3 -16 -9 -22s-13.333 -9 -22 -9c-7.33301 0 -14.166 2.83301 -20.499 8.5s-9.5 12.167 -9.5 19.5c0 8 2.33301 16 7 24
c12 22.667 30.333 41.667 55 57s49.667 23 75 23c40 0 69.5 -9 88.5 -27s28.5 -47.333 28.5 -88c0 -18.667 -1.16699 -47.334 -3.5 -86.001s-3.5 -67.334 -3.5 -86.001v-5c-0.666992 -54.667 12 -82 38 -82c8.66699 0 18.334 3 29.001 9zM225.996 182.003l-30.501 -6.49805
l-33.5 -7c-8 -1.66699 -17.833 -5 -29.5 -10s-20.667 -10.333 -27 -16s-12 -13.334 -17 -23.001s-7.5 -20.834 -7.5 -33.501c0 -20.667 6.16699 -36.667 18.5 -48s28.833 -17 49.5 -17c18.667 0 43.334 11.333 74.001 34c0 14 0.5 35.167 1.5 63.5s1.5 49.5 1.5 63.5z
M256.995 434.005l-8 -4l-81 109h-7l-83 -109l-8 4l89 151h11z" />
    <glyph glyph-name="atilde" unicode="&#xe3;" horiz-adv-x="351" 
d="M347 9c-13.333 -12.667 -34.6699 -18.9971 -64.0029 -18.9971c-19.333 0 -33.333 4.5 -42 13.5s-14.667 23.5 -18 43.5c-18 -14 -31 -23.667 -39 -29s-19.833 -11.166 -35.5 -17.499s-31.167 -9.5 -46.5 -9.5c-20 0 -37.333 7.83301 -52 23.5s-22 33.5 -22 53.5
c0 14.667 3.5 28.167 10.5 40.5s15.167 22.166 24.5 29.499s22.333 14.166 39 20.499s30.5 10.833 41.5 13.5l45 10.5l37.5 8.5c1.33301 37.333 2 65.333 2 84c0 23.333 -8 41.833 -24 55.5s-35.667 20.5 -59 20.5c-14.667 0 -30.5 -3 -47.5 -9s-28.833 -14 -35.5 -24
c1.33301 -1.33301 3.83301 -3.5 7.5 -6.5s6.33398 -5.5 8.00098 -7.5l6.5 -7.5c2.66699 -3 4.5 -6 5.5 -9s1.5 -6.16699 1.5 -9.5c0 -8.66699 -3 -16 -9 -22s-13.333 -9 -22 -9c-7.33301 0 -14.166 2.83301 -20.499 8.5s-9.5 12.167 -9.5 19.5c0 8 2.33301 16 7 24
c12 22.667 30.333 41.667 55 57s49.667 23 75 23c40 0 69.5 -9 88.5 -27s28.5 -47.333 28.5 -88c0 -18.667 -1.16699 -47.334 -3.5 -86.001s-3.5 -67.334 -3.5 -86.001v-5c-0.666992 -54.667 12 -82 38 -82c8.66699 0 18.334 3 29.001 9zM225.996 182.003l-30.501 -6.49805
l-33.5 -7c-8 -1.66699 -17.833 -5 -29.5 -10s-20.667 -10.333 -27 -16s-12 -13.334 -17 -23.001s-7.5 -20.834 -7.5 -33.501c0 -20.667 6.16699 -36.667 18.5 -48s28.833 -17 49.5 -17c18.667 0 43.334 11.333 74.001 34c0 14 0.5 35.167 1.5 63.5s1.5 49.5 1.5 63.5z
M285.995 507.005c-4.66699 -20.667 -13.165 -36.832 -25.498 -48.499s-25.5 -17.5 -39.5 -17.5c-10.667 0 -26.5 7.16699 -47.5 21.5s-36.833 21.5 -47.5 21.5c-18.667 0 -34.334 -11.667 -47.001 -35h-6c18.667 41.333 44.667 62 78 62c10.667 0 26 -6.66699 46 -20
s35.667 -20 47 -20c9.33301 0 16.666 2.66699 21.999 8s10 14.666 14 27.999h6z" />
    <glyph glyph-name="adieresis" unicode="&#xe4;" horiz-adv-x="351" 
d="M347 9c-13.333 -12.667 -34.6699 -18.9971 -64.0029 -18.9971c-19.333 0 -33.333 4.5 -42 13.5s-14.667 23.5 -18 43.5c-18 -14 -31 -23.667 -39 -29s-19.833 -11.166 -35.5 -17.499s-31.167 -9.5 -46.5 -9.5c-20 0 -37.333 7.83301 -52 23.5s-22 33.5 -22 53.5
c0 14.667 3.5 28.167 10.5 40.5s15.167 22.166 24.5 29.499s22.333 14.166 39 20.499s30.5 10.833 41.5 13.5l45 10.5l37.5 8.5c1.33301 37.333 2 65.333 2 84c0 23.333 -8 41.833 -24 55.5s-35.667 20.5 -59 20.5c-14.667 0 -30.5 -3 -47.5 -9s-28.833 -14 -35.5 -24
c1.33301 -1.33301 3.83301 -3.5 7.5 -6.5s6.33398 -5.5 8.00098 -7.5l6.5 -7.5c2.66699 -3 4.5 -6 5.5 -9s1.5 -6.16699 1.5 -9.5c0 -8.66699 -3 -16 -9 -22s-13.333 -9 -22 -9c-7.33301 0 -14.166 2.83301 -20.499 8.5s-9.5 12.167 -9.5 19.5c0 8 2.33301 16 7 24
c12 22.667 30.333 41.667 55 57s49.667 23 75 23c40 0 69.5 -9 88.5 -27s28.5 -47.333 28.5 -88c0 -18.667 -1.16699 -47.334 -3.5 -86.001s-3.5 -67.334 -3.5 -86.001v-5c-0.666992 -54.667 12 -82 38 -82c8.66699 0 18.334 3 29.001 9zM225.996 182.003l-30.501 -6.49805
l-33.5 -7c-8 -1.66699 -17.833 -5 -29.5 -10s-20.667 -10.333 -27 -16s-12 -13.334 -17 -23.001s-7.5 -20.834 -7.5 -33.501c0 -20.667 6.16699 -36.667 18.5 -48s28.833 -17 49.5 -17c18.667 0 43.334 11.333 74.001 34c0 14 0.5 35.167 1.5 63.5s1.5 49.5 1.5 63.5z
M286.995 466.005c0 -9.33301 -3.16504 -17.166 -9.49805 -23.499s-13.833 -9.5 -22.5 -9.5s-16.334 3.16699 -23.001 9.5s-10 14.166 -10 23.499c0 8.66699 3.16699 16.167 9.5 22.5s14.166 9.5 23.499 9.5c8.66699 0 16.167 -3 22.5 -9s9.5 -13.667 9.5 -23z
M116.997 466.005c0 -9.33301 -3.16504 -17.166 -9.49805 -23.499s-13.833 -9.5 -22.5 -9.5s-16.334 3.16699 -23.001 9.5s-10 14.166 -10 23.499c0 8.66699 3.16699 16.167 9.5 22.5s14.166 9.5 23.499 9.5c8.66699 0 16.167 -3 22.5 -9s9.5 -13.667 9.5 -23z" />
    <glyph glyph-name="aring" unicode="&#xe5;" horiz-adv-x="351" 
d="M347 9c-13.333 -12.667 -34.6699 -18.9971 -64.0029 -18.9971c-19.333 0 -33.333 4.5 -42 13.5s-14.667 23.5 -18 43.5c-18 -14 -31 -23.667 -39 -29s-19.833 -11.166 -35.5 -17.499s-31.167 -9.5 -46.5 -9.5c-20 0 -37.333 7.83301 -52 23.5s-22 33.5 -22 53.5
c0 14.667 3.5 28.167 10.5 40.5s15.167 22.166 24.5 29.499s22.333 14.166 39 20.499s30.5 10.833 41.5 13.5l45 10.5l37.5 8.5c1.33301 37.333 2 65.333 2 84c0 23.333 -8 41.833 -24 55.5s-35.667 20.5 -59 20.5c-14.667 0 -30.5 -3 -47.5 -9s-28.833 -14 -35.5 -24
c1.33301 -1.33301 3.83301 -3.5 7.5 -6.5s6.33398 -5.5 8.00098 -7.5l6.5 -7.5c2.66699 -3 4.5 -6 5.5 -9s1.5 -6.16699 1.5 -9.5c0 -8.66699 -3 -16 -9 -22s-13.333 -9 -22 -9c-7.33301 0 -14.166 2.83301 -20.499 8.5s-9.5 12.167 -9.5 19.5c0 8 2.33301 16 7 24
c12 22.667 30.333 41.667 55 57s49.667 23 75 23c40 0 69.5 -9 88.5 -27s28.5 -47.333 28.5 -88c0 -18.667 -1.16699 -47.334 -3.5 -86.001s-3.5 -67.334 -3.5 -86.001v-5c-0.666992 -54.667 12 -82 38 -82c8.66699 0 18.334 3 29.001 9zM225.996 182.003l-30.501 -6.49805
l-33.5 -7c-8 -1.66699 -17.833 -5 -29.5 -10s-20.667 -10.333 -27 -16s-12 -13.334 -17 -23.001s-7.5 -20.834 -7.5 -33.501c0 -20.667 6.16699 -36.667 18.5 -48s28.833 -17 49.5 -17c18.667 0 43.334 11.333 74.001 34c0 14 0.5 35.167 1.5 63.5s1.5 49.5 1.5 63.5z
M230.995 502.005c0 -18 -6.5 -33.5 -19.5 -46.5s-28.5 -19.5 -46.5 -19.5s-33.5 6.5 -46.5 19.5s-19.5 28.5 -19.5 46.5s6.5 33.5 19.5 46.5s28.5 19.5 46.5 19.5s33.5 -6.5 46.5 -19.5s19.5 -28.5 19.5 -46.5zM217.995 502.005c0 14.667 -5.16699 27.167 -15.5 37.5
s-22.833 15.5 -37.5 15.5s-27.167 -5.16699 -37.5 -15.5s-15.5 -22.833 -15.5 -37.5s5.16699 -27.167 15.5 -37.5s22.833 -15.5 37.5 -15.5s27.167 5.16699 37.5 15.5s15.5 22.833 15.5 37.5z" />
    <glyph glyph-name="ae" unicode="&#xe6;" horiz-adv-x="573" 
d="M553 225l-263.003 0.00488281v-16c0 -52 12.667 -98.333 38 -139s58.333 -61 99 -61c43.333 0 81.333 23 114 69l7 -5c-14.667 -24.667 -34.5 -44.667 -59.5 -60s-50.5 -23 -76.5 -23c-69.333 0 -120.333 25.667 -153 77c-8 -8.66699 -19 -18.334 -33 -29.001
c-23.333 -17.333 -44 -29.5 -62 -36.5s-38.667 -10.5 -62 -10.5c-21.333 0 -39 8.16699 -53 24.5s-21 33.833 -21 52.5c0 28.667 12.667 52.334 38 71.001c18 14 50.333 27 97 39c4 1.33301 14.5 3.66602 31.5 6.99902s27.5 5.33301 31.5 6c1.33301 45.333 2 73.333 2 84
c0 27.333 -9 46.833 -27 58.5s-36.667 17.5 -56 17.5c-15.333 0 -31.5 -3 -48.5 -9s-28.5 -14 -34.5 -24c0.666992 -0.666992 3.16699 -2.83398 7.5 -6.50098s7.83301 -6.83398 10.5 -9.50098s5.16699 -6.16699 7.5 -10.5s3.5 -8.83301 3.5 -13.5c0 -8.66699 -3 -16 -9 -22
s-13.333 -9 -22 -9s-15.834 3 -21.501 9s-8.5 12.333 -8.5 19s2.33301 14.667 7 24c14 25.333 33.333 45.166 58 59.499s49.334 21.5 74.001 21.5c54 0 89.667 -18.667 107 -56c32.667 38 75.334 57 128.001 57c36.667 0 65.834 -8.16699 87.501 -24.5
s36.834 -35.5 45.501 -57.5c10.667 -26.667 16 -51.334 16 -74.001zM495.997 235.005c-4 43.333 -13.833 77.001 -29.5 101.001s-36.167 36 -61.5 36c-41.333 -0.666992 -70.5 -12.834 -87.5 -36.501s-26.167 -57.167 -27.5 -100.5h206zM253.997 73.0059
c-18.667 32.667 -28.0029 69 -28.0029 109c-1.33301 -0.666992 -6 -1.66699 -14 -3s-16.667 -3 -26 -5s-17.666 -4 -24.999 -6c-28 -8 -48.333 -17.667 -61 -29s-19 -29 -19 -53c0 -20.667 6.66699 -36.667 20 -48s30 -17 50 -17c16.667 0 34.834 4.83301 54.501 14.5
s35.834 22.167 48.501 37.5z" />
    <glyph glyph-name="ccedilla" unicode="&#xe7;" horiz-adv-x="359" 
d="M345 72c-8.66699 -16 -25.165 -33.499 -49.498 -52.499s-51.833 -29.5 -82.5 -31.5c-12 -16.667 -18 -31.667 -18 -45c0 -7.33301 10.167 -21.833 30.5 -43.5s30.5 -38.167 30.5 -49.5c0 -14.667 -5.83301 -26.5 -17.5 -35.5s-24.834 -13.5 -39.501 -13.5
c-20.667 0 -39.334 11.333 -56.001 34l6 5c9.33301 -10 23.333 -15 42 -15c24 0 36 11.667 36 35c0 9.33301 -7.5 23.666 -22.5 42.999s-22.5 33 -22.5 41c0 12.667 6.33301 27.334 19 44.001c-48 1.33301 -89.667 20 -125 56s-53 83.667 -53 143
c0 54.667 19.667 100.834 59 138.501s85 56.5 137 56.5c31.333 0 59.833 -6.33301 85.5 -19s38.5 -27.334 38.5 -44.001c0 -9.33301 -3.16699 -17.5 -9.5 -24.5s-14.166 -10.5 -23.499 -10.5c-8.66699 0 -16 3 -22 9s-9 13.333 -9 22c0 12.667 5.66699 23 17 31
c-19.333 18.667 -44.666 28 -75.999 28c-34.667 0 -65 -16.167 -91 -48.5s-39 -71.166 -39 -116.499c0 -58.667 14.167 -106.834 42.5 -144.501s60.833 -56.5 97.5 -56.5c21.333 0 41.666 7.16699 60.999 21.5s34.666 30.166 45.999 47.499z" />
    <glyph glyph-name="egrave" unicode="&#xe8;" horiz-adv-x="369" 
d="M349 225l-263.003 -0.000976562v-16c0 -29.333 4.5 -58.5 13.5 -87.5s24.5 -55 46.5 -78s48 -34.5 78 -34.5c44 0 81.667 23 113 69l7 -5c-14 -24 -33.5 -43.833 -58.5 -59.5s-50.833 -23.5 -77.5 -23.5c-57.333 0 -102.5 18.333 -135.5 55s-49.5 84.334 -49.5 143.001
c0 53.333 16.333 98.833 49 136.5s75.334 56.5 128.001 56.5c30.667 0 57.834 -6.83301 81.501 -20.5s40.834 -34.167 51.501 -61.5c10.667 -25.333 16 -50 16 -74zM291.997 234.999c-8.66699 91.333 -39 137 -91 137c-41.333 0 -70.333 -12 -87 -36s-26 -57.667 -28 -101
h206zM205.997 435.999l-7 -2l-97 174l20 20h31z" />
    <glyph glyph-name="eacute" unicode="&#xe9;" horiz-adv-x="369" 
d="M349 225l-263.003 -0.000976562v-16c0 -29.333 4.5 -58.5 13.5 -87.5s24.5 -55 46.5 -78s48 -34.5 78 -34.5c44 0 81.667 23 113 69l7 -5c-14 -24 -33.5 -43.833 -58.5 -59.5s-50.833 -23.5 -77.5 -23.5c-57.333 0 -102.5 18.333 -135.5 55s-49.5 84.334 -49.5 143.001
c0 53.333 16.333 98.833 49 136.5s75.334 56.5 128.001 56.5c30.667 0 57.834 -6.83301 81.501 -20.5s40.834 -34.167 51.501 -61.5c10.667 -25.333 16 -50 16 -74zM291.997 234.999c-8.66699 91.333 -39 137 -91 137c-41.333 0 -70.333 -12 -87 -36s-26 -57.667 -28 -101
h206zM195.997 433.999l-7 2l53 192h31l20 -20z" />
    <glyph glyph-name="ecircumflex" unicode="&#xea;" horiz-adv-x="369" 
d="M349 225l-263.003 -0.000976562v-16c0 -29.333 4.5 -58.5 13.5 -87.5s24.5 -55 46.5 -78s48 -34.5 78 -34.5c44 0 81.667 23 113 69l7 -5c-14 -24 -33.5 -43.833 -58.5 -59.5s-50.833 -23.5 -77.5 -23.5c-57.333 0 -102.5 18.333 -135.5 55s-49.5 84.334 -49.5 143.001
c0 53.333 16.333 98.833 49 136.5s75.334 56.5 128.001 56.5c30.667 0 57.834 -6.83301 81.501 -20.5s40.834 -34.167 51.501 -61.5c10.667 -25.333 16 -50 16 -74zM291.997 234.999c-8.66699 91.333 -39 137 -91 137c-41.333 0 -70.333 -12 -87 -36s-26 -57.667 -28 -101
h206zM277.997 428.999l-8 -4l-81 109h-7l-83 -109l-8 4l89 151h11z" />
    <glyph glyph-name="edieresis" unicode="&#xeb;" horiz-adv-x="369" 
d="M349 225l-263.003 -0.000976562v-16c0 -29.333 4.5 -58.5 13.5 -87.5s24.5 -55 46.5 -78s48 -34.5 78 -34.5c44 0 81.667 23 113 69l7 -5c-14 -24 -33.5 -43.833 -58.5 -59.5s-50.833 -23.5 -77.5 -23.5c-57.333 0 -102.5 18.333 -135.5 55s-49.5 84.334 -49.5 143.001
c0 53.333 16.333 98.833 49 136.5s75.334 56.5 128.001 56.5c30.667 0 57.834 -6.83301 81.501 -20.5s40.834 -34.167 51.501 -61.5c10.667 -25.333 16 -50 16 -74zM291.997 234.999c-8.66699 91.333 -39 137 -91 137c-41.333 0 -70.333 -12 -87 -36s-26 -57.667 -28 -101
h206zM307.997 465.999c0 -9.33301 -3.16699 -17.166 -9.5 -23.499s-13.833 -9.5 -22.5 -9.5c-9.33301 0 -17.166 3.16699 -23.499 9.5s-9.5 14.166 -9.5 23.499c0 8.66699 3.16699 16.167 9.5 22.5s14.166 9.5 23.499 9.5s17 -3 23 -9s9 -13.667 9 -23zM137.997 465.999
c0 -9.33301 -3.16699 -17.166 -9.5 -23.499s-13.833 -9.5 -22.5 -9.5c-9.33301 0 -17.166 3.16699 -23.499 9.5s-9.5 14.166 -9.5 23.499c0 8.66699 3.16699 16.167 9.5 22.5s14.166 9.5 23.499 9.5s17 -3 23 -9s9 -13.667 9 -23z" />
    <glyph glyph-name="igrave" unicode="&#xec;" horiz-adv-x="197" 
d="M175 0h-152v10h25c9.33301 0 15.5 1.66699 18.5 5s4.5 11 4.5 23v279c0 11.333 -0.166992 19.333 -0.5 24s-2.5 9.16699 -6.5 13.5s-10.333 6.5 -19 6.5h-22v10h108v-361h44v-10zM121 436l-7 -2l-97 174l20 20h31z" />
    <glyph glyph-name="iacute" unicode="&#xed;" horiz-adv-x="197" 
d="M175 0h-152v10h25c9.33301 0 15.5 1.66699 18.5 5s4.5 11 4.5 23v279c0 11.333 -0.166992 19.333 -0.5 24s-2.5 9.16699 -6.5 13.5s-10.333 6.5 -19 6.5h-22v10h108v-361h44v-10zM73 434l-7 2l53 192h31l20 -20z" />
    <glyph glyph-name="icircumflex" unicode="&#xee;" horiz-adv-x="197" 
d="M175 0h-152v10h25c9.33301 0 15.5 1.66699 18.5 5s4.5 11 4.5 23v279c0 11.333 -0.166992 19.333 -0.5 24s-2.5 9.16699 -6.5 13.5s-10.333 6.5 -19 6.5h-22v10h108v-361h44v-10zM186 434l-8 -4l-81 109h-7l-83 -109l-8 4l89 151h11z" />
    <glyph glyph-name="idieresis" unicode="&#xef;" horiz-adv-x="197" 
d="M171 466c0 -9.33301 -3.16504 -17.166 -9.49805 -23.499s-13.833 -9.5 -22.5 -9.5s-16.334 3.16699 -23.001 9.5s-10 14.166 -10 23.499c0 8.66699 3.16699 16.167 9.5 22.5s14.166 9.5 23.499 9.5c8.66699 0 16.167 -3 22.5 -9s9.5 -13.667 9.5 -23zM72.002 466
c0 -9.33301 -3.16699 -17.166 -9.5 -23.499s-13.833 -9.5 -22.5 -9.5c-9.33301 0 -17.166 3.16699 -23.499 9.5s-9.5 14.166 -9.5 23.499c0 8.66699 3.16699 16.167 9.5 22.5s14.166 9.5 23.499 9.5s17 -3 23 -9s9 -13.667 9 -23zM175.002 0h-152v10h25
c9.33301 0 15.5 1.66699 18.5 5s4.5 11 4.5 23v279c0 11.333 -0.166992 19.333 -0.5 24s-2.5 9.16699 -6.5 13.5s-10.333 6.5 -19 6.5h-22v10h108v-361h44v-10z" />
    <glyph glyph-name="eth" unicode="&#xf0;" 
d="M337 655l-98.999 -58.999c50.667 -48.667 91.834 -107.167 123.501 -175.5s47.5 -140.166 47.5 -215.499c0 -64 -18.667 -116.167 -56 -156.5s-86 -60.5 -146 -60.5c-51.333 0 -94.833 18.5 -130.5 55.5s-53.5 83.167 -53.5 138.5c0 52 19.5 98.5 58.5 139.5
s83.167 61.5 132.5 61.5s87.666 -23.667 114.999 -71c-14.667 103.333 -53.334 193.333 -116.001 270l-105 -63l-5 7l105 62c-31.333 37.333 -68.333 68.666 -111 93.999l4 6c44 -16.667 87.667 -45.334 131 -86.001l100 59zM344.001 187.001
c0 54.667 -12.3311 99.501 -36.998 134.501s-56 52.5 -94 52.5c-40 0 -70.667 -19 -92 -57s-32 -81.333 -32 -130c0 -55.333 12.667 -100.833 38 -136.5s53.333 -53.5 84 -53.5c25.333 0 47.166 5.66699 65.499 17s32.166 26.666 41.499 45.999s16 39.333 20 60s6 43 6 67z
" />
    <glyph glyph-name="ntilde" unicode="&#xf1;" horiz-adv-x="438" 
d="M421 0h-162v10h35c8.66699 0 14.167 1.5 16.5 4.5s3.5 10.833 3.5 23.5v185c0 20 -0.166992 35.333 -0.5 46s-1.83301 22.5 -4.5 35.5s-6.5 22.5 -11.5 28.5s-12 11.167 -21 15.5s-20.5 6.5 -34.5 6.5c-31.333 0 -68.666 -18.333 -111.999 -55v-290h42v-10h-150v10h22
c11.333 0 18.5 1.5 21.5 4.5s4.5 9.5 4.5 19.5v284c0 16.667 -1.33301 28 -4 34s-10.334 9 -23.001 9h-21v10h108v-61c14.667 14.667 35.667 30.5 63 47.5s51.666 25.5 72.999 25.5c42.667 0 71.334 -11 86.001 -33s22 -57 22 -105v-235h47v-10zM341 567
c-4.66699 -20.667 -13.165 -36.832 -25.498 -48.499s-25.5 -17.5 -39.5 -17.5c-10.667 0 -26.5 7.16699 -47.5 21.5s-36.833 21.5 -47.5 21.5c-18.667 0 -34.334 -11.667 -47.001 -35h-6c18.667 41.333 44.667 62 78 62c10.667 0 26 -6.66699 46 -20s35.667 -20 47 -20
c9.33301 0 16.666 2.66699 21.999 8s10 14.666 14 27.999h6z" />
    <glyph glyph-name="ograve" unicode="&#xf2;" 
d="M409 185c0 -50.667 -19.167 -96.166 -57.5 -136.499s-86.5 -60.5 -144.5 -60.5c-51.333 0 -94.833 18.5 -130.5 55.5s-53.5 83.167 -53.5 138.5c0 52 19.5 98.5 58.5 139.5s83.167 61.5 132.5 61.5c62 0 110 -19.333 144 -58s51 -85.334 51 -140.001zM344 187.001
c0 54.667 -12.3311 99.501 -36.998 134.501s-56 52.5 -94 52.5c-40 0 -70.667 -19 -92 -57s-32 -81.333 -32 -130c0 -55.333 12.667 -100.833 38 -136.5s53.333 -53.5 84 -53.5c25.333 0 47.166 5.66699 65.499 17s32.166 26.666 41.499 45.999s16 39.333 20 60s6 43 6 67z
M242.002 436.002l-7 -2l-97 174l20 20h31z" />
    <glyph glyph-name="oacute" unicode="&#xf3;" 
d="M409 185c0 -50.667 -19.167 -96.166 -57.5 -136.499s-86.5 -60.5 -144.5 -60.5c-51.333 0 -94.833 18.5 -130.5 55.5s-53.5 83.167 -53.5 138.5c0 52 19.5 98.5 58.5 139.5s83.167 61.5 132.5 61.5c62 0 110 -19.333 144 -58s51 -85.334 51 -140.001zM344 187.001
c0 54.667 -12.3311 99.501 -36.998 134.501s-56 52.5 -94 52.5c-40 0 -70.667 -19 -92 -57s-32 -81.333 -32 -130c0 -55.333 12.667 -100.833 38 -136.5s53.333 -53.5 84 -53.5c25.333 0 47.166 5.66699 65.499 17s32.166 26.666 41.499 45.999s16 39.333 20 60s6 43 6 67z
M235.002 434.002l-7 2l53 192h31l20 -20z" />
    <glyph glyph-name="ocircumflex" unicode="&#xf4;" 
d="M409 185c0 -50.667 -19.167 -96.166 -57.5 -136.499s-86.5 -60.5 -144.5 -60.5c-51.333 0 -94.833 18.5 -130.5 55.5s-53.5 83.167 -53.5 138.5c0 52 19.5 98.5 58.5 139.5s83.167 61.5 132.5 61.5c62 0 110 -19.333 144 -58s51 -85.334 51 -140.001zM344 187.001
c0 54.667 -12.3311 99.501 -36.998 134.501s-56 52.5 -94 52.5c-40 0 -70.667 -19 -92 -57s-32 -81.333 -32 -130c0 -55.333 12.667 -100.833 38 -136.5s53.333 -53.5 84 -53.5c25.333 0 47.166 5.66699 65.499 17s32.166 26.666 41.499 45.999s16 39.333 20 60s6 43 6 67z
M326.002 434.002l-8 -4l-81 109h-7l-83 -109l-8 4l89 151h11z" />
    <glyph glyph-name="otilde" unicode="&#xf5;" 
d="M409 185c0 -50.667 -19.167 -96.166 -57.5 -136.499s-86.5 -60.5 -144.5 -60.5c-51.333 0 -94.833 18.5 -130.5 55.5s-53.5 83.167 -53.5 138.5c0 52 19.5 98.5 58.5 139.5s83.167 61.5 132.5 61.5c62 0 110 -19.333 144 -58s51 -85.334 51 -140.001zM344 187.001
c0 54.667 -12.3311 99.501 -36.998 134.501s-56 52.5 -94 52.5c-40 0 -70.667 -19 -92 -57s-32 -81.333 -32 -130c0 -55.333 12.667 -100.833 38 -136.5s53.333 -53.5 84 -53.5c25.333 0 47.166 5.66699 65.499 17s32.166 26.666 41.499 45.999s16 39.333 20 60s6 43 6 67z
M334.002 507.002c-4.66699 -20.667 -13.165 -36.832 -25.498 -48.499s-25.5 -17.5 -39.5 -17.5c-10.667 0 -26.5 7.16699 -47.5 21.5s-36.833 21.5 -47.5 21.5c-18.667 0 -34.334 -11.667 -47.001 -35h-6c18.667 41.333 44.667 62 78 62c10.667 0 26 -6.66699 46 -20
s35.667 -20 47 -20c9.33301 0 16.666 2.66699 21.999 8s10 14.666 14 27.999h6z" />
    <glyph glyph-name="odieresis" unicode="&#xf6;" 
d="M409 185c0 -50.667 -19.167 -96.166 -57.5 -136.499s-86.5 -60.5 -144.5 -60.5c-51.333 0 -94.833 18.5 -130.5 55.5s-53.5 83.167 -53.5 138.5c0 52 19.5 98.5 58.5 139.5s83.167 61.5 132.5 61.5c62 0 110 -19.333 144 -58s51 -85.334 51 -140.001zM344 187.001
c0 54.667 -12.3311 99.501 -36.998 134.501s-56 52.5 -94 52.5c-40 0 -70.667 -19 -92 -57s-32 -81.333 -32 -130c0 -55.333 12.667 -100.833 38 -136.5s53.333 -53.5 84 -53.5c25.333 0 47.166 5.66699 65.499 17s32.166 26.666 41.499 45.999s16 39.333 20 60s6 43 6 67z
M347.002 466.002c0 -9.33301 -3.16504 -17.166 -9.49805 -23.499s-13.833 -9.5 -22.5 -9.5s-16.334 3.16699 -23.001 9.5s-10 14.166 -10 23.499c0 8.66699 3.16699 16.167 9.5 22.5s14.166 9.5 23.499 9.5c8.66699 0 16.167 -3 22.5 -9s9.5 -13.667 9.5 -23z
M177.004 466.002c0 -9.33301 -3.16504 -17.166 -9.49805 -23.499s-13.833 -9.5 -22.5 -9.5s-16.334 3.16699 -23.001 9.5s-10 14.166 -10 23.499c0 8.66699 3.16699 16.167 9.5 22.5s14.166 9.5 23.499 9.5c8.66699 0 16.167 -3 22.5 -9s9.5 -13.667 9.5 -23z" />
    <glyph glyph-name="divide" unicode="&#xf7;" horiz-adv-x="495" 
d="M291 434c0 -12 -4 -22 -12 -30s-17.667 -12 -29 -12s-20.833 4 -28.5 12s-11.5 18 -11.5 30c0 11.333 4 21.333 12 30s17.333 13 28 13c11.333 0 21 -4.33301 29 -13s12 -18.667 12 -30zM460 269h-425v50h425v-50zM291 143c0 -12 -4 -22 -12 -30s-17.667 -12 -29 -12
s-20.833 4 -28.5 12s-11.5 18 -11.5 30s3.83301 22 11.5 30s17.167 12 28.5 12s21 -4 29 -12s12 -18 12 -30z" />
    <glyph glyph-name="oslash" unicode="&#xf8;" 
d="M409 185c0 -50.667 -19.167 -96.168 -57.5 -136.501s-86.5 -60.5 -144.5 -60.5c-25.333 0 -50.333 5.33301 -75 16l-48 -86l-9 4l48 86c-30 16 -54.167 39.333 -72.5 70s-27.5 65.334 -27.5 104.001c0 52 19.5 98.5 58.5 139.5s83.167 61.5 132.5 61.5
c40.667 0 75.667 -9 105 -27l66 116l9 -4l-66 -118c26 -17.333 46 -40.833 60 -70.5s21 -61.167 21 -94.5zM89 186.999c0 -64 16.333 -114.667 49 -152l165 292c-24.667 31.333 -54.667 47 -90 47c-40 0 -70.667 -19 -92 -57s-32 -81.333 -32 -130zM344 186.999
c0 52.667 -11.665 96.334 -34.998 131.001l-163 -291c21.333 -20 43 -30 65 -30c25.333 0 47.166 5.66699 65.499 17s32.166 26.666 41.499 45.999s16 39.333 20 60s6 43 6 67z" />
    <glyph glyph-name="ugrave" unicode="&#xf9;" horiz-adv-x="424" 
d="M400 0l-105.001 -0.000976562v61c-18.667 -15.333 -33.167 -26.666 -43.5 -33.999s-25 -15.333 -44 -24s-36.5 -13 -52.5 -13c-60.667 0 -91 49 -91 147v183c0 18.667 -1.5 30.167 -4.5 34.5s-10.167 6.5 -21.5 6.5h-22v10h108v-238c0 -14.667 0.5 -27 1.5 -37
s3.33301 -21.5 7 -34.5s10 -22.833 19 -29.5s20.5 -10 34.5 -10c40 0 76.333 17 109 51v262c0 12 -1.83301 19.333 -5.5 22s-12.5 4 -26.5 4h-22v10h114v-323c0 -17.333 2.33301 -28 7 -32s14.334 -6 29.001 -6h9v-10zM218.999 435.999l-7 -2l-97 174l20 20h31z" />
    <glyph glyph-name="uacute" unicode="&#xfa;" horiz-adv-x="424" 
d="M400 0l-105.001 -0.000976562v61c-18.667 -15.333 -33.167 -26.666 -43.5 -33.999s-25 -15.333 -44 -24s-36.5 -13 -52.5 -13c-60.667 0 -91 49 -91 147v183c0 18.667 -1.5 30.167 -4.5 34.5s-10.167 6.5 -21.5 6.5h-22v10h108v-238c0 -14.667 0.5 -27 1.5 -37
s3.33301 -21.5 7 -34.5s10 -22.833 19 -29.5s20.5 -10 34.5 -10c40 0 76.333 17 109 51v262c0 12 -1.83301 19.333 -5.5 22s-12.5 4 -26.5 4h-22v10h114v-323c0 -17.333 2.33301 -28 7 -32s14.334 -6 29.001 -6h9v-10zM201.999 433.999l-7 2l53 192h31l20 -20z" />
    <glyph glyph-name="ucircumflex" unicode="&#xfb;" horiz-adv-x="424" 
d="M400 0l-105.001 -0.000976562v61c-18.667 -15.333 -33.167 -26.666 -43.5 -33.999s-25 -15.333 -44 -24s-36.5 -13 -52.5 -13c-60.667 0 -91 49 -91 147v183c0 18.667 -1.5 30.167 -4.5 34.5s-10.167 6.5 -21.5 6.5h-22v10h108v-238c0 -14.667 0.5 -27 1.5 -37
s3.33301 -21.5 7 -34.5s10 -22.833 19 -29.5s20.5 -10 34.5 -10c40 0 76.333 17 109 51v262c0 12 -1.83301 19.333 -5.5 22s-12.5 4 -26.5 4h-22v10h114v-323c0 -17.333 2.33301 -28 7 -32s14.334 -6 29.001 -6h9v-10zM286.999 433.999l-8 -4l-81 109h-7l-83 -109l-8 4
l89 151h11z" />
    <glyph glyph-name="udieresis" unicode="&#xfc;" horiz-adv-x="424" 
d="M400 0l-105.001 -0.000976562v61c-18.667 -15.333 -33.167 -26.666 -43.5 -33.999s-25 -15.333 -44 -24s-36.5 -13 -52.5 -13c-60.667 0 -91 49 -91 147v183c0 18.667 -1.5 30.167 -4.5 34.5s-10.167 6.5 -21.5 6.5h-22v10h108v-238c0 -14.667 0.5 -27 1.5 -37
s3.33301 -21.5 7 -34.5s10 -22.833 19 -29.5s20.5 -10 34.5 -10c40 0 76.333 17 109 51v262c0 12 -1.83301 19.333 -5.5 22s-12.5 4 -26.5 4h-22v10h114v-323c0 -17.333 2.33301 -28 7 -32s14.334 -6 29.001 -6h9v-10zM342.999 465.999
c0 -9.33301 -3.16504 -17.166 -9.49805 -23.499s-13.833 -9.5 -22.5 -9.5s-16.334 3.16699 -23.001 9.5s-10 14.166 -10 23.499c0 8.66699 3.16699 16.167 9.5 22.5s14.166 9.5 23.499 9.5c8.66699 0 16.167 -3 22.5 -9s9.5 -13.667 9.5 -23zM113.001 465.999
c0 -9.33301 -3.16504 -17.166 -9.49805 -23.499s-13.833 -9.5 -22.5 -9.5s-16.334 3.16699 -23.001 9.5s-10 14.166 -10 23.499c0 8.66699 3.16699 16.167 9.5 22.5s14.166 9.5 23.499 9.5c8.66699 0 16.167 -3 22.5 -9s9.5 -13.667 9.5 -23z" />
    <glyph glyph-name="yacute" unicode="&#xfd;" horiz-adv-x="366" 
d="M377 361l-22.9961 -0.00292969c-2.66699 0 -4.83398 -0.166992 -6.50098 -0.5s-3.33398 -0.5 -5.00098 -0.5s-3.16699 -0.5 -4.5 -1.5s-2.5 -1.83301 -3.5 -2.5s-2.16699 -2 -3.5 -4l-3 -4.5c-0.666992 -1 -1.5 -3 -2.5 -6s-2 -5.33301 -3 -7s-2.16699 -4.66699 -3.5 -9
s-2.66602 -7.83301 -3.99902 -10.5l-215 -557c-6.66699 -18 -14.667 -32.667 -24 -44c-10 -12 -20.667 -18 -32 -18c-10 0 -17.667 3.33301 -23 10s-8 14.334 -8 23.001s3 16.5 9 23.5s13.667 10.5 23 10.5c7.33301 0 13.666 -2.83301 18.999 -8.5s8 -12.167 8 -19.5
c6.66699 4 11.667 11 15 21l92 234l-129 325c-0.666992 2.66699 -2 6.5 -4 11.5l-4 10c-0.666992 1.66699 -1.83398 4.33398 -3.50098 8.00098s-3.33398 6.16699 -5.00098 7.5l-5.5 4.5c-2 1.66699 -4.33301 2.83398 -7 3.50098s-5.66699 1 -9 1h-29v10h177v-10h-58
l107 -294l112 294h-53v10h109v-10zM216.004 433.997l-7 2l53 192h31l20 -20z" />
    <glyph glyph-name="thorn" unicode="&#xfe;" horiz-adv-x="443" 
d="M420 201c0 -57.333 -16.499 -106.499 -49.499 -147.499s-75.833 -61.5 -128.5 -61.5c-38.667 0 -77.334 15.333 -116.001 46v-332h64v-10h-172v10h22c10.667 0 17.667 1.16699 21 3.5s5 9.16602 5 20.499v916c0 8.66699 -1.33301 14.5 -4 17.5s-8.33398 4.5 -17.001 4.5
h-27v10h108v-351c52 38.667 95 58 129 58c56.667 0 98.334 -18.167 125.001 -54.5s40 -79.5 40 -129.5zM353.001 177.001c0 32 -3.33203 61.335 -9.99902 88.002s-19.334 50 -38.001 70s-42.667 30 -72 30c-34 0 -69.667 -16.667 -107 -50v-267
c31.333 -28.667 64.333 -43 99 -43c23.333 0 43.833 5.66699 61.5 17s31 26.166 40 44.499s15.667 36.666 20 54.999s6.5 36.833 6.5 55.5z" />
    <glyph glyph-name="ydieresis" unicode="&#xff;" horiz-adv-x="366" 
d="M361 466c0 -9.33301 -3.16504 -17.166 -9.49805 -23.499s-13.833 -9.5 -22.5 -9.5s-16.334 3.16699 -23.001 9.5s-10 14.166 -10 23.499c0 8.66699 3.16699 16.167 9.5 22.5s14.166 9.5 23.499 9.5c8.66699 0 16.167 -3 22.5 -9s9.5 -13.667 9.5 -23zM101.002 466
c0 -9.33301 -3.16504 -17.166 -9.49805 -23.499s-13.833 -9.5 -22.5 -9.5s-16.334 3.16699 -23.001 9.5s-10 14.166 -10 23.499c0 8.66699 3.16699 16.167 9.5 22.5s14.166 9.5 23.499 9.5c8.66699 0 16.167 -3 22.5 -9s9.5 -13.667 9.5 -23zM377.004 361
l-22.9961 -0.00292969c-2.66699 0 -4.83398 -0.166992 -6.50098 -0.5s-3.33398 -0.5 -5.00098 -0.5s-3.16699 -0.5 -4.5 -1.5s-2.5 -1.83301 -3.5 -2.5s-2.16699 -2 -3.5 -4l-3 -4.5c-0.666992 -1 -1.5 -3 -2.5 -6s-2 -5.33301 -3 -7s-2.16699 -4.66699 -3.5 -9
s-2.66602 -7.83301 -3.99902 -10.5l-215 -557c-6.66699 -18 -14.667 -32.667 -24 -44c-10 -12 -20.667 -18 -32 -18c-10 0 -17.667 3.33301 -23 10s-8 14.334 -8 23.001s3 16.5 9 23.5s13.667 10.5 23 10.5c7.33301 0 13.666 -2.83301 18.999 -8.5s8 -12.167 8 -19.5
c6.66699 4 11.667 11 15 21l92 234l-129 325c-0.666992 2.66699 -2 6.5 -4 11.5l-4 10c-0.666992 1.66699 -1.83398 4.33398 -3.50098 8.00098s-3.33398 6.16699 -5.00098 7.5l-5.5 4.5c-2 1.66699 -4.33301 2.83398 -7 3.50098s-5.66699 1 -9 1h-29v10h177v-10h-58
l107 -294l112 294h-53v10h109v-10z" />
    <glyph glyph-name="Amacron" unicode="&#x100;" horiz-adv-x="616" 
d="M87 59l233 607.001h6l196 -584c11.333 -34.667 22.5 -55.334 33.5 -62.001s34.5 -10 70.5 -10v-10h-234v10h79l-74 238h-224l-94 -238h95v-10h-184v10c32 0 54 2.66699 66 8s22.333 19 31 41zM176 258.001h217l-104 303zM422 695.001h-224v20h224v-20z" />
    <glyph glyph-name="amacron" unicode="&#x101;" horiz-adv-x="351" 
d="M347 9c-13.333 -12.667 -34.6699 -18.9971 -64.0029 -18.9971c-19.333 0 -33.333 4.5 -42 13.5s-14.667 23.5 -18 43.5c-18 -14 -31 -23.667 -39 -29s-19.833 -11.166 -35.5 -17.499s-31.167 -9.5 -46.5 -9.5c-20 0 -37.333 7.83301 -52 23.5s-22 33.5 -22 53.5
c0 14.667 3.5 28.167 10.5 40.5s15.167 22.166 24.5 29.499s22.333 14.166 39 20.499s30.5 10.833 41.5 13.5l45 10.5l37.5 8.5c1.33301 37.333 2 65.333 2 84c0 23.333 -8 41.833 -24 55.5s-35.667 20.5 -59 20.5c-14.667 0 -30.5 -3 -47.5 -9s-28.833 -14 -35.5 -24
c1.33301 -1.33301 3.83301 -3.5 7.5 -6.5s6.33398 -5.5 8.00098 -7.5l6.5 -7.5c2.66699 -3 4.5 -6 5.5 -9s1.5 -6.16699 1.5 -9.5c0 -8.66699 -3 -16 -9 -22s-13.333 -9 -22 -9c-7.33301 0 -14.166 2.83301 -20.499 8.5s-9.5 12.167 -9.5 19.5c0 8 2.33301 16 7 24
c12 22.667 30.333 41.667 55 57s49.667 23 75 23c40 0 69.5 -9 88.5 -27s28.5 -47.333 28.5 -88c0 -18.667 -1.16699 -47.334 -3.5 -86.001s-3.5 -67.334 -3.5 -86.001v-5c-0.666992 -54.667 12 -82 38 -82c8.66699 0 18.334 3 29.001 9zM225.996 182.003l-30.501 -6.49805
l-33.5 -7c-8 -1.66699 -17.833 -5 -29.5 -10s-20.667 -10.333 -27 -16s-12 -13.334 -17 -23.001s-7.5 -20.834 -7.5 -33.501c0 -20.667 6.16699 -36.667 18.5 -48s28.833 -17 49.5 -17c18.667 0 43.334 11.333 74.001 34c0 14 0.5 35.167 1.5 63.5s1.5 49.5 1.5 63.5z
M271.995 474.005h-224v20h224v-20z" />
    <glyph glyph-name="Abreve" unicode="&#x102;" horiz-adv-x="616" 
d="M87 59l233 607.001h6l196 -584c11.333 -34.667 22.5 -55.334 33.5 -62.001s34.5 -10 70.5 -10v-10h-234v10h79l-74 238h-224l-94 -238h95v-10h-184v10c32 0 54 2.66699 66 8s22.333 19 31 41zM176 258.001h217l-104 303zM423 821.001l7 -1.99902
c-4 -43.333 -16.667 -76.5 -38 -99.5s-44.333 -34.5 -69 -34.5c-30 0 -55.167 12.5 -75.5 37.5s-34.5 57.5 -42.5 97.5l6 3c10.667 -34.667 27.167 -61.834 49.5 -81.501s43.5 -29.5 63.5 -29.5c52 0 85 36.333 99 109z" />
    <glyph glyph-name="abreve" unicode="&#x103;" horiz-adv-x="351" 
d="M347 9c-13.333 -12.667 -34.6699 -18.9971 -64.0029 -18.9971c-19.333 0 -33.333 4.5 -42 13.5s-14.667 23.5 -18 43.5c-18 -14 -31 -23.667 -39 -29s-19.833 -11.166 -35.5 -17.499s-31.167 -9.5 -46.5 -9.5c-20 0 -37.333 7.83301 -52 23.5s-22 33.5 -22 53.5
c0 14.667 3.5 28.167 10.5 40.5s15.167 22.166 24.5 29.499s22.333 14.166 39 20.499s30.5 10.833 41.5 13.5l45 10.5l37.5 8.5c1.33301 37.333 2 65.333 2 84c0 23.333 -8 41.833 -24 55.5s-35.667 20.5 -59 20.5c-14.667 0 -30.5 -3 -47.5 -9s-28.833 -14 -35.5 -24
c1.33301 -1.33301 3.83301 -3.5 7.5 -6.5s6.33398 -5.5 8.00098 -7.5l6.5 -7.5c2.66699 -3 4.5 -6 5.5 -9s1.5 -6.16699 1.5 -9.5c0 -8.66699 -3 -16 -9 -22s-13.333 -9 -22 -9c-7.33301 0 -14.166 2.83301 -20.499 8.5s-9.5 12.167 -9.5 19.5c0 8 2.33301 16 7 24
c12 22.667 30.333 41.667 55 57s49.667 23 75 23c40 0 69.5 -9 88.5 -27s28.5 -47.333 28.5 -88c0 -18.667 -1.16699 -47.334 -3.5 -86.001s-3.5 -67.334 -3.5 -86.001v-5c-0.666992 -54.667 12 -82 38 -82c8.66699 0 18.334 3 29.001 9zM225.996 182.003l-30.501 -6.49805
l-33.5 -7c-8 -1.66699 -17.833 -5 -29.5 -10s-20.667 -10.333 -27 -16s-12 -13.334 -17 -23.001s-7.5 -20.834 -7.5 -33.501c0 -20.667 6.16699 -36.667 18.5 -48s28.833 -17 49.5 -17c18.667 0 43.334 11.333 74.001 34c0 14 0.5 35.167 1.5 63.5s1.5 49.5 1.5 63.5z
M270.995 557.005l7 -1.99902c-4 -43.333 -16.667 -76.5 -38 -99.5s-44.333 -34.5 -69 -34.5c-30 0 -55.167 12.5 -75.5 37.5s-34.5 57.5 -42.5 97.5l6 3c10.667 -34.667 27.167 -61.834 49.5 -81.501s43.5 -29.5 63.5 -29.5c52 0 85 36.333 99 109z" />
    <glyph glyph-name="Aogonek" unicode="&#x104;" horiz-adv-x="616" 
d="M601 -127l3.99902 -3.99902c-12.667 -16.667 -29.834 -32.167 -51.501 -46.5s-44.167 -21.5 -67.5 -21.5c-22.667 0 -40.5 6.16699 -53.5 18.5s-19.5 27.833 -19.5 46.5c0 28.667 13 55.667 39 81s57.333 43 94 53h-154v10h79l-74 238h-224l-94 -238h95v-10h-184v10
c32 0 54 2.66699 66 8s22.333 19 31 41l233 607h6l196 -584c11.333 -34.667 22.5 -55.334 33.5 -62.001s34.5 -10 70.5 -10v-10h-46c-31.333 -4 -59.166 -17.833 -83.499 -41.5s-36.5 -49.5 -36.5 -77.5c0 -15.333 4.66699 -28.833 14 -40.5s21 -17.5 35 -17.5
c30.667 0 61.334 16.667 92.001 50zM175.999 258.001h217l-104 303z" />
    <glyph glyph-name="aogonek" unicode="&#x105;" horiz-adv-x="351" 
d="M347 9c-11.333 -9.33301 -26.0029 -14.9971 -44.0029 -16.9971c-28 -8 -51.833 -23 -71.5 -45s-29.5 -45.333 -29.5 -70c0 -15.333 4.66699 -28.833 14 -40.5s21 -17.5 35 -17.5c30.667 0 61.334 16.667 92.001 50l4 -4c-12.667 -16.667 -29.834 -32.167 -51.501 -46.5
s-44.167 -21.5 -67.5 -21.5c-22.667 0 -40.5 6.16699 -53.5 18.5s-19.5 27.833 -19.5 46.5c0 26 11.167 51 33.5 75s49.833 42 82.5 54c-15.333 1.33301 -26.5 6.5 -33.5 15.5s-11.833 22.5 -14.5 40.5c-18 -14 -31 -23.667 -39 -29s-19.833 -11.166 -35.5 -17.499
s-31.167 -9.5 -46.5 -9.5c-20 0 -37.333 7.83301 -52 23.5s-22 33.5 -22 53.5c0 14.667 3.5 28.167 10.5 40.5s15.167 22.166 24.5 29.499s22.333 14.166 39 20.499s30.5 10.833 41.5 13.5l45 10.5l37.5 8.5c1.33301 37.333 2 65.333 2 84c0 23.333 -8 41.833 -24 55.5
s-35.667 20.5 -59 20.5c-14.667 0 -30.5 -3 -47.5 -9s-28.833 -14 -35.5 -24c1.33301 -1.33301 3.83301 -3.5 7.5 -6.5s6.33398 -5.5 8.00098 -7.5l6.5 -7.5c2.66699 -3 4.5 -6 5.5 -9s1.5 -6.16699 1.5 -9.5c0 -8.66699 -3 -16 -9 -22s-13.333 -9 -22 -9
c-7.33301 0 -14.166 2.83301 -20.499 8.5s-9.5 12.167 -9.5 19.5c0 8 2.33301 16 7 24c12 22.667 30.333 41.667 55 57s49.667 23 75 23c40 0 69.5 -9 88.5 -27s28.5 -47.333 28.5 -88c0 -18.667 -1.16699 -47.334 -3.5 -86.001s-3.5 -67.334 -3.5 -86.001v-5
c-0.666992 -54.667 12 -82 38 -82c8.66699 0 18.334 3 29.001 9zM225.997 182.003l-30.501 -6.49805l-33.5 -7c-8 -1.66699 -17.833 -5 -29.5 -10s-20.667 -10.333 -27 -16s-12 -13.334 -17 -23.001s-7.5 -20.834 -7.5 -33.501c0 -20.667 6.16699 -36.667 18.5 -48
s28.833 -17 49.5 -17c18.667 0 43.334 11.333 74.001 34c0 14 0.5 35.167 1.5 63.5s1.5 49.5 1.5 63.5z" />
    <glyph glyph-name="Cacute" unicode="&#x106;" horiz-adv-x="620" 
d="M585 142l-4.00195 -116.999c-59.333 -23.333 -123 -35 -191 -35c-97.333 0 -181.666 33.5 -252.999 100.5s-107 151.5 -107 253.5c0 48.667 7.16699 92.667 21.5 132s33.333 71.5 57 96.5s51.167 45.833 82.5 62.5s63.166 28.5 95.499 35.5s65.5 10.5 99.5 10.5
c26.667 0 60.834 -4.5 102.501 -13.5s69.5 -16.167 83.5 -21.5c2.66699 -61.333 4 -100.666 4 -117.999l-10 -1c-8.66699 55.333 -29.167 93 -61.5 113s-78.833 30 -139.5 30c-70.667 0 -130.834 -28.333 -180.501 -85s-74.5 -134.667 -74.5 -234
c0 -45.333 5.66699 -88.333 17 -129s28 -77.834 50 -111.501s51.667 -60.334 89 -80.001s80 -29.5 128 -29.5c58.667 0 100.334 11 125.001 33s43.334 58.333 56.001 109zM462.998 757.001l-3 -28l-195 -38l-3 7l181 83z" />
    <glyph glyph-name="cacute" unicode="&#x107;" horiz-adv-x="359" 
d="M345 72c-9.33301 -16.667 -26.832 -34.832 -52.499 -54.499s-54.5 -29.5 -86.5 -29.5c-48.667 0 -91.334 18 -128.001 54s-55 84.333 -55 145c0 54.667 19.667 100.834 59 138.501s85 56.5 137 56.5c31.333 0 59.833 -6.33301 85.5 -19s38.5 -27.334 38.5 -44.001
c0 -9.33301 -3.16699 -17.5 -9.5 -24.5s-14.166 -10.5 -23.499 -10.5c-8.66699 0 -16 3 -22 9s-9 13.333 -9 22c0 12.667 5.66699 23 17 31c-19.333 18.667 -44.666 28 -75.999 28c-34.667 0 -65 -16.167 -91 -48.5s-39 -71.166 -39 -116.499
c0 -58.667 14.167 -106.834 42.5 -144.501s60.833 -56.5 97.5 -56.5c21.333 0 41.666 7.16699 60.999 21.5s34.666 30.166 45.999 47.499zM187.001 434.002l-7 2l53 192h31l20 -20z" />
    <glyph glyph-name="Ccircumflex" unicode="&#x108;" horiz-adv-x="620" 
d="M585 142l-4.00195 -116.999c-59.333 -23.333 -123 -35 -191 -35c-97.333 0 -181.666 33.5 -252.999 100.5s-107 151.5 -107 253.5c0 48.667 7.16699 92.667 21.5 132s33.333 71.5 57 96.5s51.167 45.833 82.5 62.5s63.166 28.5 95.499 35.5s65.5 10.5 99.5 10.5
c26.667 0 60.834 -4.5 102.501 -13.5s69.5 -16.167 83.5 -21.5c2.66699 -61.333 4 -100.666 4 -117.999l-10 -1c-8.66699 55.333 -29.167 93 -61.5 113s-78.833 30 -139.5 30c-70.667 0 -130.834 -28.333 -180.501 -85s-74.5 -134.667 -74.5 -234
c0 -45.333 5.66699 -88.333 17 -129s28 -77.834 50 -111.501s51.667 -60.334 89 -80.001s80 -29.5 128 -29.5c58.667 0 100.334 11 125.001 33s43.334 58.333 56.001 109zM483.998 708.001l-8 -4l-121 79h-7l-123 -79l-8 4l131 111h7z" />
    <glyph glyph-name="ccircumflex" unicode="&#x109;" horiz-adv-x="359" 
d="M345 72c-9.33301 -16.667 -26.832 -34.832 -52.499 -54.499s-54.5 -29.5 -86.5 -29.5c-48.667 0 -91.334 18 -128.001 54s-55 84.333 -55 145c0 54.667 19.667 100.834 59 138.501s85 56.5 137 56.5c31.333 0 59.833 -6.33301 85.5 -19s38.5 -27.334 38.5 -44.001
c0 -9.33301 -3.16699 -17.5 -9.5 -24.5s-14.166 -10.5 -23.499 -10.5c-8.66699 0 -16 3 -22 9s-9 13.333 -9 22c0 12.667 5.66699 23 17 31c-19.333 18.667 -44.666 28 -75.999 28c-34.667 0 -65 -16.167 -91 -48.5s-39 -71.166 -39 -116.499
c0 -58.667 14.167 -106.834 42.5 -144.501s60.833 -56.5 97.5 -56.5c21.333 0 41.666 7.16699 60.999 21.5s34.666 30.166 45.999 47.499zM296.001 434.002l-8 -4l-81 109h-7l-83 -109l-8 4l89 151h11z" />
    <glyph glyph-name="Cdotaccent" unicode="&#x10a;" horiz-adv-x="620" 
d="M585 142l-4.00195 -116.999c-59.333 -23.333 -123 -35 -191 -35c-97.333 0 -181.666 33.5 -252.999 100.5s-107 151.5 -107 253.5c0 48.667 7.16699 92.667 21.5 132s33.333 71.5 57 96.5s51.167 45.833 82.5 62.5s63.166 28.5 95.499 35.5s65.5 10.5 99.5 10.5
c26.667 0 60.834 -4.5 102.501 -13.5s69.5 -16.167 83.5 -21.5c2.66699 -61.333 4 -100.666 4 -117.999l-10 -1c-8.66699 55.333 -29.167 93 -61.5 113s-78.833 30 -139.5 30c-70.667 0 -130.834 -28.333 -180.501 -85s-74.5 -134.667 -74.5 -234
c0 -45.333 5.66699 -88.333 17 -129s28 -77.834 50 -111.501s51.667 -60.334 89 -80.001s80 -29.5 128 -29.5c58.667 0 100.334 11 125.001 33s43.334 58.333 56.001 109zM387.998 755.001c0 -10.667 -3.66699 -19.667 -11 -27s-16.333 -11 -27 -11s-19.667 3.66699 -27 11
s-11 16.333 -11 27s3.66699 19.667 11 27s16.333 11 27 11s19.667 -3.66699 27 -11s11 -16.333 11 -27z" />
    <glyph glyph-name="cdotaccent" unicode="&#x10b;" horiz-adv-x="359" 
d="M345 72c-9.33301 -16.667 -26.832 -34.832 -52.499 -54.499s-54.5 -29.5 -86.5 -29.5c-48.667 0 -91.334 18 -128.001 54s-55 84.333 -55 145c0 54.667 19.667 100.834 59 138.501s85 56.5 137 56.5c31.333 0 59.833 -6.33301 85.5 -19s38.5 -27.334 38.5 -44.001
c0 -9.33301 -3.16699 -17.5 -9.5 -24.5s-14.166 -10.5 -23.499 -10.5c-8.66699 0 -16 3 -22 9s-9 13.333 -9 22c0 12.667 5.66699 23 17 31c-19.333 18.667 -44.666 28 -75.999 28c-34.667 0 -65 -16.167 -91 -48.5s-39 -71.166 -39 -116.499
c0 -58.667 14.167 -106.834 42.5 -144.501s60.833 -56.5 97.5 -56.5c21.333 0 41.666 7.16699 60.999 21.5s34.666 30.166 45.999 47.499zM239.001 493.002c0 -10.667 -3.66699 -19.667 -11 -27s-16.333 -11 -27 -11s-19.667 3.66699 -27 11s-11 16.333 -11 27
s3.66699 19.667 11 27s16.333 11 27 11s19.667 -3.66699 27 -11s11 -16.333 11 -27z" />
    <glyph glyph-name="Ccaron" unicode="&#x10c;" horiz-adv-x="620" 
d="M585 142l-4.00195 -116.999c-59.333 -23.333 -123 -35 -191 -35c-97.333 0 -181.666 33.5 -252.999 100.5s-107 151.5 -107 253.5c0 48.667 7.16699 92.667 21.5 132s33.333 71.5 57 96.5s51.167 45.833 82.5 62.5s63.166 28.5 95.499 35.5s65.5 10.5 99.5 10.5
c26.667 0 60.834 -4.5 102.501 -13.5s69.5 -16.167 83.5 -21.5c2.66699 -61.333 4 -100.666 4 -117.999l-10 -1c-8.66699 55.333 -29.167 93 -61.5 113s-78.833 30 -139.5 30c-70.667 0 -130.834 -28.333 -180.501 -85s-74.5 -134.667 -74.5 -234
c0 -45.333 5.66699 -88.333 17 -129s28 -77.834 50 -111.501s51.667 -60.334 89 -80.001s80 -29.5 128 -29.5c58.667 0 100.334 11 125.001 33s43.334 58.333 56.001 109zM514.998 771.001l3 -11l-140 -61h-11l-146 72l8 4l141 -37h7z" />
    <glyph glyph-name="ccaron" unicode="&#x10d;" horiz-adv-x="359" 
d="M345 72c-9.33301 -16.667 -26.832 -34.832 -52.499 -54.499s-54.5 -29.5 -86.5 -29.5c-48.667 0 -91.334 18 -128.001 54s-55 84.333 -55 145c0 54.667 19.667 100.834 59 138.501s85 56.5 137 56.5c31.333 0 59.833 -6.33301 85.5 -19s38.5 -27.334 38.5 -44.001
c0 -9.33301 -3.16699 -17.5 -9.5 -24.5s-14.166 -10.5 -23.499 -10.5c-8.66699 0 -16 3 -22 9s-9 13.333 -9 22c0 12.667 5.66699 23 17 31c-19.333 18.667 -44.666 28 -75.999 28c-34.667 0 -65 -16.167 -91 -48.5s-39 -71.166 -39 -116.499
c0 -58.667 14.167 -106.834 42.5 -144.501s60.833 -56.5 97.5 -56.5c21.333 0 41.666 7.16699 60.999 21.5s34.666 30.166 45.999 47.499zM101.001 581.002l8 4l81 -109h7l83 109l8 -4l-89 -151h-11z" />
    <glyph glyph-name="Dcaron" unicode="&#x10e;" horiz-adv-x="679" 
d="M649 338c0 -108.667 -32.0029 -192.168 -96.0029 -250.501s-141 -87.5 -231 -87.5h-289v10c20.667 0 35.334 0.5 44.001 1.5s16.334 5 23.001 12s10 18.167 10 33.5v554c0 9.33301 -1.16699 16.833 -3.5 22.5s-5 10.167 -8 13.5s-8.33301 5.83301 -16 7.5
s-14 2.66699 -19 3s-13.5 0.5 -25.5 0.5h-5v10h275c30.667 0 61.334 -3.5 92.001 -10.5s61.167 -18.667 91.5 -35s57 -36.666 80 -60.999s41.667 -55.833 56 -94.5s21.5 -81.667 21.5 -129zM567.997 330.999c0 113.333 -24.5 196.168 -73.5 248.501s-113.5 78.5 -193.5 78.5
h-121v-648h145c33.333 0 64 5.66699 92 17s53.667 29.166 77 53.499s41.5 57.833 54.5 100.5s19.5 92.667 19.5 150zM455.997 761.001l3 -11l-140 -61h-11l-146 72l8 4l141 -37h7z" />
    <glyph glyph-name="dcaron" unicode="&#x10f;" horiz-adv-x="455" 
d="M424 0l-111.999 0.000976562v50c-10 -12.667 -28.5 -25.834 -55.5 -39.501s-49.833 -20.5 -68.5 -20.5c-48.667 0 -88.334 17.333 -119.001 52s-46 76.667 -46 126c0 55.333 18 104.833 54 148.5s81.333 65.5 136 65.5c38.667 0 71.667 -13.667 99 -41v301
c0 14 -1.83301 23.5 -5.5 28.5s-11.5 7.5 -23.5 7.5h-27v10h116v-678h52v-10zM312.001 60.001v271c-26.667 25.333 -54.334 38 -83.001 38c-34 0 -65.833 -16 -95.5 -48s-44.5 -75.333 -44.5 -130c0 -48 11.167 -89 33.5 -123s54.833 -51 97.5 -51
c36.667 0 67.334 14.333 92.001 43zM419.001 517.001c34.667 26.667 56.334 54.6641 65.001 83.9971c0.666992 3.33301 1 7.33301 1 12c0 6 -1.66699 9 -5 9c-1.33301 0 -3.83301 -0.833008 -7.5 -2.5s-6.83398 -2.5 -9.50098 -2.5c-9.33301 0 -16.666 3.33301 -21.999 10
s-8 14.334 -8 23.001c0 9.33301 2.83301 17.833 8.5 25.5s12.5 11.5 20.5 11.5c11.333 0 20.666 -5 27.999 -15s11 -21 11 -33c0 -27.333 -8.5 -52.666 -25.5 -75.999s-34.167 -40.666 -51.5 -51.999z" />
    <glyph glyph-name="Dcroat" unicode="&#x110;" horiz-adv-x="679" 
d="M33 313l-0.00292969 9.99902h77v288c0 9.33301 -1.16699 16.833 -3.5 22.5s-5 10.167 -8 13.5s-8.33301 5.83301 -16 7.5s-14 2.66699 -19 3s-13.5 0.5 -25.5 0.5h-5v10h275c30.667 0 61.334 -3.5 92.001 -10.5s61.167 -18.667 91.5 -35s57 -36.666 80 -60.999
s41.667 -55.833 56 -94.5s21.5 -81.667 21.5 -129c0 -108.667 -32 -192.167 -96 -250.5s-141 -87.5 -231 -87.5h-289v10c20.667 0 35.334 0.5 44.001 1.5s16.334 5 23.001 12s10 18.167 10 33.5v256h-77zM567.997 330.999c0 113.333 -24.5 196.168 -73.5 248.501
s-113.5 78.5 -193.5 78.5h-121v-335h110v-10h-110v-303h145c33.333 0 64 5.66699 92 17s53.667 29.166 77 53.499s41.5 57.833 54.5 100.5s19.5 92.667 19.5 150z" />
    <glyph glyph-name="dcroat" unicode="&#x111;" horiz-adv-x="442" 
d="M144 525l0.000976562 23.001h168v94c0 14 -1.83301 23.5 -5.5 28.5s-11.5 7.5 -23.5 7.5h-27v10h116v-140h70v-23h-70v-515h52v-10h-112v50c-10 -12.667 -28.5 -25.834 -55.5 -39.501s-49.833 -20.5 -68.5 -20.5c-48.667 0 -88.334 17.333 -119.001 52
s-46 76.667 -46 126c0 55.333 18 104.833 54 148.5s81.333 65.5 136 65.5c38.667 0 71.667 -13.667 99 -41v184h-168zM312.001 60.001v271c-26.667 25.333 -54.334 38 -83.001 38c-34 0 -65.833 -16 -95.5 -48s-44.5 -75.333 -44.5 -130c0 -48 11.167 -89 33.5 -123
s54.833 -51 97.5 -51c36.667 0 67.334 14.333 92.001 43z" />
    <glyph glyph-name="Emacron" unicode="&#x112;" horiz-adv-x="536" 
d="M511 0h-473.002v10h15c15.333 0 26.333 0.666992 33 2s12.334 5.5 17.001 12.5s7 17.833 7 32.5v562c0 26 -11.667 39 -35 39h-37v10h431v-111h-10c-4 35.333 -13.167 61 -27.5 77s-40.166 24 -77.499 24h-174v-318h154c22.667 0 36 3.66699 40 11s6 32 6 74h10v-162h-10
v67h-157c-11.333 0 -21.333 -2.83301 -30 -8.5s-13 -14.5 -13 -26.5v-285h212c42.667 0 70.667 6.66699 84 20s22 39 26 77h9v-107zM398.998 713h-224v20h224v-20z" />
    <glyph glyph-name="emacron" unicode="&#x113;" horiz-adv-x="369" 
d="M349 225l-263.003 -0.000976562v-16c0 -29.333 4.5 -58.5 13.5 -87.5s24.5 -55 46.5 -78s48 -34.5 78 -34.5c44 0 81.667 23 113 69l7 -5c-14 -24 -33.5 -43.833 -58.5 -59.5s-50.833 -23.5 -77.5 -23.5c-57.333 0 -102.5 18.333 -135.5 55s-49.5 84.334 -49.5 143.001
c0 53.333 16.333 98.833 49 136.5s75.334 56.5 128.001 56.5c30.667 0 57.834 -6.83301 81.501 -20.5s40.834 -34.167 51.501 -61.5c10.667 -25.333 16 -50 16 -74zM291.997 234.999c-8.66699 91.333 -39 137 -91 137c-41.333 0 -70.333 -12 -87 -36s-26 -57.667 -28 -101
h206zM305.997 493.999h-224v20h224v-20z" />
    <glyph glyph-name="Ebreve" unicode="&#x114;" horiz-adv-x="536" 
d="M511 0h-473.002v10h15c15.333 0 26.333 0.666992 33 2s12.334 5.5 17.001 12.5s7 17.833 7 32.5v562c0 26 -11.667 39 -35 39h-37v10h431v-111h-10c-4 35.333 -13.167 61 -27.5 77s-40.166 24 -77.499 24h-174v-318h154c22.667 0 36 3.66699 40 11s6 32 6 74h10v-162h-10
v67h-157c-11.333 0 -21.333 -2.83301 -30 -8.5s-13 -14.5 -13 -26.5v-285h212c42.667 0 70.667 6.66699 84 20s22 39 26 77h9v-107zM382.998 824l7 -1.99902c-4 -43.333 -16.667 -76.5 -38 -99.5s-44.333 -34.5 -69 -34.5c-30 0 -55.167 12.5 -75.5 37.5
s-34.5 57.5 -42.5 97.5l6 3c10.667 -34.667 27.167 -61.834 49.5 -81.501s43.5 -29.5 63.5 -29.5c52 0 85 36.333 99 109z" />
    <glyph glyph-name="ebreve" unicode="&#x115;" horiz-adv-x="369" 
d="M349 225l-263.003 -0.000976562v-16c0 -29.333 4.5 -58.5 13.5 -87.5s24.5 -55 46.5 -78s48 -34.5 78 -34.5c44 0 81.667 23 113 69l7 -5c-14 -24 -33.5 -43.833 -58.5 -59.5s-50.833 -23.5 -77.5 -23.5c-57.333 0 -102.5 18.333 -135.5 55s-49.5 84.334 -49.5 143.001
c0 53.333 16.333 98.833 49 136.5s75.334 56.5 128.001 56.5c30.667 0 57.834 -6.83301 81.501 -20.5s40.834 -34.167 51.501 -61.5c10.667 -25.333 16 -50 16 -74zM291.997 234.999c-8.66699 91.333 -39 137 -91 137c-41.333 0 -70.333 -12 -87 -36s-26 -57.667 -28 -101
h206zM289.997 556.999l6.99902 -1.99902c-4 -43.333 -16.667 -76.5 -38 -99.5s-44.333 -34.5 -69 -34.5c-30 0 -55.167 12.5 -75.5 37.5s-34.5 57.5 -42.5 97.5l6 3c10.667 -34.667 27.334 -61.834 50.001 -81.501s43.667 -29.5 63 -29.5c52 0 85 36.333 99 109z" />
    <glyph glyph-name="Edotaccent" unicode="&#x116;" horiz-adv-x="536" 
d="M511 0h-473.002v10h15c15.333 0 26.333 0.666992 33 2s12.334 5.5 17.001 12.5s7 17.833 7 32.5v562c0 26 -11.667 39 -35 39h-37v10h431v-111h-10c-4 35.333 -13.167 61 -27.5 77s-40.166 24 -77.499 24h-174v-318h154c22.667 0 36 3.66699 40 11s6 32 6 74h10v-162h-10
v67h-157c-11.333 0 -21.333 -2.83301 -30 -8.5s-13 -14.5 -13 -26.5v-285h212c42.667 0 70.667 6.66699 84 20s22 39 26 77h9v-107zM334.998 740c0 -10.667 -3.66699 -19.667 -11 -27s-16.333 -11 -27 -11s-19.667 3.66699 -27 11s-11 16.333 -11 27s3.66699 19.667 11 27
s16.333 11 27 11s19.667 -3.66699 27 -11s11 -16.333 11 -27z" />
    <glyph glyph-name="edotaccent" unicode="&#x117;" horiz-adv-x="369" 
d="M349 225l-263.003 -0.000976562v-16c0 -29.333 4.5 -58.5 13.5 -87.5s24.5 -55 46.5 -78s48 -34.5 78 -34.5c44 0 81.667 23 113 69l7 -5c-14 -24 -33.5 -43.833 -58.5 -59.5s-50.833 -23.5 -77.5 -23.5c-57.333 0 -102.5 18.333 -135.5 55s-49.5 84.334 -49.5 143.001
c0 53.333 16.333 98.833 49 136.5s75.334 56.5 128.001 56.5c30.667 0 57.834 -6.83301 81.501 -20.5s40.834 -34.167 51.501 -61.5c10.667 -25.333 16 -50 16 -74zM291.997 234.999c-8.66699 91.333 -39 137 -91 137c-41.333 0 -70.333 -12 -87 -36s-26 -57.667 -28 -101
h206zM231.997 492.999c0 -10.667 -3.66699 -19.667 -11 -27s-16.333 -11 -27 -11s-19.667 3.66699 -27 11s-11 16.333 -11 27s3.66699 19.667 11 27s16.333 11 27 11s19.667 -3.66699 27 -11s11 -16.333 11 -27z" />
    <glyph glyph-name="Eogonek" unicode="&#x118;" horiz-adv-x="536" 
d="M507 -127l3.99707 -4c-12.667 -16.667 -29.834 -32.167 -51.501 -46.5s-44.167 -21.5 -67.5 -21.5c-22.667 0 -40.5 6.16699 -53.5 18.5s-19.5 27.833 -19.5 46.5c0 28.667 13 55.667 39 81s57.333 43 94 53h-414v10h15c15.333 0 26.333 0.666992 33 2
s12.334 5.5 17.001 12.5s7 17.833 7 32.5v562c0 26 -11.667 39 -35 39h-37v10h431v-111h-10c-4 35.333 -13.167 61 -27.5 77s-40.166 24 -77.499 24h-174v-318h154c22.667 0 36 3.66699 40 11s6 32 6 74h10v-162h-10v67h-157c-11.333 0 -21.333 -2.83301 -30 -8.5
s-13 -14.5 -13 -26.5v-285h212c42.667 0 70.667 6.66699 84 20s22 39 26 77h9v-107h-25c-31.333 -4 -59.166 -17.833 -83.499 -41.5s-36.5 -49.5 -36.5 -77.5c0 -15.333 4.66699 -28.833 14 -40.5s21 -17.5 35 -17.5c30.667 0 61.334 16.667 92.001 50z" />
    <glyph glyph-name="eogonek" unicode="&#x119;" horiz-adv-x="369" 
d="M349 225l-263.004 -0.00195312v-16c0 -29.333 4.5 -58.5 13.5 -87.5s24.5 -55 46.5 -78s48 -34.5 78 -34.5c44 0 81.667 23 113 69l7 -5c-22 -36.667 -52 -61.667 -90 -75c-19.333 -11.333 -35.166 -26 -47.499 -44s-18.5 -36.667 -18.5 -56
c0 -15.333 4.66699 -28.833 14 -40.5s21 -17.5 35 -17.5c30.667 0 61.334 16.667 92.001 50l4 -4c-12.667 -16.667 -29.834 -32.167 -51.501 -46.5s-44.167 -21.5 -67.5 -21.5c-22.667 0 -40.5 6.16699 -53.5 18.5s-19.5 27.833 -19.5 46.5
c0 40.667 23.667 76.334 71 107.001h-4c-57.333 0 -102.5 18.333 -135.5 55s-49.5 84.334 -49.5 143.001c0 53.333 16.333 98.833 49 136.5s75.334 56.5 128.001 56.5c30.667 0 57.834 -6.83301 81.501 -20.5s40.834 -34.167 51.501 -61.5c10.667 -25.333 16 -50 16 -74z
M291.996 234.998c-8.66699 91.333 -39 137 -91 137c-41.333 0 -70.333 -12 -87 -36s-26 -57.667 -28 -101h206z" />
    <glyph glyph-name="Ecaron" unicode="&#x11a;" horiz-adv-x="536" 
d="M511 0h-473.002v10h15c15.333 0 26.333 0.666992 33 2s12.334 5.5 17.001 12.5s7 17.833 7 32.5v562c0 26 -11.667 39 -35 39h-37v10h431v-111h-10c-4 35.333 -13.167 61 -27.5 77s-40.166 24 -77.499 24h-174v-318h154c22.667 0 36 3.66699 40 11s6 32 6 74h10v-162h-10
v67h-157c-11.333 0 -21.333 -2.83301 -30 -8.5s-13 -14.5 -13 -26.5v-285h212c42.667 0 70.667 6.66699 84 20s22 39 26 77h9v-107zM419.998 760l3 -11l-140 -61h-11l-146 72l8 4l141 -37h7z" />
    <glyph glyph-name="ecaron" unicode="&#x11b;" horiz-adv-x="369" 
d="M349 225l-263.003 -0.000976562v-16c0 -29.333 4.5 -58.5 13.5 -87.5s24.5 -55 46.5 -78s48 -34.5 78 -34.5c44 0 81.667 23 113 69l7 -5c-14 -24 -33.5 -43.833 -58.5 -59.5s-50.833 -23.5 -77.5 -23.5c-57.333 0 -102.5 18.333 -135.5 55s-49.5 84.334 -49.5 143.001
c0 53.333 16.333 98.833 49 136.5s75.334 56.5 128.001 56.5c30.667 0 57.834 -6.83301 81.501 -20.5s40.834 -34.167 51.501 -61.5c10.667 -25.333 16 -50 16 -74zM291.997 234.999c-8.66699 91.333 -39 137 -91 137c-41.333 0 -70.333 -12 -87 -36s-26 -57.667 -28 -101
h206zM90.9971 580.999l8 4l81 -109h7l83 109l8 -4l-89 -151h-11z" />
    <glyph glyph-name="Gcircumflex" unicode="&#x11c;" horiz-adv-x="672" 
d="M659 255l-66.999 0.00292969c-1.33301 -110 -1.33301 -172 0 -186l6 -22c-70 -39.333 -146.333 -59 -229 -59c-30 0 -60.167 4 -90.5 12s-60.666 21.167 -90.999 39.5s-57 40.666 -80 66.999s-41.667 60 -56 101s-21.166 86.5 -20.499 136.5
c1.33301 98.667 33.833 179.5 97.5 242.5s146.834 94.5 249.501 94.5c53.333 0 118.333 -11.667 195 -35l5 -119h-10c-14.667 96 -77.667 144 -189 144c-80 0 -144.667 -25.833 -194 -77.5s-74 -132.5 -74 -242.5c0 -52.667 5.66699 -99.834 17 -141.501
s26.166 -75.334 44.499 -101.001s39.666 -47.167 63.999 -64.5s48.666 -29.333 72.999 -36s49.166 -10 74.499 -10c24.667 0 48.667 3.33301 72 10s41 14.667 53 24c14 10.667 21 27.667 21 51v140c0 21.333 -12.667 32 -38 32h-44v10h211v-10zM502.001 708.003l-8 -4
l-121 79h-7l-123 -79l-8 4l131 111h7z" />
    <glyph glyph-name="gcircumflex" unicode="&#x11d;" horiz-adv-x="400" 
d="M427 -128c0 -48 -20.1631 -89.3369 -60.4961 -124.004s-85.5 -54.334 -135.5 -59.001c-6.66699 -0.666992 -17.334 -1 -32.001 -1c-28.667 0 -55 3.16699 -79 9.5s-45.5 18.833 -64.5 37.5s-28.5 42.667 -28.5 72c0 42 30 79.333 90 112
c-25.333 4.66699 -46.166 15.167 -62.499 31.5s-24.5 34.833 -24.5 55.5c0 18.667 4 36.334 12 53.001s16.167 29.5 24.5 38.5s19.5 19.167 33.5 30.5c-18 12.667 -32.333 29.334 -43 50.001s-16 42 -16 64c0 39.333 15 72.5 45 99.5s65 40.5 105 40.5
c46.667 0 79.667 -20.667 99 -62c21.333 36.667 45.333 55 72 55c10.667 0 20 -3 28 -9s12 -14.333 12 -25c0 -8.66699 -2.83301 -15.5 -8.5 -20.5s-12.834 -7.5 -21.501 -7.5c-6.66699 0 -12.5 2.33301 -17.5 7s-7.5 10.334 -7.5 17.001c0 9.33301 5.33301 18 16 26
c-3.33301 2 -6.33301 3 -9 3c-9.33301 0 -18.333 -4.16699 -27 -12.5s-13 -17.166 -13 -26.499c0 -3.33301 4 -15.333 12 -36s12 -39.667 12 -57c0 -37.333 -13.833 -68.166 -41.5 -92.499s-60.167 -36.5 -97.5 -36.5c-16.667 0 -32.834 3.66699 -48.501 11
s-25.167 11 -28.5 11c-6.66699 0 -16 -5.33301 -28 -16c-21.333 -20 -32 -41.667 -32 -65c0 -19.333 7.5 -34.166 22.5 -44.499s35.167 -15.5 60.5 -15.5c15.333 0 38.166 2 68.499 6s53.166 6 68.499 6c43.333 0 78.333 -10.333 105 -31s40 -52.334 40 -95.001z
M192.004 372.996c-31.333 0 -54.668 -12.832 -70.001 -38.499s-23 -55.167 -23 -88.5c0 -34 8.83301 -64.5 26.5 -91.5s42.834 -40.5 75.501 -40.5c26.667 0 47.334 14.333 62.001 43s22 57.667 22 87c0 35.333 -7.33301 65.666 -22 90.999s-38.334 38 -71.001 38z
M390.002 -144.003c0 54.667 -44.999 82 -134.999 82c-8.66699 0 -22.334 -0.666992 -41.001 -2c-46 -5.33301 -75.667 -12.333 -89 -21c-26.667 -17.333 -40 -46.666 -40 -87.999c0 -38.667 14.5 -68.834 43.5 -90.501s63.5 -32.5 103.5 -32.5c46 0 83.833 14 113.5 42
s44.5 64.667 44.5 110zM286.003 431.997l-8 -4l-81 109h-7l-83 -109l-8 4l89 151h11z" />
    <glyph glyph-name="Gbreve" unicode="&#x11e;" horiz-adv-x="672" 
d="M659 255l-66.999 0.00292969c-1.33301 -110 -1.33301 -172 0 -186l6 -22c-70 -39.333 -146.333 -59 -229 -59c-30 0 -60.167 4 -90.5 12s-60.666 21.167 -90.999 39.5s-57 40.666 -80 66.999s-41.667 60 -56 101s-21.166 86.5 -20.499 136.5
c1.33301 98.667 33.833 179.5 97.5 242.5s146.834 94.5 249.501 94.5c53.333 0 118.333 -11.667 195 -35l5 -119h-10c-14.667 96 -77.667 144 -189 144c-80 0 -144.667 -25.833 -194 -77.5s-74 -132.5 -74 -242.5c0 -52.667 5.66699 -99.834 17 -141.501
s26.166 -75.334 44.499 -101.001s39.666 -47.167 63.999 -64.5s48.666 -29.333 72.999 -36s49.166 -10 74.499 -10c24.667 0 48.667 3.33301 72 10s41 14.667 53 24c14 10.667 21 27.667 21 51v140c0 21.333 -12.667 32 -38 32h-44v10h211v-10zM469.001 854.003
l6.99902 -1.99902c-4 -43.333 -16.667 -76.5 -38 -99.5s-44.333 -34.5 -69 -34.5c-30 0 -55.167 12.5 -75.5 37.5s-34.5 57.5 -42.5 97.5l6 3c10.667 -34.667 27.334 -61.834 50.001 -81.501s43.667 -29.5 63 -29.5c52 0 85 36.333 99 109z" />
    <glyph glyph-name="gbreve" unicode="&#x11f;" horiz-adv-x="400" 
d="M427 -128c0 -48 -20.1631 -89.3369 -60.4961 -124.004s-85.5 -54.334 -135.5 -59.001c-6.66699 -0.666992 -17.334 -1 -32.001 -1c-28.667 0 -55 3.16699 -79 9.5s-45.5 18.833 -64.5 37.5s-28.5 42.667 -28.5 72c0 42 30 79.333 90 112
c-25.333 4.66699 -46.166 15.167 -62.499 31.5s-24.5 34.833 -24.5 55.5c0 18.667 4 36.334 12 53.001s16.167 29.5 24.5 38.5s19.5 19.167 33.5 30.5c-18 12.667 -32.333 29.334 -43 50.001s-16 42 -16 64c0 39.333 15 72.5 45 99.5s65 40.5 105 40.5
c46.667 0 79.667 -20.667 99 -62c21.333 36.667 45.333 55 72 55c10.667 0 20 -3 28 -9s12 -14.333 12 -25c0 -8.66699 -2.83301 -15.5 -8.5 -20.5s-12.834 -7.5 -21.501 -7.5c-6.66699 0 -12.5 2.33301 -17.5 7s-7.5 10.334 -7.5 17.001c0 9.33301 5.33301 18 16 26
c-3.33301 2 -6.33301 3 -9 3c-9.33301 0 -18.333 -4.16699 -27 -12.5s-13 -17.166 -13 -26.499c0 -3.33301 4 -15.333 12 -36s12 -39.667 12 -57c0 -37.333 -13.833 -68.166 -41.5 -92.499s-60.167 -36.5 -97.5 -36.5c-16.667 0 -32.834 3.66699 -48.501 11
s-25.167 11 -28.5 11c-6.66699 0 -16 -5.33301 -28 -16c-21.333 -20 -32 -41.667 -32 -65c0 -19.333 7.5 -34.166 22.5 -44.499s35.167 -15.5 60.5 -15.5c15.333 0 38.166 2 68.499 6s53.166 6 68.499 6c43.333 0 78.333 -10.333 105 -31s40 -52.334 40 -95.001z
M192.004 372.996c-31.333 0 -54.668 -12.832 -70.001 -38.499s-23 -55.167 -23 -88.5c0 -34 8.83301 -64.5 26.5 -91.5s42.834 -40.5 75.501 -40.5c26.667 0 47.334 14.333 62.001 43s22 57.667 22 87c0 35.333 -7.33301 65.666 -22 90.999s-38.334 38 -71.001 38z
M390.002 -144.003c0 54.667 -44.999 82 -134.999 82c-8.66699 0 -22.334 -0.666992 -41.001 -2c-46 -5.33301 -75.667 -12.333 -89 -21c-26.667 -17.333 -40 -46.666 -40 -87.999c0 -38.667 14.5 -68.834 43.5 -90.501s63.5 -32.5 103.5 -32.5c46 0 83.833 14 113.5 42
s44.5 64.667 44.5 110zM296.003 556.997l6.99902 -1.99902c-4 -43.333 -16.667 -76.5 -38 -99.5s-44.333 -34.5 -69 -34.5c-30 0 -55.167 12.5 -75.5 37.5s-34.5 57.5 -42.5 97.5l6 3c10.667 -34.667 27.334 -61.834 50.001 -81.501s43.667 -29.5 63 -29.5
c52 0 85 36.333 99 109z" />
    <glyph glyph-name="Gdotaccent" unicode="&#x120;" horiz-adv-x="672" 
d="M659 255l-66.999 0.00292969c-1.33301 -110 -1.33301 -172 0 -186l6 -22c-70 -39.333 -146.333 -59 -229 -59c-30 0 -60.167 4 -90.5 12s-60.666 21.167 -90.999 39.5s-57 40.666 -80 66.999s-41.667 60 -56 101s-21.166 86.5 -20.499 136.5
c1.33301 98.667 33.833 179.5 97.5 242.5s146.834 94.5 249.501 94.5c53.333 0 118.333 -11.667 195 -35l5 -119h-10c-14.667 96 -77.667 144 -189 144c-80 0 -144.667 -25.833 -194 -77.5s-74 -132.5 -74 -242.5c0 -52.667 5.66699 -99.834 17 -141.501
s26.166 -75.334 44.499 -101.001s39.666 -47.167 63.999 -64.5s48.666 -29.333 72.999 -36s49.166 -10 74.499 -10c24.667 0 48.667 3.33301 72 10s41 14.667 53 24c14 10.667 21 27.667 21 51v140c0 21.333 -12.667 32 -38 32h-44v10h211v-10zM390.001 756.003
c0 -10.667 -3.66699 -19.667 -11 -27s-16.333 -11 -27 -11s-19.667 3.66699 -27 11s-11 16.333 -11 27s3.66699 19.667 11 27s16.333 11 27 11s19.667 -3.66699 27 -11s11 -16.333 11 -27z" />
    <glyph glyph-name="gdotaccent" unicode="&#x121;" horiz-adv-x="400" 
d="M427 -128c0 -48 -20.1631 -89.3369 -60.4961 -124.004s-85.5 -54.334 -135.5 -59.001c-6.66699 -0.666992 -17.334 -1 -32.001 -1c-28.667 0 -55 3.16699 -79 9.5s-45.5 18.833 -64.5 37.5s-28.5 42.667 -28.5 72c0 42 30 79.333 90 112
c-25.333 4.66699 -46.166 15.167 -62.499 31.5s-24.5 34.833 -24.5 55.5c0 18.667 4 36.334 12 53.001s16.167 29.5 24.5 38.5s19.5 19.167 33.5 30.5c-18 12.667 -32.333 29.334 -43 50.001s-16 42 -16 64c0 39.333 15 72.5 45 99.5s65 40.5 105 40.5
c46.667 0 79.667 -20.667 99 -62c21.333 36.667 45.333 55 72 55c10.667 0 20 -3 28 -9s12 -14.333 12 -25c0 -8.66699 -2.83301 -15.5 -8.5 -20.5s-12.834 -7.5 -21.501 -7.5c-6.66699 0 -12.5 2.33301 -17.5 7s-7.5 10.334 -7.5 17.001c0 9.33301 5.33301 18 16 26
c-3.33301 2 -6.33301 3 -9 3c-9.33301 0 -18.333 -4.16699 -27 -12.5s-13 -17.166 -13 -26.499c0 -3.33301 4 -15.333 12 -36s12 -39.667 12 -57c0 -37.333 -13.833 -68.166 -41.5 -92.499s-60.167 -36.5 -97.5 -36.5c-16.667 0 -32.834 3.66699 -48.501 11
s-25.167 11 -28.5 11c-6.66699 0 -16 -5.33301 -28 -16c-21.333 -20 -32 -41.667 -32 -65c0 -19.333 7.5 -34.166 22.5 -44.499s35.167 -15.5 60.5 -15.5c15.333 0 38.166 2 68.499 6s53.166 6 68.499 6c43.333 0 78.333 -10.333 105 -31s40 -52.334 40 -95.001z
M192.004 372.996c-31.333 0 -54.668 -12.832 -70.001 -38.499s-23 -55.167 -23 -88.5c0 -34 8.83301 -64.5 26.5 -91.5s42.834 -40.5 75.501 -40.5c26.667 0 47.334 14.333 62.001 43s22 57.667 22 87c0 35.333 -7.33301 65.666 -22 90.999s-38.334 38 -71.001 38z
M390.002 -144.003c0 54.667 -44.999 82 -134.999 82c-8.66699 0 -22.334 -0.666992 -41.001 -2c-46 -5.33301 -75.667 -12.333 -89 -21c-26.667 -17.333 -40 -46.666 -40 -87.999c0 -38.667 14.5 -68.834 43.5 -90.501s63.5 -32.5 103.5 -32.5c46 0 83.833 14 113.5 42
s44.5 64.667 44.5 110zM235.003 492.997c0 -10.667 -3.66699 -19.667 -11 -27s-16.333 -11 -27 -11s-19.667 3.66699 -27 11s-11 16.333 -11 27s3.66699 19.667 11 27s16.333 11 27 11s19.667 -3.66699 27 -11s11 -16.333 11 -27z" />
    <glyph glyph-name="Gcommaaccent" unicode="&#x122;" horiz-adv-x="672" 
d="M659 255l-66.999 0.00292969c-1.33301 -110 -1.33301 -172 0 -186l6 -22c-70 -39.333 -146.333 -59 -229 -59c-30 0 -60.167 4 -90.5 12s-60.666 21.167 -90.999 39.5s-57 40.666 -80 66.999s-41.667 60 -56 101s-21.166 86.5 -20.499 136.5
c1.33301 98.667 33.833 179.5 97.5 242.5s146.834 94.5 249.501 94.5c53.333 0 118.333 -11.667 195 -35l5 -119h-10c-14.667 96 -77.667 144 -189 144c-80 0 -144.667 -25.833 -194 -77.5s-74 -132.5 -74 -242.5c0 -52.667 5.66699 -99.834 17 -141.501
s26.166 -75.334 44.499 -101.001s39.666 -47.167 63.999 -64.5s48.666 -29.333 72.999 -36s49.166 -10 74.499 -10c24.667 0 48.667 3.33301 72 10s41 14.667 53 24c14 10.667 21 27.667 21 51v140c0 21.333 -12.667 32 -38 32h-44v10h211v-10zM417.001 -118.997
c0 -20 -7.33203 -42.666 -21.999 -67.999s-32 -48 -52 -68l-5 6c36.667 42.667 55 81.667 55 117c0 8.66699 -2 15 -6 19c-4.66699 -12.667 -15.334 -19 -32.001 -19c-8.66699 0 -16.667 3.66699 -24 11s-11 16.666 -11 27.999c0 12 4 22 12 30s18.667 12 32 12
c16 0 28.833 -5.66699 38.5 -17s14.5 -28.333 14.5 -51z" />
    <glyph glyph-name="gcommaaccent" unicode="&#x123;" horiz-adv-x="400" 
d="M427 -128c0 -48 -20.1631 -89.3369 -60.4961 -124.004s-85.5 -54.334 -135.5 -59.001c-6.66699 -0.666992 -17.334 -1 -32.001 -1c-28.667 0 -55 3.16699 -79 9.5s-45.5 18.833 -64.5 37.5s-28.5 42.667 -28.5 72c0 42 30 79.333 90 112
c-25.333 4.66699 -46.166 15.167 -62.499 31.5s-24.5 34.833 -24.5 55.5c0 18.667 4 36.334 12 53.001s16.167 29.5 24.5 38.5s19.5 19.167 33.5 30.5c-18 12.667 -32.333 29.334 -43 50.001s-16 42 -16 64c0 39.333 15 72.5 45 99.5s65 40.5 105 40.5
c46.667 0 79.667 -20.667 99 -62c21.333 36.667 45.333 55 72 55c10.667 0 20 -3 28 -9s12 -14.333 12 -25c0 -8.66699 -2.83301 -15.5 -8.5 -20.5s-12.834 -7.5 -21.501 -7.5c-6.66699 0 -12.5 2.33301 -17.5 7s-7.5 10.334 -7.5 17.001c0 9.33301 5.33301 18 16 26
c-3.33301 2 -6.33301 3 -9 3c-9.33301 0 -18.333 -4.16699 -27 -12.5s-13 -17.166 -13 -26.499c0 -3.33301 4 -15.333 12 -36s12 -39.667 12 -57c0 -37.333 -13.833 -68.166 -41.5 -92.499s-60.167 -36.5 -97.5 -36.5c-16.667 0 -32.834 3.66699 -48.501 11
s-25.167 11 -28.5 11c-6.66699 0 -16 -5.33301 -28 -16c-21.333 -20 -32 -41.667 -32 -65c0 -19.333 7.5 -34.166 22.5 -44.499s35.167 -15.5 60.5 -15.5c15.333 0 38.166 2 68.499 6s53.166 6 68.499 6c43.333 0 78.333 -10.333 105 -31s40 -52.334 40 -95.001z
M192.004 372.996c-31.333 0 -54.668 -12.832 -70.001 -38.499s-23 -55.167 -23 -88.5c0 -34 8.83301 -64.5 26.5 -91.5s42.834 -40.5 75.501 -40.5c26.667 0 47.334 14.333 62.001 43s22 57.667 22 87c0 35.333 -7.33301 65.666 -22 90.999s-38.334 38 -71.001 38z
M390.002 -144.003c0 54.667 -44.999 82 -134.999 82c-8.66699 0 -22.334 -0.666992 -41.001 -2c-46 -5.33301 -75.667 -12.333 -89 -21c-26.667 -17.333 -40 -46.666 -40 -87.999c0 -38.667 14.5 -68.834 43.5 -90.501s63.5 -32.5 103.5 -32.5c46 0 83.833 14 113.5 42
s44.5 64.667 44.5 110zM238.003 637.997c-34.667 -26.667 -56.334 -54.6641 -65.001 -83.9971c-0.666992 -3.33301 -1 -7.33301 -1 -12c0 -6 1.66699 -9 5 -9c1.33301 0 3.83301 0.833008 7.5 2.5s6.83398 2.5 9.50098 2.5c9.33301 0 16.666 -3.33301 21.999 -10
s8 -14.334 8 -23.001c0 -9.33301 -2.83301 -17.833 -8.5 -25.5s-12.5 -11.5 -20.5 -11.5c-11.333 0 -20.666 5 -27.999 15s-11 21 -11 33c0 27.333 8.5 52.666 25.5 75.999s34.167 40.666 51.5 51.999z" />
    <glyph glyph-name="Hcircumflex" unicode="&#x124;" horiz-adv-x="720" 
d="M680 0l-216.999 0.00195312v10h28c22 0 35.667 2.5 41 7.5s8 19.167 8 42.5v283h-360v-333h69v-10h-211v10h7c28 0 45.833 2.16699 53.5 6.5s11.5 16.5 11.5 36.5v533c0 25.333 -2.16699 43.666 -6.5 54.999s-12.5 17 -24.5 17h-41v10h209v-10h-67v-304h360v232
c0 29.333 -1.33301 48.666 -4 57.999s-10.334 14 -23.001 14h-39v10h206v-10h-70v-648h70v-10zM496.001 696.002l-8 -4l-121 79h-7l-123 -79l-8 4l131 111h7z" />
    <glyph glyph-name="hcircumflex" unicode="&#x125;" horiz-adv-x="441" 
d="M422 0l-154.998 -0.00292969v10h25c10 0 16.667 2.16699 20 6.5s5 12.5 5 24.5v197c0 18.667 -0.666992 34 -2 46s-4.66602 24.167 -9.99902 36.5s-13.833 21.5 -25.5 27.5s-26.834 9 -45.501 9c-14.667 0 -28.834 -3 -42.501 -9s-24.667 -12.167 -33 -18.5
s-19.5 -16.166 -33.5 -29.499v-290h44v-10h-152v10h21c11.333 0 18.666 1.33301 21.999 4s5 9.33398 5 20.001v605c0 18.667 -2.5 29.834 -7.5 33.501s-16.167 5.5 -33.5 5.5h-7v10h108v-378c18 19.333 42 36.5 72 51.5s57.333 22.5 82 22.5c65.333 0 98 -46 98 -138v-236
h45v-10zM177.002 722.997l-8 -4l-81 109h-7l-83 -109l-8 4l89 151h11z" />
    <glyph glyph-name="Hbar" unicode="&#x126;" horiz-adv-x="720" 
d="M655 480l-44.999 0.00195312v-470h70v-10h-217v10h28c22 0 35.667 2.5 41 7.5s8 19.167 8 42.5v283h-360v-333h69v-10h-211v10h7c28 0 45.833 2.16699 53.5 6.5s11.5 16.5 11.5 36.5v427h-45v20h45v86c0 25.333 -2.16699 43.666 -6.5 54.999s-12.5 17 -24.5 17h-41v10
h209v-10h-67v-158h360v86c0 29.333 -1.33301 48.666 -4 57.999s-10.334 14 -23.001 14h-39v10h206v-10h-70v-158h45v-20zM180.001 354.002h360v126h-360v-126z" />
    <glyph glyph-name="hbar" unicode="&#x127;" horiz-adv-x="441" 
d="M293 525l-167.998 -0.00292969v-215c18 19.333 42 36.5 72 51.5s57.333 22.5 82 22.5c65.333 0 98 -46 98 -138v-236h45v-10h-155v10h25c10 0 16.667 2.16699 20 6.5s5 12.5 5 24.5v197c0 18.667 -0.666992 34 -2 46s-4.66602 24.167 -9.99902 36.5
s-13.833 21.5 -25.5 27.5s-26.834 9 -45.501 9c-14.667 0 -28.834 -3 -42.501 -9s-24.667 -12.167 -33 -18.5s-19.5 -16.166 -33.5 -29.499v-290h44v-10h-152v10h21c11.333 0 18.666 1.33301 21.999 4s5 9.33398 5 20.001v491h-65v20h65v94
c0 18.667 -2.5 29.834 -7.5 33.501s-16.167 5.5 -33.5 5.5h-7v10h108v-143h168v-20z" />
    <glyph glyph-name="Itilde" unicode="&#x128;" horiz-adv-x="290" 
d="M240 0l-195.001 0.000976562v10h7c26.667 0 43 2 49 6s9 16.333 9 37v561c0 11.333 -0.333008 19.666 -1 24.999s-2.66699 9.83301 -6 13.5s-8.66602 5.5 -15.999 5.5h-42v10h195v-10h-60v-648h60v-10zM250.999 766.001
c-4.66699 -20.667 -13.165 -36.832 -25.498 -48.499s-25.5 -17.5 -39.5 -17.5c-10.667 0 -26.5 7.16699 -47.5 21.5s-36.833 21.5 -47.5 21.5c-18.667 0 -34.334 -11.667 -47.001 -35h-6c18.667 41.333 44.667 62 78 62c10.667 0 26 -6.66699 46 -20s35.667 -20 47 -20
c9.33301 0 16.666 2.66699 21.999 8s10 14.666 14 27.999h6z" />
    <glyph glyph-name="itilde" unicode="&#x129;" horiz-adv-x="197" 
d="M175 0h-152v10h25c9.33301 0 15.5 1.66699 18.5 5s4.5 11 4.5 23v279c0 11.333 -0.166992 19.333 -0.5 24s-2.5 9.16699 -6.5 13.5s-10.333 6.5 -19 6.5h-22v10h108v-361h44v-10zM205 567c-4.66699 -20.667 -13.165 -36.832 -25.498 -48.499s-25.5 -17.5 -39.5 -17.5
c-10.667 0 -26.5 7.16699 -47.5 21.5s-36.833 21.5 -47.5 21.5c-18.667 0 -34.334 -11.667 -47.001 -35h-6c18.667 41.333 44.667 62 78 62c10.667 0 26 -6.66699 46 -20s35.667 -20 47 -20c9.33301 0 16.666 2.66699 21.999 8s10 14.666 14 27.999h6z" />
    <glyph glyph-name="Imacron" unicode="&#x12a;" horiz-adv-x="290" 
d="M240 0l-195.001 0.000976562v10h7c26.667 0 43 2 49 6s9 16.333 9 37v561c0 11.333 -0.333008 19.666 -1 24.999s-2.66699 9.83301 -6 13.5s-8.66602 5.5 -15.999 5.5h-42v10h195v-10h-60v-648h60v-10zM256.999 726.001h-224v20h224v-20z" />
    <glyph glyph-name="imacron" unicode="&#x12b;" horiz-adv-x="197" 
d="M175 0h-152v10h25c9.33301 0 15.5 1.66699 18.5 5s4.5 11 4.5 23v279c0 11.333 -0.166992 19.333 -0.5 24s-2.5 9.16699 -6.5 13.5s-10.333 6.5 -19 6.5h-22v10h108v-361h44v-10zM211 457h-224v20h224v-20z" />
    <glyph glyph-name="Iogonek" unicode="&#x12e;" horiz-adv-x="290" 
d="M236 -124l3.99902 -3.99902c-12.667 -16.667 -29.834 -32.167 -51.501 -46.5s-44.167 -21.5 -67.5 -21.5c-22.667 0 -40.5 6.16699 -53.5 18.5s-19.5 27.833 -19.5 46.5c0 27.333 11.833 53.166 35.5 77.499s52.5 42.166 86.5 53.499h-125v10h7c26.667 0 43 2 49 6
s9 16.333 9 37v561c0 11.333 -0.333008 19.666 -1 24.999s-2.66699 9.83301 -6 13.5s-8.66602 5.5 -15.999 5.5h-42v10h195v-10h-60v-648h60v-10h-41c-28.667 -7.33301 -53.167 -22.166 -73.5 -44.499s-30.5 -46.166 -30.5 -71.499c0 -15.333 4.66699 -28.833 14 -40.5
s21 -17.5 35 -17.5c30.667 0 61.334 16.667 92.001 50z" />
    <glyph glyph-name="iogonek" unicode="&#x12f;" horiz-adv-x="197" 
d="M171 -126l4.00098 -4.00098c-12.667 -16.667 -29.834 -32.167 -51.501 -46.5s-44.167 -21.5 -67.5 -21.5c-22.667 0 -40.5 6.16699 -53.5 18.5s-19.5 27.833 -19.5 46.5c0 28 12.667 54.667 38 80s55.666 43 90.999 53h-89v10h25c9.33301 0 15.5 1.66699 18.5 5
s4.5 11 4.5 23v279c0 11.333 -0.166992 19.333 -0.5 24s-2.5 9.16699 -6.5 13.5s-10.333 6.5 -19 6.5h-22v10h108v-361h44v-10h-32c-30 -5.33301 -56.333 -19.666 -79 -42.999s-34 -48.333 -34 -75c0 -15.333 4.66699 -28.833 14 -40.5s21 -17.5 35 -17.5
c30.667 0 61.334 16.667 92.001 50zM133.001 574.999c0 -10.667 -3.66699 -19.667 -11 -27s-16.333 -11 -27 -11s-19.667 3.66699 -27 11s-11 16.333 -11 27s3.66699 19.667 11 27s16.333 11 27 11s19.667 -3.66699 27 -11s11 -16.333 11 -27z" />
    <glyph glyph-name="Idotaccent" unicode="&#x130;" horiz-adv-x="290" 
d="M240 0l-195.001 0.000976562v10h7c26.667 0 43 2 49 6s9 16.333 9 37v561c0 11.333 -0.333008 19.666 -1 24.999s-2.66699 9.83301 -6 13.5s-8.66602 5.5 -15.999 5.5h-42v10h195v-10h-60v-648h60v-10zM182.999 738.001c0 -10.667 -3.66699 -19.667 -11 -27
s-16.333 -11 -27 -11s-19.667 3.66699 -27 11s-11 16.333 -11 27s3.66699 19.667 11 27s16.333 11 27 11s19.667 -3.66699 27 -11s11 -16.333 11 -27z" />
    <glyph glyph-name="dotlessi" unicode="&#x131;" horiz-adv-x="197" 
d="M175 0h-152v10h25c9.33301 0 15.5 1.66699 18.5 5s4.5 11 4.5 23v279c0 11.333 -0.166992 19.333 -0.5 24s-2.5 9.16699 -6.5 13.5s-10.333 6.5 -19 6.5h-22v10h108v-361h44v-10z" />
    <glyph glyph-name="IJ" unicode="&#x132;" horiz-adv-x="575" 
d="M540 658h-70.0039v-634c0 -109.333 -28.333 -190.333 -85 -243c-26.667 -24.667 -52.667 -37 -78 -37c-26 0 -47.5 6.16699 -64.5 18.5s-25.5 27.5 -25.5 45.5c0 10.667 3.33301 19.834 10 27.501s15.667 11.5 27 11.5c8.66699 0 15.667 -3.33301 21 -10
s8 -14.334 8 -23.001c0 -15.333 -8.66699 -26 -26 -32c2.66699 -6.66699 8.83398 -13.334 18.501 -20.001s19.834 -10 30.501 -10c14.667 0 28.834 4.33301 42.501 13s23.834 19.334 30.501 32.001c15.333 29.333 23 77.333 23 144c0 14 -0.333008 31.333 -1 52
s-1 33.667 -1 39v568c0 27.333 -1.66699 43.833 -5 49.5s-13.333 8.5 -30 8.5h-36v10h211v-10zM239.996 0l-195.001 0.000976562v10h7c26.667 0 43 2 49 6s9 16.333 9 37v561c0 11.333 -0.333008 19.666 -1 24.999s-2.66699 9.83301 -6 13.5s-8.66602 5.5 -15.999 5.5h-42
v10h195v-10h-60v-648h60v-10z" />
    <glyph glyph-name="ij" unicode="&#x133;" horiz-adv-x="382" 
d="M133 575c0 -10.667 -3.66699 -19.667 -11 -27s-16.333 -11 -27 -11s-19.667 3.66699 -27 11s-11 16.333 -11 27s3.66699 19.667 11 27s16.333 11 27 11s19.667 -3.66699 27 -11s11 -16.333 11 -27zM175 0h-152v10h25c9.33301 0 15.5 1.66699 18.5 5s4.5 11 4.5 23v279
c0 11.333 -0.166992 19.333 -0.5 24s-2.5 9.16699 -6.5 13.5s-10.333 6.5 -19 6.5h-22v10h108v-361h44v-10zM325 580c0 -10.667 -3.66699 -19.667 -11 -27s-16.333 -11 -27 -11s-19.667 3.66699 -27 11s-11 16.333 -11 27s3.66699 19.667 11 27s16.333 11 27 11
s19.667 -3.66699 27 -11s11 -16.333 11 -27zM322 -30c0 -104 -13.667 -177.332 -41 -219.999c-6.66699 -10.667 -17 -21 -31 -31s-27.667 -15 -41 -15c-21.333 0 -39.833 5.83301 -55.5 17.5s-23.5 25.167 -23.5 40.5c0 11.333 3.33301 20.5 10 27.5s14 10.5 22 10.5
c20 0 30 -10 30 -30c0 -14 -9.33301 -24.667 -28 -32c3.33301 -6.66699 5.5 -10.834 6.5 -12.501s5.16699 -4.5 12.5 -8.5s16 -6 26 -6c16.667 0 30.167 8.5 40.5 25.5s15.833 35.833 16.5 56.5c0 4 -0.666992 23.5 -2 58.5s-2 59.833 -2 74.5v392v8.5v9
c0 1.66699 -0.166992 4.16699 -0.5 7.5s-0.833008 5.83301 -1.5 7.5s-1.83398 3.5 -3.50098 5.5s-3.66699 3.33301 -6 4s-5.16602 1 -8.49902 1h-33v10h113v-401z" />
    <glyph glyph-name="Jcircumflex" unicode="&#x134;" horiz-adv-x="285" 
d="M250 658h-70.0039v-634c0 -109.333 -28.333 -190.333 -85 -243c-26.667 -24.667 -52.667 -37 -78 -37c-26 0 -47.5 6.16699 -64.5 18.5s-25.5 27.5 -25.5 45.5c0 10.667 3.33301 19.834 10 27.501s15.667 11.5 27 11.5c8.66699 0 15.667 -3.33301 21 -10
s8 -14.334 8 -23.001c0 -15.333 -8.66699 -26 -26 -32c2.66699 -6.66699 8.83398 -13.334 18.501 -20.001s19.834 -10 30.501 -10c14.667 0 28.834 4.33301 42.501 13s23.834 19.334 30.501 32.001c15.333 29.333 23 77.333 23 144c0 14 -0.333008 31.333 -1 52
s-1 33.667 -1 39v568c0 27.333 -1.66699 43.833 -5 49.5s-13.333 8.5 -30 8.5h-36v10h211v-10zM278.996 695l-8 -4l-121 79h-7l-123 -79l-8 4l131 111h7z" />
    <glyph glyph-name="jcircumflex" unicode="&#x135;" horiz-adv-x="190" 
d="M130 -30c0 -104 -13.667 -177.332 -41 -219.999c-6.66699 -10.667 -17 -21 -31 -31s-27.667 -15 -41 -15c-21.333 0 -39.833 5.83301 -55.5 17.5s-23.5 25.167 -23.5 40.5c0 11.333 3.33301 20.5 10 27.5s14 10.5 22 10.5c20 0 30 -10 30 -30
c0 -14 -9.33301 -24.667 -28 -32c3.33301 -6.66699 5.5 -10.834 6.5 -12.501s5.16699 -4.5 12.5 -8.5s16 -6 26 -6c16.667 0 30.167 8.5 40.5 25.5s15.833 35.833 16.5 56.5c0 4 -0.666992 23.5 -2 58.5s-2 59.833 -2 74.5v392v8.5v9c0 1.66699 -0.166992 4.16699 -0.5 7.5
s-0.833008 5.83301 -1.5 7.5s-1.83398 3.5 -3.50098 5.5s-3.66699 3.33301 -6 4s-5.16602 1 -8.49902 1h-33v10h113v-401zM187 434.001l-8 -4l-81 109h-7l-83 -109l-8 4l89 151h11z" />
    <glyph glyph-name="Kcommaaccent" unicode="&#x136;" horiz-adv-x="642" 
d="M656 0h-212v10h64l-286 337l-42 -50v-287h62v-10h-204v10h20c21.333 0.666992 35.333 3.66699 42 9s10 18 10 38v516c0 39.333 -2.33301 63.333 -7 72s-19.334 13 -44.001 13h-14v10h197v-10h-62v-348l289 348h-80v10h184v-10h-55c-13.333 0 -24.666 -2 -33.999 -6
s-20.333 -13.667 -33 -29l-183 -220l262 -310c46 -55.333 78.333 -83 97 -83h29v-10zM389 -99c0 -20 -7.33203 -42.666 -21.999 -67.999s-32 -48 -52 -68l-5 6c36.667 42.667 55 81.667 55 117c0 8.66699 -2 15 -6 19c-4.66699 -12.667 -15.334 -19 -32.001 -19
c-8.66699 0 -16.667 3.66699 -24 11s-11 16.666 -11 27.999c0 12 4 22 12 30s18.667 12 32 12c16 0 28.833 -5.66699 38.5 -17s14.5 -28.333 14.5 -51z" />
    <glyph glyph-name="kcommaaccent" unicode="&#x137;" horiz-adv-x="387" 
d="M405 0l-152 -0.00195312v10h48l-176 193v-193h44v-10h-152v10h22c10.667 0 17.667 1.33301 21 4s5 9.33398 5 20.001v608c0 14.667 -1.66699 24.334 -5 29.001s-11 7 -23 7h-20v10h108v-479l149 152h-51v10h130v-10h-65l-119 -121l208 -230h28v-10zM254 -119.002
c0 -20 -7.33203 -42.666 -21.999 -67.999s-32 -48 -52 -68l-5 6c36.667 42.667 55 81.667 55 117c0 8.66699 -2 15 -6 19c-4.66699 -12.667 -15.334 -19 -32.001 -19c-8.66699 0 -16.667 3.66699 -24 11s-11 16.666 -11 27.999c0 12 4 22 12 30s18.667 12 32 12
c16 0 28.833 -5.66699 38.5 -17s14.5 -28.333 14.5 -51z" />
    <glyph glyph-name="kgreenlandic" unicode="&#x138;" horiz-adv-x="387" 
d="M405 0l-152 -0.00195312v10h48l-176 193v-193h44v-10h-152v10h22c10.667 0 17.667 1.33301 21 4s5 9.33398 5 20.001v291c0 14.667 -1.66699 24.334 -5 29.001s-11 7 -23 7h-20v10h108v-162l149 152h-51v10h130v-10h-65l-119 -121l208 -230h28v-10z" />
    <glyph glyph-name="Lacute" unicode="&#x139;" horiz-adv-x="525" 
d="M521 0l-484 -0.000976562v10c27.333 0 46.333 2.83301 57 8.5s16 18.5 16 38.5v549c0 23.333 -4.33301 37.833 -13 43.5s-28.667 8.5 -60 8.5v10h218v-10h-75v-648c107.333 0 190 0.666992 248 2c44 0.666992 71.667 37.334 83 110.001h10v-122zM253 753.999l-3 -28
l-195 -38l-3 7l181 83z" />
    <glyph glyph-name="lacute" unicode="&#x13a;" horiz-adv-x="190" 
d="M170 0l-152 0.000976562v10h25c8.66699 0 14.667 1.5 18 4.5s5 9.5 5 19.5v596c0 19.333 -1.5 32.166 -4.5 38.499s-9.83301 9.5 -20.5 9.5h-23v10h108v-678h44v-10zM76 753.001l-7 2l53 192h31l20 -20z" />
    <glyph glyph-name="Lcommaaccent" unicode="&#x13b;" horiz-adv-x="525" 
d="M521 0l-484 -0.000976562v10c27.333 0 46.333 2.83301 57 8.5s16 18.5 16 38.5v549c0 23.333 -4.33301 37.833 -13 43.5s-28.667 8.5 -60 8.5v10h218v-10h-75v-648c107.333 0 190 0.666992 248 2c44 0.666992 71.667 37.334 83 110.001h10v-122zM361 -119.001
c0 -20 -7.33203 -42.666 -21.999 -67.999s-32 -48 -52 -68l-5 6c36.667 42.667 55 81.667 55 117c0 8.66699 -2 15 -6 19c-4.66699 -12.667 -15.334 -19 -32.001 -19c-8.66699 0 -16.667 3.66699 -24 11s-11 16.666 -11 27.999c0 12 4 22 12 30s18.667 12 32 12
c16 0 28.833 -5.66699 38.5 -17s14.5 -28.333 14.5 -51z" />
    <glyph glyph-name="lcommaaccent" unicode="&#x13c;" horiz-adv-x="190" 
d="M143 -119c0 -20 -7.33203 -42.666 -21.999 -67.999s-32 -48 -52 -68l-5 6c36.667 42.667 55 81.667 55 117c0 8.66699 -2 15 -6 19c-4.66699 -12.667 -15.334 -19 -32.001 -19c-8.66699 0 -16.667 3.66699 -24 11s-11 16.666 -11 27.999c0 12 4 22 12 30s18.667 12 32 12
c16 0 28.833 -5.66699 38.5 -17s14.5 -28.333 14.5 -51zM170.001 0.000976562l-152 0.000976562v10h25c8.66699 0 14.667 1.5 18 4.5s5 9.5 5 19.5v596c0 19.333 -1.5 32.166 -4.5 38.499s-9.83301 9.5 -20.5 9.5h-23v10h108v-678h44v-10z" />
    <glyph glyph-name="Lcaron" unicode="&#x13d;" horiz-adv-x="525" 
d="M521 0l-484 -0.000976562v10c27.333 0 46.333 2.83301 57 8.5s16 18.5 16 38.5v549c0 23.333 -4.33301 37.833 -13 43.5s-28.667 8.5 -60 8.5v10h218v-10h-75v-648c107.333 0 190 0.666992 248 2c44 0.666992 71.667 37.334 83 110.001h10v-122zM424 473.999
c34.667 26.667 56.334 54.6641 65.001 83.9971c0.666992 3.33301 1 7.33301 1 12c0 6 -1.66699 9 -5 9c-1.33301 0 -3.83301 -0.833008 -7.5 -2.5s-6.83398 -2.5 -9.50098 -2.5c-9.33301 0 -16.666 3.33301 -21.999 10s-8 14.334 -8 23.001
c0 9.33301 2.83301 17.833 8.5 25.5s12.5 11.5 20.5 11.5c11.333 0 20.666 -5 27.999 -15s11 -21 11 -33c0 -27.333 -8.5 -52.666 -25.5 -75.999s-34.167 -40.666 -51.5 -51.999z" />
    <glyph glyph-name="lcaron" unicode="&#x13e;" horiz-adv-x="209" 
d="M173 517c34.667 26.667 56.334 54.6641 65.001 83.9971c0.666992 3.33301 1 7.33301 1 12c0 6 -1.66699 9 -5 9c-1.33301 0 -3.83301 -0.833008 -7.5 -2.5s-6.83398 -2.5 -9.50098 -2.5c-9.33301 0 -16.666 3.33301 -21.999 10s-8 14.334 -8 23.001
c0 9.33301 2.83301 17.833 8.5 25.5s12.5 11.5 20.5 11.5c11.333 0 20.666 -5 27.999 -15s11 -21 11 -33c0 -27.333 -8.5 -52.666 -25.5 -75.999s-34.167 -40.666 -51.5 -51.999zM170 -0.00292969l-152 0.000976562v10h25c8.66699 0 14.667 1.5 18 4.5s5 9.5 5 19.5v596
c0 19.333 -1.5 32.166 -4.5 38.499s-9.83301 9.5 -20.5 9.5h-23v10h108v-678h44v-10z" />
    <glyph glyph-name="Lslash" unicode="&#x141;" horiz-adv-x="525" 
d="M-2 184l112 138.999v283c0 23.333 -4.33301 37.833 -13 43.5s-28.667 8.5 -60 8.5v10h218v-10h-75v-249l115 143v-10l-115 -143v-389c107.333 0 190 0.666992 248 2c44 0.666992 71.667 37.334 83 110.001h10v-122h-484v10c27.333 0 46.333 2.83301 57 8.5
s16 18.5 16 38.5v256l-112 -139v10z" />
    <glyph glyph-name="lslash" unicode="&#x142;" horiz-adv-x="190" 
d="M-14 174v10.001l80 99v347c0 19.333 -1.5 32.166 -4.5 38.499s-9.83301 9.5 -20.5 9.5h-23v10h108v-331l80 99v-10l-80 -99v-337h44v-10h-152v10h25c8.66699 0 14.667 1.5 18 4.5s5 9.5 5 19.5v239z" />
    <glyph glyph-name="Nacute" unicode="&#x143;" horiz-adv-x="665" 
d="M632 658h-66.999v-673h-3l-448 660v-635h88v-10h-172v10h15c12 0 21 0.5 27 1.5s12 2.83301 18 5.5s10 7 12 13s3 14.333 3 25v544c0 26 -4.83301 42.333 -14.5 49s-26.834 10 -51.501 10h-15v10h161l370 -545v506c0 12 -2.66699 19.833 -8 23.5s-20 5.5 -44 5.5h-23v10
h152v-10zM455.001 734l-3 -28l-195 -38l-3 7l181 83z" />
    <glyph glyph-name="nacute" unicode="&#x144;" horiz-adv-x="438" 
d="M421 0h-162v10h35c8.66699 0 14.167 1.5 16.5 4.5s3.5 10.833 3.5 23.5v185c0 20 -0.166992 35.333 -0.5 46s-1.83301 22.5 -4.5 35.5s-6.5 22.5 -11.5 28.5s-12 11.167 -21 15.5s-20.5 6.5 -34.5 6.5c-31.333 0 -68.666 -18.333 -111.999 -55v-290h42v-10h-150v10h22
c11.333 0 18.5 1.5 21.5 4.5s4.5 9.5 4.5 19.5v284c0 16.667 -1.33301 28 -4 34s-10.334 9 -23.001 9h-21v10h108v-61c14.667 14.667 35.667 30.5 63 47.5s51.666 25.5 72.999 25.5c42.667 0 71.334 -11 86.001 -33s22 -57 22 -105v-235h47v-10zM211 434l-7 2l53 192h31
l20 -20z" />
    <glyph glyph-name="Ncommaaccent" unicode="&#x145;" horiz-adv-x="665" 
d="M632 658h-66.999v-673h-3l-448 660v-635h88v-10h-172v10h15c12 0 21 0.5 27 1.5s12 2.83301 18 5.5s10 7 12 13s3 14.333 3 25v544c0 26 -4.83301 42.333 -14.5 49s-26.834 10 -51.501 10h-15v10h161l370 -545v506c0 12 -2.66699 19.833 -8 23.5s-20 5.5 -44 5.5h-23v10
h152v-10zM414.001 -79c0 -20 -7.33203 -42.666 -21.999 -67.999s-32 -48 -52 -68l-5 6c36.667 42.667 55 81.667 55 117c0 8.66699 -2 15 -6 19c-4.66699 -12.667 -15.334 -19 -32.001 -19c-8.66699 0 -16.667 3.66699 -24 11s-11 16.666 -11 27.999c0 12 4 22 12 30
s18.667 12 32 12c16 0 28.833 -5.66699 38.5 -17s14.5 -28.333 14.5 -51z" />
    <glyph glyph-name="ncommaaccent" unicode="&#x146;" horiz-adv-x="438" 
d="M421 0h-162v10h35c8.66699 0 14.167 1.5 16.5 4.5s3.5 10.833 3.5 23.5v185c0 20 -0.166992 35.333 -0.5 46s-1.83301 22.5 -4.5 35.5s-6.5 22.5 -11.5 28.5s-12 11.167 -21 15.5s-20.5 6.5 -34.5 6.5c-31.333 0 -68.666 -18.333 -111.999 -55v-290h42v-10h-150v10h22
c11.333 0 18.5 1.5 21.5 4.5s4.5 9.5 4.5 19.5v284c0 16.667 -1.33301 28 -4 34s-10.334 9 -23.001 9h-21v10h108v-61c14.667 14.667 35.667 30.5 63 47.5s51.666 25.5 72.999 25.5c42.667 0 71.334 -11 86.001 -33s22 -57 22 -105v-235h47v-10zM267 -119
c0 -20 -7.33203 -42.666 -21.999 -67.999s-32 -48 -52 -68l-5 6c36.667 42.667 55 81.667 55 117c0 8.66699 -2 15 -6 19c-4.66699 -12.667 -15.334 -19 -32.001 -19c-8.66699 0 -16.667 3.66699 -24 11s-11 16.666 -11 27.999c0 12 4 22 12 30s18.667 12 32 12
c16 0 28.833 -5.66699 38.5 -17s14.5 -28.333 14.5 -51z" />
    <glyph glyph-name="Ncaron" unicode="&#x147;" horiz-adv-x="665" 
d="M632 658h-66.999v-673h-3l-448 660v-635h88v-10h-172v10h15c12 0 21 0.5 27 1.5s12 2.83301 18 5.5s10 7 12 13s3 14.333 3 25v544c0 26 -4.83301 42.333 -14.5 49s-26.834 10 -51.501 10h-15v10h161l370 -545v506c0 12 -2.66699 19.833 -8 23.5s-20 5.5 -44 5.5h-23v10
h152v-10zM488.001 740l3 -11l-140 -61h-11l-146 72l8 4l141 -37h7z" />
    <glyph glyph-name="ncaron" unicode="&#x148;" horiz-adv-x="438" 
d="M421 0h-162v10h35c8.66699 0 14.167 1.5 16.5 4.5s3.5 10.833 3.5 23.5v185c0 20 -0.166992 35.333 -0.5 46s-1.83301 22.5 -4.5 35.5s-6.5 22.5 -11.5 28.5s-12 11.167 -21 15.5s-20.5 6.5 -34.5 6.5c-31.333 0 -68.666 -18.333 -111.999 -55v-290h42v-10h-150v10h22
c11.333 0 18.5 1.5 21.5 4.5s4.5 9.5 4.5 19.5v284c0 16.667 -1.33301 28 -4 34s-10.334 9 -23.001 9h-21v10h108v-61c14.667 14.667 35.667 30.5 63 47.5s51.666 25.5 72.999 25.5c42.667 0 71.334 -11 86.001 -33s22 -57 22 -105v-235h47v-10zM133 581l8 4l81 -109h7
l83 109l8 -4l-89 -151h-11z" />
    <glyph glyph-name="Eng" unicode="&#x14a;" horiz-adv-x="729" 
d="M694 658h-70.0029v-634c0 -109.333 -28.333 -190.333 -85 -243c-26.667 -24.667 -52.667 -37 -78 -37c-26 0 -47.5 6.16699 -64.5 18.5s-25.5 27.5 -25.5 45.5c0 10.667 3.33301 19.834 10 27.501s15.667 11.5 27 11.5c8.66699 0 15.667 -3.33301 21 -10
s8 -14.334 8 -23.001c0 -15.333 -8.66699 -26 -26 -32c2.66699 -6.66699 8.83398 -13.334 18.501 -20.001s19.834 -10 30.501 -10c14.667 0 28.834 4.33301 42.501 13s23.834 19.334 30.501 32.001c15.333 29.333 23 77.333 23 144c0 6.66699 -0.166992 16.167 -0.5 28.5
s-0.5 20.833 -0.5 25.5l-441 650v-635h88v-10h-172v10h15c12 0 21 0.5 27 1.5s12 2.83301 18 5.5s10 7 12 13s3 14.333 3 25v544c0 26 -4.83301 42.333 -14.5 49s-26.834 10 -51.501 10h-15v10h161l369 -544v476c0 27.333 -1.66699 43.833 -5 49.5s-13.333 8.5 -30 8.5h-36
v10h211v-10z" />
    <glyph glyph-name="eng" unicode="&#x14b;" horiz-adv-x="434" 
d="M374 -30c0 -104 -13.667 -177.332 -41 -219.999c-6.66699 -10.667 -17 -21 -31 -31s-27.667 -15 -41 -15c-21.333 0 -39.833 5.83301 -55.5 17.5s-23.5 25.167 -23.5 40.5c0 11.333 3.33301 20.5 10 27.5s14 10.5 22 10.5c20 0 30 -10 30 -30
c0 -14 -9.33301 -24.667 -28 -32c3.33301 -6.66699 5.5 -10.834 6.5 -12.501s5.16699 -4.5 12.5 -8.5s16 -6 26 -6c16.667 0 30.167 8.5 40.5 25.5s15.833 35.833 16.5 56.5c0 4 -0.666992 23.5 -2 58.5s-2 59.833 -2 74.5v297c0 20 -0.166992 35.333 -0.5 46
s-1.83301 22.5 -4.5 35.5s-6.5 22.5 -11.5 28.5s-12 11.167 -21 15.5s-20.5 6.5 -34.5 6.5c-31.333 0 -68.666 -18.333 -111.999 -55v-290h42v-10h-150v10h22c11.333 0 18.5 1.5 21.5 4.5s4.5 9.5 4.5 19.5v284c0 16.667 -1.33301 28 -4 34s-10.334 9 -23.001 9h-21v10h108
v-61c14.667 14.667 35.667 30.5 63 47.5s51.666 25.5 72.999 25.5c42.667 0 71.334 -11 86.001 -33s22 -57 22 -105v-275z" />
    <glyph glyph-name="Omacron" unicode="&#x14c;" horiz-adv-x="740" 
d="M710 345c0 -54 -10.835 -104.001 -32.502 -150.001s-49.5 -83.833 -83.5 -113.5s-71.333 -52.667 -112 -69s-81 -24.5 -121 -24.5c-39.333 0 -78.166 7.83301 -116.499 23.5s-73.666 37.667 -105.999 66s-58.5 65.333 -78.5 111s-30 95.5 -30 149.5
c0 68.667 18 129.667 54 183s79.667 92.833 131 118.5s104 38.5 158 38.5c93.333 0 172.833 -31.667 238.5 -95s98.5 -142.666 98.5 -237.999zM629.998 343.999c0 96 -24.667 173.833 -74 233.5s-110 89.5 -182 89.5c-74 0 -136.5 -31.833 -187.5 -95.5
s-76.5 -142.167 -76.5 -235.5c0 -108 23.833 -191 71.5 -249s111.5 -87 191.5 -87c70 0 130.333 32 181 96s76 146.667 76 248zM481.998 720.999h-224v20h224v-20z" />
    <glyph glyph-name="omacron" unicode="&#x14d;" 
d="M409 185c0 -50.667 -19.167 -96.166 -57.5 -136.499s-86.5 -60.5 -144.5 -60.5c-51.333 0 -94.833 18.5 -130.5 55.5s-53.5 83.167 -53.5 138.5c0 52 19.5 98.5 58.5 139.5s83.167 61.5 132.5 61.5c62 0 110 -19.333 144 -58s51 -85.334 51 -140.001zM344 187.001
c0 54.667 -12.3311 99.501 -36.998 134.501s-56 52.5 -94 52.5c-40 0 -70.667 -19 -92 -57s-32 -81.333 -32 -130c0 -55.333 12.667 -100.833 38 -136.5s53.333 -53.5 84 -53.5c25.333 0 47.166 5.66699 65.499 17s32.166 26.666 41.499 45.999s16 39.333 20 60s6 43 6 67z
M328.002 475.002h-224v20h224v-20z" />
    <glyph glyph-name="Obreve" unicode="&#x14e;" horiz-adv-x="740" 
d="M710 345c0 -54 -10.835 -104.001 -32.502 -150.001s-49.5 -83.833 -83.5 -113.5s-71.333 -52.667 -112 -69s-81 -24.5 -121 -24.5c-39.333 0 -78.166 7.83301 -116.499 23.5s-73.666 37.667 -105.999 66s-58.5 65.333 -78.5 111s-30 95.5 -30 149.5
c0 68.667 18 129.667 54 183s79.667 92.833 131 118.5s104 38.5 158 38.5c93.333 0 172.833 -31.667 238.5 -95s98.5 -142.666 98.5 -237.999zM629.998 343.999c0 96 -24.667 173.833 -74 233.5s-110 89.5 -182 89.5c-74 0 -136.5 -31.833 -187.5 -95.5
s-76.5 -142.167 -76.5 -235.5c0 -108 23.833 -191 71.5 -249s111.5 -87 191.5 -87c70 0 130.333 32 181 96s76 146.667 76 248zM464.998 835.999l7 -1.99902c-4 -43.333 -16.667 -76.5 -38 -99.5s-44.333 -34.5 -69 -34.5c-30 0 -55.167 12.5 -75.5 37.5
s-34.5 57.5 -42.5 97.5l6 3c10.667 -34.667 27.167 -61.834 49.5 -81.501s43.5 -29.5 63.5 -29.5c52 0 85 36.333 99 109z" />
    <glyph glyph-name="obreve" unicode="&#x14f;" 
d="M409 185c0 -50.667 -19.167 -96.166 -57.5 -136.499s-86.5 -60.5 -144.5 -60.5c-51.333 0 -94.833 18.5 -130.5 55.5s-53.5 83.167 -53.5 138.5c0 52 19.5 98.5 58.5 139.5s83.167 61.5 132.5 61.5c62 0 110 -19.333 144 -58s51 -85.334 51 -140.001zM344 187.001
c0 54.667 -12.3311 99.501 -36.998 134.501s-56 52.5 -94 52.5c-40 0 -70.667 -19 -92 -57s-32 -81.333 -32 -130c0 -55.333 12.667 -100.833 38 -136.5s53.333 -53.5 84 -53.5c25.333 0 47.166 5.66699 65.499 17s32.166 26.666 41.499 45.999s16 39.333 20 60s6 43 6 67z
M321.002 557.002l6.99902 -1.99902c-4 -43.333 -16.667 -76.5 -38 -99.5s-44.333 -34.5 -69 -34.5c-30 0 -55.167 12.5 -75.5 37.5s-34.5 57.5 -42.5 97.5l6 3c10.667 -34.667 27.334 -61.834 50.001 -81.501s43.667 -29.5 63 -29.5c52 0 85 36.333 99 109z" />
    <glyph glyph-name="Ohungarumlaut" unicode="&#x150;" horiz-adv-x="740" 
d="M496 773l-56.002 -101.999c78 -14.667 142.5 -52 193.5 -112s76.5 -131.333 76.5 -214c0 -54 -10.833 -104 -32.5 -150s-49.5 -83.833 -83.5 -113.5s-71.333 -52.667 -112 -69s-81 -24.5 -121 -24.5c-39.333 0 -78.166 7.83301 -116.499 23.5s-73.666 37.667 -105.999 66
s-58.5 65.333 -78.5 111s-30 95.5 -30 149.5c0 91.333 29.5 167.166 88.5 227.499s127.833 96.5 206.5 108.5l32 118h44l5 -19l-52 -96c4 0.666992 10.333 1 19 1c14 0 28 -1 42 -3l32 117h44zM629.998 344.001c0 81.333 -18.333 150.167 -55 206.5s-83.667 92.5 -141 108.5
l-33 -61l-6 3l17 62c-17.333 2.66699 -30 4 -38 4c-6 0 -15 -0.666992 -27 -2l-36 -67l-6 3l16 60c-61.333 -15.333 -111.833 -53 -151.5 -113s-59.5 -130.667 -59.5 -212c0 -108 23.833 -191 71.5 -249s111.5 -87 191.5 -87c70 0 130.333 32 181 96s76 146.667 76 248z" />
    <glyph glyph-name="ohungarumlaut" unicode="&#x151;" 
d="M409 185c0 -50.667 -19.167 -96.166 -57.5 -136.499s-86.5 -60.5 -144.5 -60.5c-51.333 0 -94.833 18.5 -130.5 55.5s-53.5 83.167 -53.5 138.5c0 52 19.5 98.5 58.5 139.5s83.167 61.5 132.5 61.5c62 0 110 -19.333 144 -58s51 -85.334 51 -140.001zM344 187.001
c0 54.667 -12.3311 99.501 -36.998 134.501s-56 52.5 -94 52.5c-40 0 -70.667 -19 -92 -57s-32 -81.333 -32 -130c0 -55.333 12.667 -100.833 38 -136.5s53.333 -53.5 84 -53.5c25.333 0 47.166 5.66699 65.499 17s32.166 26.666 41.499 45.999s16 39.333 20 60s6 43 6 67z
M352.002 609.002l-95 -175l-6 3l52 191h44zM262.002 609.002l-95 -175l-6 3l52 191h44z" />
    <glyph glyph-name="OE" unicode="&#x152;" horiz-adv-x="788" 
d="M764 0l-316.005 0.00195312c-28 -8 -56.333 -12 -85 -12c-53.333 0 -105.166 13.5 -155.499 40.5s-92.333 67.833 -126 122.5s-50.167 117 -49.5 187c0.666992 69.333 19 130.666 55 183.999s79.333 92.666 130 117.999s103.334 38 158.001 38c30 0 58 -3.33301 84 -10
h263v-111h-10c-4 35.333 -13.167 61 -27.5 77s-40.166 24 -77.499 24h-115c66 -23.333 119.5 -63.666 160.5 -120.999s60.833 -123.333 59.5 -198c-1.33301 -79.333 -24.166 -147.833 -68.499 -205.5s-99.166 -98.834 -164.499 -123.501h166c42.667 0 70.667 6.66699 84 20
s22 39 26 77h9v-107zM631.995 340.002v8.99902c0 81.333 -18.667 149.833 -56 205.5s-85 90.834 -143 105.501v-320h199zM631.995 330.001h-156c-11.333 0 -21.333 -2.83301 -30 -8.5s-13 -14.5 -13 -26.5v-285h5c54 18 99.5 55.833 136.5 113.5s56.167 126.5 57.5 206.5z
M362.995 0.000976562v667c-70.667 -4 -130.834 -38.5 -180.501 -103.5s-73.167 -144.833 -70.5 -239.5c2.66699 -100.667 26.334 -179 71.001 -235s104.667 -85.667 180 -89z" />
    <glyph glyph-name="oe" unicode="&#x153;" horiz-adv-x="692" 
d="M672 225l-263.002 0.00195312v-7c0 -31.333 3.83301 -61.833 11.5 -91.5s22 -56.667 43 -81s47.167 -36.5 78.5 -36.5c20.667 0 39.5 4.33301 56.5 13s29.167 16.834 36.5 24.501s15.666 18.167 24.999 31.5l7 -5c-14.667 -24.667 -34.5 -44.667 -59.5 -60
s-50.5 -23 -76.5 -23c-72.667 0 -125.334 28.333 -158.001 85c-17.333 -26.667 -40.666 -47.834 -69.999 -63.501s-61.666 -23.5 -96.999 -23.5c-50 0 -93 18.667 -129 56s-54 83.666 -54 138.999c0 52 19.5 98.333 58.5 139s83.167 61 132.5 61
c72 0 126.333 -27.333 163 -82c33.333 53.333 82 80 146 80c36.667 0 65.834 -8.16699 87.501 -24.5s36.834 -35.5 45.501 -57.5c10.667 -26.667 16 -51.334 16 -74.001zM614.998 235.002c-4 43.333 -13.833 77.001 -29.5 101.001s-36.167 36 -61.5 36
c-41.333 -0.666992 -70.5 -12.834 -87.5 -36.501s-26.167 -57.167 -27.5 -100.5h206zM343.998 189.003c0 54.667 -12.498 99.168 -37.498 133.501s-56.5 51.5 -94.5 51.5c-40 0 -70.5 -19.333 -91.5 -58s-31.5 -82.334 -31.5 -131.001c0 -55.333 12.667 -100.5 38 -135.5
s53.666 -52.5 84.999 -52.5c24.667 0 46 5.66699 64 17s31.667 26.5 41 45.5s16.166 39.167 20.499 60.5s6.5 44.333 6.5 69z" />
    <glyph glyph-name="Racute" unicode="&#x154;" horiz-adv-x="598" 
d="M605 -3l-12.002 0.00195312c-66 -1.33301 -115 10.667 -147 36c-14.667 11.333 -25.834 25.166 -33.501 41.499s-12 28.166 -13 35.499s-2.5 22.333 -4.5 45c-3.33301 38.667 -6.66602 67.167 -9.99902 85.5s-10 36 -20 53s-23.667 28.667 -41 35
s-41.333 11.166 -72 14.499l-72 5v-338h72v-10h-216v10h15c22.667 0 38.167 2.66699 46.5 8s12.5 17.666 12.5 36.999v553c0 20 -4.5 33.167 -13.5 39.5s-24.167 9.83301 -45.5 10.5h-18v10h246c58.667 0 102 -9.66699 130 -29c38 -26 56.333 -67.333 55 -124
c0 -29.333 -6.66699 -55.333 -20 -78s-26.166 -38.5 -38.499 -47.5s-24.833 -16.5 -37.5 -22.5c-25.333 -11.333 -45.666 -18.333 -60.999 -21c1.33301 -0.666992 13 -4.66699 35 -12s41.833 -16.833 59.5 -28.5s32.5 -27.167 44.5 -46.5
c10.667 -16.667 18.334 -46.167 23.001 -88.5s12 -74.166 22 -95.499c6 -13.333 14.667 -25.333 26 -36s21.666 -18 30.999 -22c12 -5.33301 31 -8.66602 57 -9.99902v-10zM398.998 503.002c-2 47.333 -15.8311 85 -41.498 113s-64.167 42 -115.5 42h-62v-299
c44 -4 77.333 -6 100 -6c30.667 0 55.667 9.16699 75 27.5s31.666 38 36.999 59s7.66602 42.167 6.99902 63.5zM367 754.002l-3 -28l-195 -38l-3 7l181 83z" />
    <glyph glyph-name="racute" unicode="&#x155;" horiz-adv-x="297" 
d="M298 342c0 -10.667 -2.83301 -19.667 -8.5 -27s-13.167 -11 -22.5 -11s-17.166 2.66699 -23.499 8s-9.5 13.333 -9.5 24c0 13.333 5.33301 22.333 16 27c-5.33301 2.66699 -9.33301 4 -12 4c-15.333 0 -33.333 -7.5 -54 -22.5s-38.667 -31.833 -54 -50.5v-284h56v-10
h-164v10h24c9.33301 0 15.666 1.83301 18.999 5.5s5 11.167 5 22.5v279c0 17.333 -1.5 29 -4.5 35s-9.5 9 -19.5 9h-24v10h108v-67c23.333 26 44.333 45.333 63 58s39.667 19 63 19c28 0 42 -13 42 -39zM152 434l-7 2l53 192h31l20 -20z" />
    <glyph glyph-name="Rcommaaccent" unicode="&#x156;" horiz-adv-x="598" 
d="M605 -3l-12.002 0.00195312c-66 -1.33301 -115 10.667 -147 36c-14.667 11.333 -25.834 25.166 -33.501 41.499s-12 28.166 -13 35.499s-2.5 22.333 -4.5 45c-3.33301 38.667 -6.66602 67.167 -9.99902 85.5s-10 36 -20 53s-23.667 28.667 -41 35
s-41.333 11.166 -72 14.499l-72 5v-338h72v-10h-216v10h15c22.667 0 38.167 2.66699 46.5 8s12.5 17.666 12.5 36.999v553c0 20 -4.5 33.167 -13.5 39.5s-24.167 9.83301 -45.5 10.5h-18v10h246c58.667 0 102 -9.66699 130 -29c38 -26 56.333 -67.333 55 -124
c0 -29.333 -6.66699 -55.333 -20 -78s-26.166 -38.5 -38.499 -47.5s-24.833 -16.5 -37.5 -22.5c-25.333 -11.333 -45.666 -18.333 -60.999 -21c1.33301 -0.666992 13 -4.66699 35 -12s41.833 -16.833 59.5 -28.5s32.5 -27.167 44.5 -46.5
c10.667 -16.667 18.334 -46.167 23.001 -88.5s12 -74.166 22 -95.499c6 -13.333 14.667 -25.333 26 -36s21.666 -18 30.999 -22c12 -5.33301 31 -8.66602 57 -9.99902v-10zM398.998 503.002c-2 47.333 -15.8311 85 -41.498 113s-64.167 42 -115.5 42h-62v-299
c44 -4 77.333 -6 100 -6c30.667 0 55.667 9.16699 75 27.5s31.666 38 36.999 59s7.66602 42.167 6.99902 63.5zM396 -83.998c0 -20 -7.33203 -42.666 -21.999 -67.999s-32 -48 -52 -68l-5 6c36.667 42.667 55 81.667 55 117c0 8.66699 -2 15 -6 19
c-4.66699 -12.667 -15.334 -19 -32.001 -19c-8.66699 0 -16.667 3.66699 -24 11s-11 16.666 -11 27.999c0 12 4 22 12 30s18.667 12 32 12c16 0 28.833 -5.66699 38.5 -17s14.5 -28.333 14.5 -51z" />
    <glyph glyph-name="rcommaaccent" unicode="&#x157;" horiz-adv-x="297" 
d="M298 342c0 -10.667 -2.83301 -19.667 -8.5 -27s-13.167 -11 -22.5 -11s-17.166 2.66699 -23.499 8s-9.5 13.333 -9.5 24c0 13.333 5.33301 22.333 16 27c-5.33301 2.66699 -9.33301 4 -12 4c-15.333 0 -33.333 -7.5 -54 -22.5s-38.667 -31.833 -54 -50.5v-284h56v-10
h-164v10h24c9.33301 0 15.666 1.83301 18.999 5.5s5 11.167 5 22.5v279c0 17.333 -1.5 29 -4.5 35s-9.5 9 -19.5 9h-24v10h108v-67c23.333 26 44.333 45.333 63 58s39.667 19 63 19c28 0 42 -13 42 -39zM167 -119c0 -20 -7.33203 -42.666 -21.999 -67.999s-32 -48 -52 -68
l-5 6c36.667 42.667 55 81.667 55 117c0 8.66699 -2 15 -6 19c-4.66699 -12.667 -15.334 -19 -32.001 -19c-8.66699 0 -16.667 3.66699 -24 11s-11 16.666 -11 27.999c0 12 4 22 12 30s18.667 12 32 12c16 0 28.833 -5.66699 38.5 -17s14.5 -28.333 14.5 -51z" />
    <glyph glyph-name="Rcaron" unicode="&#x158;" horiz-adv-x="598" 
d="M605 -3l-12.002 0.00195312c-66 -1.33301 -115 10.667 -147 36c-14.667 11.333 -25.834 25.166 -33.501 41.499s-12 28.166 -13 35.499s-2.5 22.333 -4.5 45c-3.33301 38.667 -6.66602 67.167 -9.99902 85.5s-10 36 -20 53s-23.667 28.667 -41 35
s-41.333 11.166 -72 14.499l-72 5v-338h72v-10h-216v10h15c22.667 0 38.167 2.66699 46.5 8s12.5 17.666 12.5 36.999v553c0 20 -4.5 33.167 -13.5 39.5s-24.167 9.83301 -45.5 10.5h-18v10h246c58.667 0 102 -9.66699 130 -29c38 -26 56.333 -67.333 55 -124
c0 -29.333 -6.66699 -55.333 -20 -78s-26.166 -38.5 -38.499 -47.5s-24.833 -16.5 -37.5 -22.5c-25.333 -11.333 -45.666 -18.333 -60.999 -21c1.33301 -0.666992 13 -4.66699 35 -12s41.833 -16.833 59.5 -28.5s32.5 -27.167 44.5 -46.5
c10.667 -16.667 18.334 -46.167 23.001 -88.5s12 -74.166 22 -95.499c6 -13.333 14.667 -25.333 26 -36s21.666 -18 30.999 -22c12 -5.33301 31 -8.66602 57 -9.99902v-10zM398.998 503.002c-2 47.333 -15.8311 85 -41.498 113s-64.167 42 -115.5 42h-62v-299
c44 -4 77.333 -6 100 -6c30.667 0 55.667 9.16699 75 27.5s31.666 38 36.999 59s7.66602 42.167 6.99902 63.5zM401 759.002l3 -11l-140 -61h-11l-146 72l8 4l141 -37h7z" />
    <glyph glyph-name="rcaron" unicode="&#x159;" horiz-adv-x="297" 
d="M298 342c0 -10.667 -2.83301 -19.667 -8.5 -27s-13.167 -11 -22.5 -11s-17.166 2.66699 -23.499 8s-9.5 13.333 -9.5 24c0 13.333 5.33301 22.333 16 27c-5.33301 2.66699 -9.33301 4 -12 4c-15.333 0 -33.333 -7.5 -54 -22.5s-38.667 -31.833 -54 -50.5v-284h56v-10
h-164v10h24c9.33301 0 15.666 1.83301 18.999 5.5s5 11.167 5 22.5v279c0 17.333 -1.5 29 -4.5 35s-9.5 9 -19.5 9h-24v10h108v-67c23.333 26 44.333 45.333 63 58s39.667 19 63 19c28 0 42 -13 42 -39zM59 581l8 4l81 -109h7l83 109l8 -4l-89 -151h-11z" />
    <glyph glyph-name="Sacute" unicode="&#x15a;" horiz-adv-x="469" 
d="M430 179c0 -56 -18.001 -102.166 -54.001 -138.499s-80.667 -54.5 -134 -54.5c-32 0 -68 4.5 -108 13.5s-72.333 18.833 -97 29.5v116h10c9.33301 -52.667 30 -90.5 62 -113.5s74.667 -34.5 128 -34.5c44.667 0 79.834 11.167 105.501 33.5s38.5 54.833 38.5 97.5
c0 35.333 -10.333 64.333 -31 87s-53.667 48.334 -99 77.001l-35 21.5l-34.5 21.5c-6.33301 4 -16.166 10.833 -29.499 20.5s-22.833 17.5 -28.5 23.5s-12.834 14 -21.501 24s-14.667 19.5 -18 28.5s-6.5 19.667 -9.5 32s-4.5 25.5 -4.5 39.5c0 52 16.667 94.333 50 127
s79 49 137 49c48 0 99.667 -12.333 155 -37v-109h-10c-6.66699 41.333 -22 74 -46 98s-56 36 -96 36c-51.333 0 -87.166 -13.5 -107.499 -40.5s-30.5 -57.833 -30.5 -92.5c0 -30.667 9.5 -55.334 28.5 -74.001s59.833 -48.334 122.5 -89.001l25.5 -16.5
c13 -8.33301 21.667 -14 26 -17l23.5 -16.5c11.333 -8 19 -14.167 23 -18.5s10.167 -10.5 18.5 -18.5s14.166 -15.5 17.499 -22.5l11.5 -23.5c4.33301 -8.66699 7.33301 -18 9 -28s2.5 -20.333 2.5 -31zM355.999 766.001l-3 -28l-195 -38l-3 7l181 83z" />
    <glyph glyph-name="sacute" unicode="&#x15b;" horiz-adv-x="292" 
d="M268 96c-0.666992 -34.667 -13.332 -61.333 -37.999 -80s-55.334 -28 -92.001 -28c-14.667 0 -31.5 2 -50.5 6s-34.5 8 -46.5 12l-18 7v83h11c3.33301 -66 37.333 -99 102 -99c24 0 43.5 7.5 58.5 22.5s22.5 32.833 22.5 53.5c0 12.667 -4.16699 25 -12.5 37
s-16.833 21.5 -25.5 28.5s-21 15.5 -37 25.5c-3.33301 2 -11 7 -23 15l-25.5 17c-5 3.33301 -12 8.83301 -21 16.5s-15.5 14 -19.5 19s-7.83301 11.333 -11.5 19s-5.5 15.167 -5.5 22.5c0 31.333 10.333 57.5 31 78.5s48.334 31.5 83.001 31.5
c43.333 0 75.666 -9 96.999 -27v-69h-11c-0.666992 20 -8.83398 39.5 -24.501 58.5s-36.834 28.5 -63.501 28.5c-21.333 0 -38.333 -6 -51 -18s-19 -26.333 -19 -43c0 -6.66699 2.33301 -13.5 7 -20.5s11.834 -14.5 21.501 -22.5s18.334 -14.667 26.001 -20s18 -12 31 -20
s21.167 -13.333 24.5 -16c28 -18.667 48.167 -36 60.5 -52s18.833 -38 19.5 -66zM131.002 434.001l-7 2l53 192h31l20 -20z" />
    <glyph glyph-name="Scircumflex" unicode="&#x15c;" horiz-adv-x="469" 
d="M430 179c0 -56 -18.001 -102.166 -54.001 -138.499s-80.667 -54.5 -134 -54.5c-32 0 -68 4.5 -108 13.5s-72.333 18.833 -97 29.5v116h10c9.33301 -52.667 30 -90.5 62 -113.5s74.667 -34.5 128 -34.5c44.667 0 79.834 11.167 105.501 33.5s38.5 54.833 38.5 97.5
c0 35.333 -10.333 64.333 -31 87s-53.667 48.334 -99 77.001l-35 21.5l-34.5 21.5c-6.33301 4 -16.166 10.833 -29.499 20.5s-22.833 17.5 -28.5 23.5s-12.834 14 -21.501 24s-14.667 19.5 -18 28.5s-6.5 19.667 -9.5 32s-4.5 25.5 -4.5 39.5c0 52 16.667 94.333 50 127
s79 49 137 49c48 0 99.667 -12.333 155 -37v-109h-10c-6.66699 41.333 -22 74 -46 98s-56 36 -96 36c-51.333 0 -87.166 -13.5 -107.499 -40.5s-30.5 -57.833 -30.5 -92.5c0 -30.667 9.5 -55.334 28.5 -74.001s59.833 -48.334 122.5 -89.001l25.5 -16.5
c13 -8.33301 21.667 -14 26 -17l23.5 -16.5c11.333 -8 19 -14.167 23 -18.5s10.167 -10.5 18.5 -18.5s14.166 -15.5 17.499 -22.5l11.5 -23.5c4.33301 -8.66699 7.33301 -18 9 -28s2.5 -20.333 2.5 -31zM386.999 696.001l-8 -4l-121 79h-7l-123 -79l-8 4l131 111h7z" />
    <glyph glyph-name="scircumflex" unicode="&#x15d;" horiz-adv-x="292" 
d="M268 96c-0.666992 -34.667 -13.332 -61.333 -37.999 -80s-55.334 -28 -92.001 -28c-14.667 0 -31.5 2 -50.5 6s-34.5 8 -46.5 12l-18 7v83h11c3.33301 -66 37.333 -99 102 -99c24 0 43.5 7.5 58.5 22.5s22.5 32.833 22.5 53.5c0 12.667 -4.16699 25 -12.5 37
s-16.833 21.5 -25.5 28.5s-21 15.5 -37 25.5c-3.33301 2 -11 7 -23 15l-25.5 17c-5 3.33301 -12 8.83301 -21 16.5s-15.5 14 -19.5 19s-7.83301 11.333 -11.5 19s-5.5 15.167 -5.5 22.5c0 31.333 10.333 57.5 31 78.5s48.334 31.5 83.001 31.5
c43.333 0 75.666 -9 96.999 -27v-69h-11c-0.666992 20 -8.83398 39.5 -24.501 58.5s-36.834 28.5 -63.501 28.5c-21.333 0 -38.333 -6 -51 -18s-19 -26.333 -19 -43c0 -6.66699 2.33301 -13.5 7 -20.5s11.834 -14.5 21.501 -22.5s18.334 -14.667 26.001 -20s18 -12 31 -20
s21.167 -13.333 24.5 -16c28 -18.667 48.167 -36 60.5 -52s18.833 -38 19.5 -66zM243.002 434.001l-8 -4l-81 109h-7l-83 -109l-8 4l89 151h11z" />
    <glyph glyph-name="Scedilla" unicode="&#x15e;" horiz-adv-x="469" 
d="M430 179c0 -54.667 -17.332 -100.168 -51.999 -136.501s-78 -55.166 -130 -56.499l-1 -2c-12 -16.667 -18 -31.667 -18 -45c0 -7.33301 10.167 -21.833 30.5 -43.5s30.5 -38.167 30.5 -49.5c0 -14.667 -5.83301 -26.5 -17.5 -35.5s-24.834 -13.5 -39.501 -13.5
c-20.667 0 -39.334 11.333 -56.001 34l6 5c9.33301 -10 23.333 -15 42 -15c24 0 36 11.667 36 35c0 9.33301 -7.5 23.666 -22.5 42.999s-22.5 33 -22.5 41c0 12 6.66699 27.333 20 46c-31.333 0.666992 -66.5 5.33398 -105.5 14.001s-70.167 18.334 -93.5 29.001v116h10
c9.33301 -52.667 30 -90.5 62 -113.5s74.667 -34.5 128 -34.5c44.667 0 79.834 11.167 105.501 33.5s38.5 54.833 38.5 97.5c0 35.333 -10.333 64.333 -31 87s-53.667 48.334 -99 77.001l-35 21.5l-34.5 21.5c-6.33301 4 -16.166 10.833 -29.499 20.5
s-22.833 17.5 -28.5 23.5s-12.834 14 -21.501 24s-14.667 19.5 -18 28.5s-6.5 19.667 -9.5 32s-4.5 25.5 -4.5 39.5c0 52 16.667 94.333 50 127s79 49 137 49c48 0 99.667 -12.333 155 -37v-109h-10c-6.66699 41.333 -22 74 -46 98s-56 36 -96 36
c-51.333 0 -87.166 -13.5 -107.499 -40.5s-30.5 -57.833 -30.5 -92.5c0 -30.667 9.5 -55.334 28.5 -74.001s59.833 -48.334 122.5 -89.001l25.5 -16.5c13 -8.33301 21.667 -14 26 -17l23.5 -16.5c11.333 -8 19 -14.167 23 -18.5s10.167 -10.5 18.5 -18.5
s14.166 -15.5 17.499 -22.5l11.5 -23.5c4.33301 -8.66699 7.33301 -18 9 -28s2.5 -20.333 2.5 -31z" />
    <glyph glyph-name="scedilla" unicode="&#x15f;" horiz-adv-x="292" 
d="M268 96c-0.666992 -31.333 -10.998 -55.999 -30.998 -73.999s-46 -29 -78 -33l-2 -3c-12 -16.667 -18 -31.667 -18 -45c0 -7.33301 10.167 -21.833 30.5 -43.5s30.5 -38.167 30.5 -49.5c0 -14.667 -5.83301 -26.5 -17.5 -35.5s-24.834 -13.5 -39.501 -13.5
c-20.667 0 -39.334 11.333 -56.001 34l6 5c9.33301 -10 23.333 -15 42 -15c24 0 36 11.667 36 35c0 9.33301 -7.5 23.666 -22.5 42.999s-22.5 33 -22.5 41c0 12 6.66699 27.333 20 46h-8c-14.667 0 -31.5 2 -50.5 6s-34.5 8 -46.5 12l-18 7v83h11
c3.33301 -66 37.333 -99 102 -99c24 0 43.5 7.5 58.5 22.5s22.5 32.833 22.5 53.5c0 12.667 -4.16699 25 -12.5 37s-16.833 21.5 -25.5 28.5s-21 15.5 -37 25.5c-3.33301 2 -11 7 -23 15l-25.5 17c-5 3.33301 -12 8.83301 -21 16.5s-15.5 14 -19.5 19
s-7.83301 11.333 -11.5 19s-5.5 15.167 -5.5 22.5c0 31.333 10.333 57.5 31 78.5s48.334 31.5 83.001 31.5c43.333 0 75.666 -9 96.999 -27v-69h-11c-0.666992 20 -8.83398 39.5 -24.501 58.5s-36.834 28.5 -63.501 28.5c-21.333 0 -38.333 -6 -51 -18s-19 -26.333 -19 -43
c0 -6.66699 2.33301 -13.5 7 -20.5s11.834 -14.5 21.501 -22.5s18.334 -14.667 26.001 -20s18 -12 31 -20s21.167 -13.333 24.5 -16c28 -18.667 48.167 -36 60.5 -52s18.833 -38 19.5 -66z" />
    <glyph glyph-name="Scaron" unicode="&#x160;" horiz-adv-x="469" 
d="M417 786l-139 -91h-7l-141 81l8 4l133 -49h7l131 59zM430 179c0 -56 -18.001 -102.166 -54.001 -138.499s-80.667 -54.5 -134 -54.5c-32 0 -68 4.5 -108 13.5s-72.333 18.833 -97 29.5v116h10c9.33301 -52.667 30 -90.5 62 -113.5s74.667 -34.5 128 -34.5
c44.667 0 79.834 11.167 105.501 33.5s38.5 54.833 38.5 97.5c0 35.333 -10.333 64.333 -31 87s-53.667 48.334 -99 77.001l-35 21.5l-34.5 21.5c-6.33301 4 -16.166 10.833 -29.499 20.5s-22.833 17.5 -28.5 23.5s-12.834 14 -21.501 24s-14.667 19.5 -18 28.5
s-6.5 19.667 -9.5 32s-4.5 25.5 -4.5 39.5c0 52 16.667 94.333 50 127s79 49 137 49c48 0 99.667 -12.333 155 -37v-109h-10c-6.66699 41.333 -22 74 -46 98s-56 36 -96 36c-51.333 0 -87.166 -13.5 -107.499 -40.5s-30.5 -57.833 -30.5 -92.5
c0 -30.667 9.5 -55.334 28.5 -74.001s59.833 -48.334 122.5 -89.001l25.5 -16.5c13 -8.33301 21.667 -14 26 -17l23.5 -16.5c11.333 -8 19 -14.167 23 -18.5s10.167 -10.5 18.5 -18.5s14.166 -15.5 17.499 -22.5l11.5 -23.5c4.33301 -8.66699 7.33301 -18 9 -28
s2.5 -20.333 2.5 -31z" />
    <glyph glyph-name="scaron" unicode="&#x161;" horiz-adv-x="292" 
d="M268 96c-0.666992 -34.667 -13.332 -61.333 -37.999 -80s-55.334 -28 -92.001 -28c-14.667 0 -31.5 2 -50.5 6s-34.5 8 -46.5 12l-18 7v83h11c3.33301 -66 37.333 -99 102 -99c24 0 43.5 7.5 58.5 22.5s22.5 32.833 22.5 53.5c0 12.667 -4.16699 25 -12.5 37
s-16.833 21.5 -25.5 28.5s-21 15.5 -37 25.5c-3.33301 2 -11 7 -23 15l-25.5 17c-5 3.33301 -12 8.83301 -21 16.5s-15.5 14 -19.5 19s-7.83301 11.333 -11.5 19s-5.5 15.167 -5.5 22.5c0 31.333 10.333 57.5 31 78.5s48.334 31.5 83.001 31.5
c43.333 0 75.666 -9 96.999 -27v-69h-11c-0.666992 20 -8.83398 39.5 -24.501 58.5s-36.834 28.5 -63.501 28.5c-21.333 0 -38.333 -6 -51 -18s-19 -26.333 -19 -43c0 -6.66699 2.33301 -13.5 7 -20.5s11.834 -14.5 21.501 -22.5s18.334 -14.667 26.001 -20s18 -12 31 -20
s21.167 -13.333 24.5 -16c28 -18.667 48.167 -36 60.5 -52s18.833 -38 19.5 -66zM60.002 581.001l8 4l81 -109h7l83 109l8 -4l-89 -151h-11z" />
    </font>
</defs>
</svg>
